<?xml version="1.0" encoding="UTF-8" standalone="no"?>
<!DOCTYPE svg PUBLIC "-//W3C//DTD SVG 1.1//EN"
 "http://www.w3.org/Graphics/SVG/1.1/DTD/svg11.dtd">
<!-- Generated by graphviz version 15.0.0 (20260523.1842)
 -->
<!-- Title: koku_ocp_flow Pages: 1 -->
<svg width="1294pt" height="920pt"
 viewBox="0.00 0.00 1294.00 920.00" xmlns="http://www.w3.org/2000/svg" xmlns:xlink="http://www.w3.org/1999/xlink">
<g id="graph0" class="graph" transform="scale(1 1) rotate(0) translate(4 915.5)">
<title>koku_ocp_flow</title>
<polygon fill="white" stroke="none" points="-4,4 -4,-915.5 1290.25,-915.5 1290.25,4 -4,4"/>
<text xml:space="preserve" text-anchor="middle" x="643.13" y="-894.2" font-family="Helvetica,sans-Serif" font-weight="bold" font-size="14.00">Koku OCP Data Flow — Normal Pipeline + OSAC Integration</text>
<text xml:space="preserve" text-anchor="middle" x="643.13" y="-879.2" font-family="Helvetica,sans-Serif" font-weight="bold" font-size="14.00">(On&#45;Prem / Self&#45;Hosted)</text>
<g id="clust1" class="cluster">
<title>cluster_sources</title>
<polygon fill="none" stroke="gray" stroke-dasharray="5,2" points="759.44,-691 759.44,-865.5 1017.44,-865.5 1017.44,-691 759.44,-691"/>
<text xml:space="preserve" text-anchor="middle" x="888.44" y="-848.2" font-family="Helvetica,sans-Serif" font-weight="bold" font-size="14.00">Data Sources</text>
</g>
<g id="clust2" class="cluster">
<title>cluster_raw</title>
<polygon fill="#e3f2fd" stroke="#e3f2fd" points="175.44,-568.75 175.44,-643.75 1048.44,-643.75 1048.44,-568.75 175.44,-568.75"/>
<text xml:space="preserve" text-anchor="middle" x="611.94" y="-626.45" font-family="Helvetica,sans-Serif" font-weight="bold" font-size="14.00">Raw Line Item Tables (per&#45;tenant schema)</text>
</g>
<g id="clust3" class="cluster">
<title>cluster_daily</title>
<polygon fill="#f3e5f5" stroke="#f3e5f5" points="175.44,-458 175.44,-541 1190.44,-541 1190.44,-458 175.44,-458"/>
<text xml:space="preserve" text-anchor="middle" x="682.94" y="-523.7" font-family="Helvetica,sans-Serif" font-weight="bold" font-size="14.00">Daily Aggregated Tables (pandas or koku&#45;sync)</text>
</g>
<g id="clust4" class="cluster">
<title>cluster_summary</title>
<polygon fill="#fff9c4" stroke="#fff9c4" points="430.44,-215.25 430.44,-410.75 706.44,-410.75 706.44,-215.25 430.44,-215.25"/>
<text xml:space="preserve" text-anchor="middle" x="568.44" y="-393.45" font-family="Helvetica,sans-Serif" font-weight="bold" font-size="14.00">Summarization Pipeline</text>
</g>
<g id="clust5" class="cluster">
<title>cluster_cost</title>
<polygon fill="#ffebee" stroke="#ffebee" points="78.44,-89 78.44,-298.25 245.44,-298.25 245.44,-89 78.44,-89"/>
<text xml:space="preserve" text-anchor="middle" x="161.94" y="-280.95" font-family="Helvetica,sans-Serif" font-weight="bold" font-size="14.00">Cost Model Application</text>
</g>
<g id="clust6" class="cluster">
<title>cluster_ui</title>
<polygon fill="#e8eaf6" stroke="#e8eaf6" points="253.44,-85 253.44,-168 1221.44,-168 1221.44,-85 253.44,-85"/>
<text xml:space="preserve" text-anchor="middle" x="737.44" y="-150.7" font-family="Helvetica,sans-Serif" font-weight="bold" font-size="14.00">UI Summary Tables (12+)</text>
</g>
<!-- cmmo -->
<g id="node1" class="node">
<title>cmmo</title>
<polygon fill="#e8f5e9" stroke="black" points="875.56,-834.5 767.31,-834.5 767.31,-790.5 875.56,-790.5 875.56,-834.5"/>
<text xml:space="preserve" text-anchor="middle" x="821.44" y="-820.05" font-family="Helvetica,sans-Serif" font-size="11.00">CMMO</text>
<text xml:space="preserve" text-anchor="middle" x="821.44" y="-808.05" font-family="Helvetica,sans-Serif" font-size="11.00">(Cost Management</text>
<text xml:space="preserve" text-anchor="middle" x="821.44" y="-796.05" font-family="Helvetica,sans-Serif" font-size="11.00">Metrics Operator)</text>
</g>
<!-- pod_raw -->
<g id="node4" class="node">
<title>pod_raw</title>
<polygon fill="#bbdefb" stroke="black" points="301.81,-612.75 183.06,-612.75 183.06,-576.75 301.81,-576.75 301.81,-612.75"/>
<text xml:space="preserve" text-anchor="middle" x="242.44" y="-596.3" font-family="Helvetica,sans-Serif" font-size="11.00">openshift_pod_usage</text>
<text xml:space="preserve" text-anchor="middle" x="242.44" y="-584.3" font-family="Helvetica,sans-Serif" font-size="11.00">_line_items</text>
</g>
<!-- cmmo&#45;&gt;pod_raw -->
<g id="edge1" class="edge">
<title>cmmo&#45;&gt;pod_raw</title>
<path fill="none" stroke="black" d="M767.07,-802.65C701.54,-791.1 588.67,-768.33 495.94,-735 409.85,-704.06 390.2,-690.28 311.44,-643.75 299.07,-636.44 286.01,-627.66 274.62,-619.61"/>
<polygon fill="black" stroke="black" points="276.9,-616.94 266.73,-613.96 272.82,-622.63 276.9,-616.94"/>
<text xml:space="preserve" text-anchor="middle" x="526.69" y="-718.2" font-family="Helvetica,sans-Serif" font-size="9.00">CSV upload</text>
<text xml:space="preserve" text-anchor="middle" x="526.69" y="-708.45" font-family="Helvetica,sans-Serif" font-size="9.00">(Kafka/Ingress)</text>
</g>
<!-- storage_raw -->
<g id="node5" class="node">
<title>storage_raw</title>
<polygon fill="#bbdefb" stroke="black" points="456.81,-612.75 320.06,-612.75 320.06,-576.75 456.81,-576.75 456.81,-612.75"/>
<text xml:space="preserve" text-anchor="middle" x="388.44" y="-596.3" font-family="Helvetica,sans-Serif" font-size="11.00">openshift_storage_usage</text>
<text xml:space="preserve" text-anchor="middle" x="388.44" y="-584.3" font-family="Helvetica,sans-Serif" font-size="11.00">_line_items</text>
</g>
<!-- cmmo&#45;&gt;storage_raw -->
<g id="edge2" class="edge">
<title>cmmo&#45;&gt;storage_raw</title>
<path fill="none" stroke="black" d="M771.29,-790.09C701.53,-759.82 571.78,-701.69 465.44,-643.75 451.66,-636.24 436.95,-627.31 424.11,-619.2"/>
<polygon fill="black" stroke="black" points="426.3,-616.44 415.98,-614.01 422.53,-622.34 426.3,-616.44"/>
</g>
<!-- node_labels -->
<g id="node6" class="node">
<title>node_labels</title>
<polygon fill="#bbdefb" stroke="black" points="598.06,-612.75 474.81,-612.75 474.81,-576.75 598.06,-576.75 598.06,-612.75"/>
<text xml:space="preserve" text-anchor="middle" x="536.44" y="-596.3" font-family="Helvetica,sans-Serif" font-size="11.00">openshift_node_labels</text>
<text xml:space="preserve" text-anchor="middle" x="536.44" y="-584.3" font-family="Helvetica,sans-Serif" font-size="11.00">_line_items</text>
</g>
<!-- cmmo&#45;&gt;node_labels -->
<g id="edge3" class="edge">
<title>cmmo&#45;&gt;node_labels</title>
<path fill="none" stroke="black" d="M793.07,-790.02C739.7,-749.62 624.68,-662.55 568.56,-620.07"/>
<polygon fill="black" stroke="black" points="570.73,-617.32 560.64,-614.07 566.5,-622.9 570.73,-617.32"/>
</g>
<!-- ns_labels -->
<g id="node7" class="node">
<title>ns_labels</title>
<polygon fill="#bbdefb" stroke="black" points="770.81,-612.75 616.06,-612.75 616.06,-576.75 770.81,-576.75 770.81,-612.75"/>
<text xml:space="preserve" text-anchor="middle" x="693.44" y="-596.3" font-family="Helvetica,sans-Serif" font-size="11.00">openshift_namespace_labels</text>
<text xml:space="preserve" text-anchor="middle" x="693.44" y="-584.3" font-family="Helvetica,sans-Serif" font-size="11.00">_line_items</text>
</g>
<!-- cmmo&#45;&gt;ns_labels -->
<g id="edge4" class="edge">
<title>cmmo&#45;&gt;ns_labels</title>
<path fill="none" stroke="black" d="M803.38,-790.13C798.96,-784.53 794.37,-778.41 790.44,-772.5 756.8,-721.91 724.19,-658.68 706.68,-623.2"/>
<polygon fill="black" stroke="black" points="709.95,-621.93 702.41,-614.49 703.66,-625.01 709.95,-621.93"/>
</g>
<!-- vm_raw -->
<g id="node8" class="node">
<title>vm_raw</title>
<polygon fill="#bbdefb" stroke="black" points="903.94,-612.75 788.94,-612.75 788.94,-576.75 903.94,-576.75 903.94,-612.75"/>
<text xml:space="preserve" text-anchor="middle" x="846.44" y="-596.3" font-family="Helvetica,sans-Serif" font-size="11.00">openshift_vm_usage</text>
<text xml:space="preserve" text-anchor="middle" x="846.44" y="-584.3" font-family="Helvetica,sans-Serif" font-size="11.00">_line_items</text>
</g>
<!-- cmmo&#45;&gt;vm_raw -->
<g id="edge5" class="edge">
<title>cmmo&#45;&gt;vm_raw</title>
<path fill="none" stroke="black" d="M809.23,-790.12C797.02,-765.99 781.31,-725.59 790.69,-691 797.56,-665.65 813.06,-640.13 825.98,-621.9"/>
<polygon fill="black" stroke="black" points="828.47,-624.42 831.55,-614.29 822.82,-620.29 828.47,-624.42"/>
<text xml:space="preserve" text-anchor="middle" x="810.56" y="-713.33" font-family="Helvetica,sans-Serif" font-size="9.00">VM report</text>
</g>
<!-- gpu_raw -->
<g id="node9" class="node">
<title>gpu_raw</title>
<polygon fill="#bbdefb" stroke="black" points="1040.81,-612.75 922.06,-612.75 922.06,-576.75 1040.81,-576.75 1040.81,-612.75"/>
<text xml:space="preserve" text-anchor="middle" x="981.44" y="-596.3" font-family="Helvetica,sans-Serif" font-size="11.00">openshift_gpu_usage</text>
<text xml:space="preserve" text-anchor="middle" x="981.44" y="-584.3" font-family="Helvetica,sans-Serif" font-size="11.00">_line_items</text>
</g>
<!-- cmmo&#45;&gt;gpu_raw -->
<g id="edge6" class="edge">
<title>cmmo&#45;&gt;gpu_raw</title>
<path fill="none" stroke="black" d="M824.51,-790.23C829.01,-764.75 839.29,-721.68 860.69,-691 872.69,-673.78 915.5,-641.78 946.75,-619.65"/>
<polygon fill="black" stroke="black" points="948.62,-622.62 954.79,-614 944.6,-616.89 948.62,-622.62"/>
<text xml:space="preserve" text-anchor="middle" x="883.56" y="-713.33" font-family="Helvetica,sans-Serif" font-size="9.00">GPU report</text>
</g>
<!-- osac_consumer -->
<g id="node2" class="node">
<title>osac_consumer</title>
<polygon fill="#fff3e0" stroke="black" stroke-width="2" points="1009.69,-830.5 893.19,-830.5 893.19,-794.5 1009.69,-794.5 1009.69,-830.5"/>
<text xml:space="preserve" text-anchor="middle" x="951.44" y="-814.05" font-family="Helvetica,sans-Serif" font-size="11.00">cost&#45;event&#45;consumer</text>
<text xml:space="preserve" text-anchor="middle" x="951.44" y="-802.05" font-family="Helvetica,sans-Serif" font-size="11.00">(our Go service)</text>
</g>
<!-- koku_sync -->
<g id="node3" class="node">
<title>koku_sync</title>
<polygon fill="#fff3e0" stroke="black" stroke-width="2" points="1009.06,-735 915.81,-735 915.81,-699 1009.06,-699 1009.06,-735"/>
<text xml:space="preserve" text-anchor="middle" x="962.44" y="-718.55" font-family="Helvetica,sans-Serif" font-size="11.00">koku&#45;sync</text>
<text xml:space="preserve" text-anchor="middle" x="962.44" y="-706.55" font-family="Helvetica,sans-Serif" font-size="11.00">(new Go binary)</text>
</g>
<!-- osac_consumer&#45;&gt;koku_sync -->
<g id="edge39" class="edge">
<title>osac_consumer&#45;&gt;koku_sync</title>
<path fill="none" stroke="#e65100" stroke-width="2" d="M953.46,-794.35C954.98,-781.38 957.11,-763.26 958.92,-747.92"/>
<polygon fill="#e65100" stroke="#e65100" stroke-width="2" points="962.35,-748.7 960.04,-738.36 955.4,-747.89 962.35,-748.7"/>
<text xml:space="preserve" text-anchor="middle" x="983" y="-763.95" font-family="Helvetica,sans-Serif" font-size="9.00">reads</text>
<text xml:space="preserve" text-anchor="middle" x="983" y="-754.2" font-family="Helvetica,sans-Serif" font-size="9.00">cost_entries</text>
</g>
<!-- koku_sync&#45;&gt;vm_raw -->
<g id="edge42" class="edge">
<title>koku_sync&#45;&gt;vm_raw</title>
<path fill="none" stroke="#e65100" stroke-dasharray="5,2" d="M945.57,-698.51C925.87,-678.09 893.13,-644.15 870.7,-620.9"/>
<polygon fill="#e65100" stroke="#e65100" points="873.46,-618.72 864,-613.96 868.42,-623.58 873.46,-618.72"/>
<text xml:space="preserve" text-anchor="middle" x="956.66" y="-672.45" font-family="Helvetica,sans-Serif" font-size="9.00">VM data</text>
<text xml:space="preserve" text-anchor="middle" x="956.66" y="-662.7" font-family="Helvetica,sans-Serif" font-size="9.00">(future: use</text>
<text xml:space="preserve" text-anchor="middle" x="956.66" y="-652.95" font-family="Helvetica,sans-Serif" font-size="9.00">existing table)</text>
</g>
<!-- osac_daily -->
<g id="node16" class="node">
<title>osac_daily</title>
<polygon fill="#ffe0b2" stroke="black" stroke-width="2" points="1182.06,-510 1058.81,-510 1058.81,-466 1182.06,-466 1182.06,-510"/>
<text xml:space="preserve" text-anchor="middle" x="1120.44" y="-495.55" font-family="Helvetica,sans-Serif" font-size="11.00">openshift_osac_usage</text>
<text xml:space="preserve" text-anchor="middle" x="1120.44" y="-483.55" font-family="Helvetica,sans-Serif" font-size="11.00">_line_items_daily</text>
<text xml:space="preserve" text-anchor="middle" x="1120.44" y="-471.55" font-family="Helvetica,sans-Serif" font-size="11.00">(NEW — OSAC data)</text>
</g>
<!-- koku_sync&#45;&gt;osac_daily -->
<g id="edge40" class="edge">
<title>koku_sync&#45;&gt;osac_daily</title>
<path fill="none" stroke="#e65100" stroke-width="2" d="M990.61,-698.65C1010.05,-685.53 1035.37,-666.01 1052.44,-643.75 1080.89,-606.64 1100.27,-555.77 1110.85,-522.65"/>
<polygon fill="#e65100" stroke="#e65100" stroke-width="2" points="1114.11,-523.95 1113.7,-513.37 1107.42,-521.89 1114.11,-523.95"/>
<text xml:space="preserve" text-anchor="middle" x="1138.33" y="-595.95" font-family="Helvetica,sans-Serif" font-size="9.00">writes pre&#45;aggregated</text>
<text xml:space="preserve" text-anchor="middle" x="1138.33" y="-586.2" font-family="Helvetica,sans-Serif" font-size="9.00">daily OSAC data</text>
</g>
<!-- pod_daily -->
<g id="node10" class="node">
<title>pod_daily</title>
<polygon fill="#ce93d8" stroke="black" points="301.81,-506 183.06,-506 183.06,-470 301.81,-470 301.81,-506"/>
<text xml:space="preserve" text-anchor="middle" x="242.44" y="-489.55" font-family="Helvetica,sans-Serif" font-size="11.00">openshift_pod_usage</text>
<text xml:space="preserve" text-anchor="middle" x="242.44" y="-477.55" font-family="Helvetica,sans-Serif" font-size="11.00">_line_items_daily</text>
</g>
<!-- pod_raw&#45;&gt;pod_daily -->
<g id="edge7" class="edge">
<title>pod_raw&#45;&gt;pod_daily</title>
<path fill="none" stroke="black" d="M242.44,-576.45C242.44,-560.53 242.44,-536.61 242.44,-517.8"/>
<polygon fill="black" stroke="black" points="245.94,-517.84 242.44,-507.84 238.94,-517.84 245.94,-517.84"/>
<text xml:space="preserve" text-anchor="middle" x="261.19" y="-550.2" font-family="Helvetica,sans-Serif" font-size="9.00">daily agg</text>
</g>
<!-- staging -->
<g id="node17" class="node">
<title>staging</title>
<polygon fill="#fff59d" stroke="black" points="586.44,-379.75 438.44,-379.75 438.44,-343.75 586.44,-343.75 586.44,-379.75"/>
<text xml:space="preserve" text-anchor="middle" x="512.44" y="-363.3" font-family="Helvetica,sans-Serif" font-size="11.00">reporting_ocpusagelineitem</text>
<text xml:space="preserve" text-anchor="middle" x="512.44" y="-351.3" font-family="Helvetica,sans-Serif" font-size="11.00">_daily_summary_staging</text>
</g>
<!-- pod_raw&#45;&gt;staging -->
<g id="edge17" class="edge">
<title>pod_raw&#45;&gt;staging</title>
<path fill="none" stroke="black" stroke-dasharray="5,2" d="M182.7,-588.04C123.15,-580.96 37.72,-566.59 17.44,-541 -5.48,-512.09 -6.05,-486.44 17.44,-458 68.42,-396.27 299.41,-374.12 427.03,-366.51"/>
<polygon fill="black" stroke="black" points="427.01,-370.02 436.79,-365.95 426.6,-363.03 427.01,-370.02"/>
<text xml:space="preserve" text-anchor="middle" x="45.94" y="-489.2" font-family="Helvetica,sans-Serif" font-size="9.00">node capacity</text>
<text xml:space="preserve" text-anchor="middle" x="45.94" y="-479.45" font-family="Helvetica,sans-Serif" font-size="9.00">CTE</text>
</g>
<!-- storage_daily -->
<g id="node11" class="node">
<title>storage_daily</title>
<polygon fill="#ce93d8" stroke="black" points="456.81,-506 320.06,-506 320.06,-470 456.81,-470 456.81,-506"/>
<text xml:space="preserve" text-anchor="middle" x="388.44" y="-489.55" font-family="Helvetica,sans-Serif" font-size="11.00">openshift_storage_usage</text>
<text xml:space="preserve" text-anchor="middle" x="388.44" y="-477.55" font-family="Helvetica,sans-Serif" font-size="11.00">_line_items_daily</text>
</g>
<!-- storage_raw&#45;&gt;storage_daily -->
<g id="edge8" class="edge">
<title>storage_raw&#45;&gt;storage_daily</title>
<path fill="none" stroke="black" d="M388.44,-576.45C388.44,-560.53 388.44,-536.61 388.44,-517.8"/>
<polygon fill="black" stroke="black" points="391.94,-517.84 388.44,-507.84 384.94,-517.84 391.94,-517.84"/>
</g>
<!-- node_labels_daily -->
<g id="node12" class="node">
<title>node_labels_daily</title>
<polygon fill="#ce93d8" stroke="black" points="598.06,-506 474.81,-506 474.81,-470 598.06,-470 598.06,-506"/>
<text xml:space="preserve" text-anchor="middle" x="536.44" y="-489.55" font-family="Helvetica,sans-Serif" font-size="11.00">openshift_node_labels</text>
<text xml:space="preserve" text-anchor="middle" x="536.44" y="-477.55" font-family="Helvetica,sans-Serif" font-size="11.00">_line_items_daily</text>
</g>
<!-- node_labels&#45;&gt;node_labels_daily -->
<g id="edge9" class="edge">
<title>node_labels&#45;&gt;node_labels_daily</title>
<path fill="none" stroke="black" d="M536.44,-576.45C536.44,-560.53 536.44,-536.61 536.44,-517.8"/>
<polygon fill="black" stroke="black" points="539.94,-517.84 536.44,-507.84 532.94,-517.84 539.94,-517.84"/>
</g>
<!-- ns_labels_daily -->
<g id="node13" class="node">
<title>ns_labels_daily</title>
<polygon fill="#ce93d8" stroke="black" points="770.81,-506 616.06,-506 616.06,-470 770.81,-470 770.81,-506"/>
<text xml:space="preserve" text-anchor="middle" x="693.44" y="-489.55" font-family="Helvetica,sans-Serif" font-size="11.00">openshift_namespace_labels</text>
<text xml:space="preserve" text-anchor="middle" x="693.44" y="-477.55" font-family="Helvetica,sans-Serif" font-size="11.00">_line_items_daily</text>
</g>
<!-- ns_labels&#45;&gt;ns_labels_daily -->
<g id="edge10" class="edge">
<title>ns_labels&#45;&gt;ns_labels_daily</title>
<path fill="none" stroke="black" d="M693.44,-576.45C693.44,-560.53 693.44,-536.61 693.44,-517.8"/>
<polygon fill="black" stroke="black" points="696.94,-517.84 693.44,-507.84 689.94,-517.84 696.94,-517.84"/>
</g>
<!-- vm_daily -->
<g id="node14" class="node">
<title>vm_daily</title>
<polygon fill="#ce93d8" stroke="black" points="903.94,-506 788.94,-506 788.94,-470 903.94,-470 903.94,-506"/>
<text xml:space="preserve" text-anchor="middle" x="846.44" y="-489.55" font-family="Helvetica,sans-Serif" font-size="11.00">openshift_vm_usage</text>
<text xml:space="preserve" text-anchor="middle" x="846.44" y="-477.55" font-family="Helvetica,sans-Serif" font-size="11.00">_line_items_daily</text>
</g>
<!-- vm_raw&#45;&gt;vm_daily -->
<g id="edge11" class="edge">
<title>vm_raw&#45;&gt;vm_daily</title>
<path fill="none" stroke="black" d="M846.44,-576.45C846.44,-560.53 846.44,-536.61 846.44,-517.8"/>
<polygon fill="black" stroke="black" points="849.94,-517.84 846.44,-507.84 842.94,-517.84 849.94,-517.84"/>
</g>
<!-- daily_summary -->
<g id="node18" class="node">
<title>daily_summary</title>
<polygon fill="#ffd54f" stroke="black" stroke-width="2" points="651.44,-267.25 503.44,-267.25 503.44,-223.25 651.44,-223.25 651.44,-267.25"/>
<text xml:space="preserve" text-anchor="middle" x="577.44" y="-252.8" font-family="Helvetica,sans-Serif" font-size="11.00">reporting_ocpusagelineitem</text>
<text xml:space="preserve" text-anchor="middle" x="577.44" y="-240.8" font-family="Helvetica,sans-Serif" font-size="11.00">_daily_summary</text>
<text xml:space="preserve" text-anchor="middle" x="577.44" y="-228.8" font-family="Helvetica,sans-Serif" font-size="11.00">(main fact table)</text>
</g>
<!-- vm_raw&#45;&gt;daily_summary -->
<g id="edge27" class="edge">
<title>vm_raw&#45;&gt;daily_summary</title>
<path fill="none" stroke="red" stroke-dasharray="5,2" d="M888.1,-576.32C896.38,-573.39 905.09,-570.68 913.44,-568.75 974.57,-554.58 1152.31,-587.5 1194.44,-541 1219.21,-513.66 1215.78,-488.09 1194.44,-458 1072.57,-286.16 802.03,-252.25 663.23,-246.55"/>
<polygon fill="red" stroke="red" points="663.47,-243.05 653.35,-246.18 663.22,-250.05 663.47,-243.05"/>
<text xml:space="preserve" text-anchor="middle" x="1236.38" y="-439.45" font-family="Helvetica,sans-Serif" font-size="9.00">vm_cost_per_hour</text>
<text xml:space="preserve" text-anchor="middle" x="1236.38" y="-429.7" font-family="Helvetica,sans-Serif" font-size="9.00">vm_core_cost_per_hour</text>
<text xml:space="preserve" text-anchor="middle" x="1236.38" y="-419.95" font-family="Helvetica,sans-Serif" font-size="9.00">(JOIN)</text>
</g>
<!-- vm_tmp -->
<g id="node19" class="node">
<title>vm_tmp</title>
<polygon fill="#fff59d" stroke="black" points="698.06,-379.75 604.81,-379.75 604.81,-343.75 698.06,-343.75 698.06,-379.75"/>
<text xml:space="preserve" text-anchor="middle" x="651.44" y="-363.3" font-family="Helvetica,sans-Serif" font-size="11.00">tmp_virt_{uuid}</text>
<text xml:space="preserve" text-anchor="middle" x="651.44" y="-351.3" font-family="Helvetica,sans-Serif" font-size="11.00">(VM temp table)</text>
</g>
<!-- vm_raw&#45;&gt;vm_tmp -->
<g id="edge19" class="edge">
<title>vm_raw&#45;&gt;vm_tmp</title>
<path fill="none" stroke="black" d="M805.94,-576.31C797.33,-573.27 788.2,-570.52 779.44,-568.75 778.28,-568.52 98.76,-541.85 97.94,-541 72.39,-514.39 72.12,-484.34 97.94,-458 117.41,-438.14 574.27,-461.75 598.44,-448 620.06,-435.7 634.05,-410.6 642.2,-390.81"/>
<polygon fill="black" stroke="black" points="645.41,-392.19 645.69,-381.6 638.87,-389.71 645.41,-392.19"/>
<text xml:space="preserve" text-anchor="middle" x="134.69" y="-489.2" font-family="Helvetica,sans-Serif" font-size="9.00">populate_vm_tmp</text>
<text xml:space="preserve" text-anchor="middle" x="134.69" y="-479.45" font-family="Helvetica,sans-Serif" font-size="9.00">_table.sql</text>
</g>
<!-- gpu_daily -->
<g id="node15" class="node">
<title>gpu_daily</title>
<polygon fill="#ce93d8" stroke="black" points="1040.81,-506 922.06,-506 922.06,-470 1040.81,-470 1040.81,-506"/>
<text xml:space="preserve" text-anchor="middle" x="981.44" y="-489.55" font-family="Helvetica,sans-Serif" font-size="11.00">openshift_gpu_usage</text>
<text xml:space="preserve" text-anchor="middle" x="981.44" y="-477.55" font-family="Helvetica,sans-Serif" font-size="11.00">_line_items_daily</text>
</g>
<!-- gpu_raw&#45;&gt;gpu_daily -->
<g id="edge12" class="edge">
<title>gpu_raw&#45;&gt;gpu_daily</title>
<path fill="none" stroke="black" d="M981.44,-576.45C981.44,-560.53 981.44,-536.61 981.44,-517.8"/>
<polygon fill="black" stroke="black" points="984.94,-517.84 981.44,-507.84 977.94,-517.84 984.94,-517.84"/>
</g>
<!-- pod_daily&#45;&gt;staging -->
<g id="edge13" class="edge">
<title>pod_daily&#45;&gt;staging</title>
<path fill="none" stroke="black" d="M259.7,-469.59C275.78,-454.26 301.07,-432.31 326.69,-418.75 357.85,-402.26 394.58,-389.89 427.11,-381.03"/>
<polygon fill="black" stroke="black" points="427.74,-384.49 436.51,-378.55 425.95,-377.72 427.74,-384.49"/>
<text xml:space="preserve" text-anchor="middle" x="357.06" y="-434.57" font-family="Helvetica,sans-Serif" font-size="9.00">Pod UNION</text>
<text xml:space="preserve" text-anchor="middle" x="357.06" y="-424.82" font-family="Helvetica,sans-Serif" font-size="9.00">(SQL template)</text>
</g>
<!-- storage_daily&#45;&gt;staging -->
<g id="edge14" class="edge">
<title>storage_daily&#45;&gt;staging</title>
<path fill="none" stroke="black" d="M388.67,-469.59C389.71,-454.67 393.3,-433.35 404.69,-418.75 415.91,-404.37 431.86,-393.31 448.06,-384.97"/>
<polygon fill="black" stroke="black" points="449.27,-388.27 456.77,-380.78 446.24,-381.96 449.27,-388.27"/>
<text xml:space="preserve" text-anchor="middle" x="436.56" y="-429.7" font-family="Helvetica,sans-Serif" font-size="9.00">Storage UNION</text>
</g>
<!-- node_labels_daily&#45;&gt;staging -->
<g id="edge15" class="edge">
<title>node_labels_daily&#45;&gt;staging</title>
<path fill="none" stroke="black" d="M497.23,-469.67C488.81,-464.03 481.01,-456.87 476.19,-448 465.81,-428.93 476.46,-406.26 488.85,-389.1"/>
<polygon fill="black" stroke="black" points="491.47,-391.42 494.85,-381.38 485.95,-387.12 491.47,-391.42"/>
<text xml:space="preserve" text-anchor="middle" x="501.31" y="-434.57" font-family="Helvetica,sans-Serif" font-size="9.00">label merge</text>
<text xml:space="preserve" text-anchor="middle" x="501.31" y="-424.82" font-family="Helvetica,sans-Serif" font-size="9.00">(LEFT JOIN)</text>
</g>
<!-- ns_labels_daily&#45;&gt;staging -->
<g id="edge16" class="edge">
<title>ns_labels_daily&#45;&gt;staging</title>
<path fill="none" stroke="black" d="M668.27,-469.72C636.75,-448.09 582.59,-410.91 547.15,-386.58"/>
<polygon fill="black" stroke="black" points="549.16,-383.71 538.93,-380.94 545.19,-389.48 549.16,-383.71"/>
<text xml:space="preserve" text-anchor="middle" x="659.27" y="-429.7" font-family="Helvetica,sans-Serif" font-size="9.00">label merge</text>
</g>
<!-- vm_daily&#45;&gt;vm_tmp -->
<g id="edge20" class="edge">
<title>vm_daily&#45;&gt;vm_tmp</title>
<path fill="none" stroke="black" stroke-dasharray="5,2" d="M819.32,-469.72C785.22,-447.99 726.52,-410.59 688.35,-386.27"/>
<polygon fill="black" stroke="black" points="690.23,-383.31 679.91,-380.89 686.46,-389.22 690.23,-383.31"/>
<text xml:space="preserve" text-anchor="middle" x="799.11" y="-429.7" font-family="Helvetica,sans-Serif" font-size="9.00">fallback</text>
</g>
<!-- gpu_summary -->
<g id="node28" class="node">
<title>gpu_summary</title>
<polygon fill="#9fa8da" stroke="black" points="1213.56,-133 1111.31,-133 1111.31,-97 1213.56,-97 1213.56,-133"/>
<text xml:space="preserve" text-anchor="middle" x="1162.44" y="-116.55" font-family="Helvetica,sans-Serif" font-size="11.00">reporting_ocp</text>
<text xml:space="preserve" text-anchor="middle" x="1162.44" y="-104.55" font-family="Helvetica,sans-Serif" font-size="11.00">_gpu_summary_p</text>
</g>
<!-- gpu_daily&#45;&gt;gpu_summary -->
<g id="edge23" class="edge">
<title>gpu_daily&#45;&gt;gpu_summary</title>
<path fill="none" stroke="black" d="M1020.34,-469.55C1029.79,-465.55 1039.91,-461.46 1049.44,-458 1063.84,-452.76 1071.92,-459.15 1082.44,-448 1163.7,-361.9 1166.86,-208.12 1164.32,-144.63"/>
<polygon fill="black" stroke="black" points="1167.82,-144.51 1163.84,-134.69 1160.83,-144.85 1167.82,-144.51"/>
<text xml:space="preserve" text-anchor="middle" x="1168.81" y="-317.2" font-family="Helvetica,sans-Serif" font-size="9.00">separate</text>
<text xml:space="preserve" text-anchor="middle" x="1168.81" y="-307.45" font-family="Helvetica,sans-Serif" font-size="9.00">SQL</text>
</g>
<!-- osac_daily&#45;&gt;staging -->
<g id="edge41" class="edge">
<title>osac_daily&#45;&gt;staging</title>
<path fill="none" stroke="#e65100" stroke-width="2" d="M1072.05,-465.6C1064.57,-462.77 1056.86,-460.12 1049.44,-458 949.3,-429.42 922.03,-429.36 818.44,-418.75 769.11,-413.7 643.09,-424.46 595.44,-410.75 578.15,-405.78 560.66,-396.44 546.22,-387.32"/>
<polygon fill="#e65100" stroke="#e65100" stroke-width="2" points="548.16,-384.4 537.89,-381.81 544.3,-390.24 548.16,-384.4"/>
<text xml:space="preserve" text-anchor="middle" x="1044.63" y="-434.57" font-family="Helvetica,sans-Serif" font-size="9.00">OSAC UNION</text>
<text xml:space="preserve" text-anchor="middle" x="1044.63" y="-424.82" font-family="Helvetica,sans-Serif" font-size="9.00">(new SQL block)</text>
</g>
<!-- staging&#45;&gt;daily_summary -->
<g id="edge18" class="edge">
<title>staging&#45;&gt;daily_summary</title>
<path fill="none" stroke="black" d="M522.31,-343.36C532.2,-325.94 547.64,-298.75 559.66,-277.56"/>
<polygon fill="black" stroke="black" points="562.61,-279.46 564.51,-269.03 556.52,-276 562.61,-279.46"/>
<text xml:space="preserve" text-anchor="middle" x="566.61" y="-317.2" font-family="Helvetica,sans-Serif" font-size="9.00">copy + uuid</text>
<text xml:space="preserve" text-anchor="middle" x="566.61" y="-307.45" font-family="Helvetica,sans-Serif" font-size="9.00">generation</text>
</g>
<!-- rates_to_usage -->
<g id="node21" class="node">
<title>rates_to_usage</title>
<polygon fill="#ef9a9a" stroke="black" points="237.69,-133 127.19,-133 127.19,-97 237.69,-97 237.69,-133"/>
<text xml:space="preserve" text-anchor="middle" x="182.44" y="-116.55" font-family="Helvetica,sans-Serif" font-size="11.00">rates_to_usage</text>
<text xml:space="preserve" text-anchor="middle" x="182.44" y="-104.55" font-family="Helvetica,sans-Serif" font-size="11.00">(per&#45;rate cost rows)</text>
</g>
<!-- daily_summary&#45;&gt;rates_to_usage -->
<g id="edge24" class="edge">
<title>daily_summary&#45;&gt;rates_to_usage</title>
<path fill="none" stroke="black" d="M503.17,-240.44C449.76,-235.97 376.66,-226.27 315.44,-205.25 274.92,-191.33 234.99,-161.84 209.63,-140.56"/>
<polygon fill="black" stroke="black" points="211.99,-137.97 202.12,-134.12 207.43,-143.29 211.99,-137.97"/>
<text xml:space="preserve" text-anchor="middle" x="340.94" y="-191.82" font-family="Helvetica,sans-Serif" font-size="9.00">usage_rates</text>
<text xml:space="preserve" text-anchor="middle" x="340.94" y="-182.07" font-family="Helvetica,sans-Serif" font-size="9.00">SQL</text>
</g>
<!-- cost_summary -->
<g id="node22" class="node">
<title>cost_summary</title>
<polygon fill="#9fa8da" stroke="black" points="757.31,-133 653.56,-133 653.56,-97 757.31,-97 757.31,-133"/>
<text xml:space="preserve" text-anchor="middle" x="705.44" y="-116.55" font-family="Helvetica,sans-Serif" font-size="11.00">reporting_ocp</text>
<text xml:space="preserve" text-anchor="middle" x="705.44" y="-104.55" font-family="Helvetica,sans-Serif" font-size="11.00">_cost_summary_p</text>
</g>
<!-- daily_summary&#45;&gt;cost_summary -->
<g id="edge28" class="edge">
<title>daily_summary&#45;&gt;cost_summary</title>
<path fill="none" stroke="black" d="M598.86,-222.78C621.27,-200.33 656.43,-165.11 680.17,-141.31"/>
<polygon fill="black" stroke="black" points="682.4,-144.03 686.99,-134.48 677.45,-139.09 682.4,-144.03"/>
<text xml:space="preserve" text-anchor="middle" x="684.65" y="-191.82" font-family="Helvetica,sans-Serif" font-size="9.00">populate_ui</text>
<text xml:space="preserve" text-anchor="middle" x="684.65" y="-182.07" font-family="Helvetica,sans-Serif" font-size="9.00">_summary_tables()</text>
</g>
<!-- cost_by_project -->
<g id="node23" class="node">
<title>cost_by_project</title>
<polygon fill="#9fa8da" stroke="black" points="867.31,-137 775.56,-137 775.56,-93 867.31,-93 867.31,-137"/>
<text xml:space="preserve" text-anchor="middle" x="821.44" y="-122.55" font-family="Helvetica,sans-Serif" font-size="11.00">reporting_ocp</text>
<text xml:space="preserve" text-anchor="middle" x="821.44" y="-110.55" font-family="Helvetica,sans-Serif" font-size="11.00">_cost_summary</text>
<text xml:space="preserve" text-anchor="middle" x="821.44" y="-98.55" font-family="Helvetica,sans-Serif" font-size="11.00">_by_project_p</text>
</g>
<!-- daily_summary&#45;&gt;cost_by_project -->
<g id="edge29" class="edge">
<title>daily_summary&#45;&gt;cost_by_project</title>
<path fill="none" stroke="black" d="M651.74,-232.97C677.14,-227.1 705.03,-218.31 728.44,-205.25 755.39,-190.22 780.28,-165.49 797.52,-145.87"/>
<polygon fill="black" stroke="black" points="800.06,-148.29 803.9,-138.42 794.74,-143.74 800.06,-148.29"/>
</g>
<!-- cost_by_node -->
<g id="node24" class="node">
<title>cost_by_node</title>
<polygon fill="#9fa8da" stroke="black" points="1093.31,-137 1001.56,-137 1001.56,-93 1093.31,-93 1093.31,-137"/>
<text xml:space="preserve" text-anchor="middle" x="1047.44" y="-122.55" font-family="Helvetica,sans-Serif" font-size="11.00">reporting_ocp</text>
<text xml:space="preserve" text-anchor="middle" x="1047.44" y="-110.55" font-family="Helvetica,sans-Serif" font-size="11.00">_cost_summary</text>
<text xml:space="preserve" text-anchor="middle" x="1047.44" y="-98.55" font-family="Helvetica,sans-Serif" font-size="11.00">_by_node_p</text>
</g>
<!-- daily_summary&#45;&gt;cost_by_node -->
<g id="edge30" class="edge">
<title>daily_summary&#45;&gt;cost_by_node</title>
<path fill="none" stroke="black" d="M651.86,-243.08C721.75,-240.27 828.56,-231.54 917.44,-205.25 953.13,-194.69 961.91,-189.3 992.44,-168 1001.88,-161.42 1011.29,-153.25 1019.6,-145.36"/>
<polygon fill="black" stroke="black" points="1022.04,-147.87 1026.73,-138.37 1017.14,-142.87 1022.04,-147.87"/>
</g>
<!-- pod_summary -->
<g id="node25" class="node">
<title>pod_summary</title>
<polygon fill="#9fa8da" stroke="black" points="363.56,-133 261.31,-133 261.31,-97 363.56,-97 363.56,-133"/>
<text xml:space="preserve" text-anchor="middle" x="312.44" y="-116.55" font-family="Helvetica,sans-Serif" font-size="11.00">reporting_ocp</text>
<text xml:space="preserve" text-anchor="middle" x="312.44" y="-104.55" font-family="Helvetica,sans-Serif" font-size="11.00">_pod_summary_p</text>
</g>
<!-- daily_summary&#45;&gt;pod_summary -->
<g id="edge31" class="edge">
<title>daily_summary&#45;&gt;pod_summary</title>
<path fill="none" stroke="black" d="M534.02,-222.94C523.26,-217.39 511.83,-211.27 501.44,-205.25 480.8,-193.29 478.96,-183.87 456.44,-176 421.45,-163.77 407.56,-182.47 373.44,-168 359.18,-161.96 345.8,-151.34 335.22,-141.28"/>
<polygon fill="black" stroke="black" points="337.98,-139.09 328.44,-134.49 333.03,-144.04 337.98,-139.09"/>
</g>
<!-- vm_summary -->
<g id="node26" class="node">
<title>vm_summary</title>
<polygon fill="#9fa8da" stroke="black" points="983.69,-133 885.19,-133 885.19,-97 983.69,-97 983.69,-133"/>
<text xml:space="preserve" text-anchor="middle" x="934.44" y="-116.55" font-family="Helvetica,sans-Serif" font-size="11.00">reporting_ocp</text>
<text xml:space="preserve" text-anchor="middle" x="934.44" y="-104.55" font-family="Helvetica,sans-Serif" font-size="11.00">_vm_summary_p</text>
</g>
<!-- daily_summary&#45;&gt;vm_summary -->
<g id="edge21" class="edge">
<title>daily_summary&#45;&gt;vm_summary</title>
<path fill="none" stroke="black" d="M651.93,-232.83C686.12,-226.51 726.88,-217.42 762.44,-205.25 790.6,-195.61 794.25,-184.79 822.69,-176 845.76,-168.87 854.58,-178.27 876.44,-168 889.83,-161.71 902.36,-151.3 912.33,-141.44"/>
<polygon fill="black" stroke="black" points="914.61,-144.12 919.01,-134.49 909.56,-139.27 914.61,-144.12"/>
<text xml:space="preserve" text-anchor="middle" x="868.06" y="-196.7" font-family="Helvetica,sans-Serif" font-size="9.00">JOIN with</text>
<text xml:space="preserve" text-anchor="middle" x="868.06" y="-186.95" font-family="Helvetica,sans-Serif" font-size="9.00">vm_kubevirt_io_name</text>
<text xml:space="preserve" text-anchor="middle" x="868.06" y="-177.2" font-family="Helvetica,sans-Serif" font-size="9.00">label</text>
</g>
<!-- volume_summary -->
<g id="node27" class="node">
<title>volume_summary</title>
<polygon fill="#9fa8da" stroke="black" points="500.81,-133 382.06,-133 382.06,-97 500.81,-97 500.81,-133"/>
<text xml:space="preserve" text-anchor="middle" x="441.44" y="-116.55" font-family="Helvetica,sans-Serif" font-size="11.00">reporting_ocp</text>
<text xml:space="preserve" text-anchor="middle" x="441.44" y="-104.55" font-family="Helvetica,sans-Serif" font-size="11.00">_volume_summary_p</text>
</g>
<!-- daily_summary&#45;&gt;volume_summary -->
<g id="edge32" class="edge">
<title>daily_summary&#45;&gt;volume_summary</title>
<path fill="none" stroke="black" d="M554.67,-222.78C530.76,-200.23 493.19,-164.8 467.95,-141"/>
<polygon fill="black" stroke="black" points="470.68,-138.77 461,-134.45 465.88,-143.86 470.68,-138.77"/>
</g>
<!-- other_ui -->
<g id="node29" class="node">
<title>other_ui</title>
<polygon fill="#c5cae9" stroke="black" points="635.69,-133 519.19,-133 519.19,-97 635.69,-97 635.69,-133"/>
<text xml:space="preserve" text-anchor="middle" x="577.44" y="-116.55" font-family="Helvetica,sans-Serif" font-size="11.00">... network, by_node,</text>
<text xml:space="preserve" text-anchor="middle" x="577.44" y="-104.55" font-family="Helvetica,sans-Serif" font-size="11.00">by_project variants</text>
</g>
<!-- daily_summary&#45;&gt;other_ui -->
<g id="edge33" class="edge">
<title>daily_summary&#45;&gt;other_ui</title>
<path fill="none" stroke="black" d="M577.44,-222.78C577.44,-201.41 577.44,-168.46 577.44,-144.82"/>
<polygon fill="black" stroke="black" points="580.94,-144.93 577.44,-134.93 573.94,-144.93 580.94,-144.93"/>
</g>
<!-- vm_tmp&#45;&gt;vm_summary -->
<g id="edge22" class="edge">
<title>vm_tmp&#45;&gt;vm_summary</title>
<path fill="none" stroke="black" d="M698.36,-345.85C757.81,-324.49 859.06,-279.34 913.44,-205.25 926.26,-187.78 931.39,-163.64 933.37,-144.87"/>
<polygon fill="black" stroke="black" points="936.86,-145.19 934.15,-134.95 929.88,-144.64 936.86,-145.19"/>
</g>
<!-- cost_model -->
<g id="node20" class="node">
<title>cost_model</title>
<polygon fill="#ef9a9a" stroke="black" points="235.06,-267.25 129.81,-267.25 129.81,-223.25 235.06,-223.25 235.06,-267.25"/>
<text xml:space="preserve" text-anchor="middle" x="182.44" y="-252.8" font-family="Helvetica,sans-Serif" font-size="11.00">cost_model +</text>
<text xml:space="preserve" text-anchor="middle" x="182.44" y="-240.8" font-family="Helvetica,sans-Serif" font-size="11.00">cost_model_rate +</text>
<text xml:space="preserve" text-anchor="middle" x="182.44" y="-228.8" font-family="Helvetica,sans-Serif" font-size="11.00">price_list</text>
</g>
<!-- cost_model&#45;&gt;rates_to_usage -->
<g id="edge25" class="edge">
<title>cost_model&#45;&gt;rates_to_usage</title>
<path fill="none" stroke="black" d="M182.44,-222.78C182.44,-201.41 182.44,-168.46 182.44,-144.82"/>
<polygon fill="black" stroke="black" points="185.94,-144.93 182.44,-134.93 178.94,-144.93 185.94,-144.93"/>
<text xml:space="preserve" text-anchor="middle" x="205.31" y="-186.95" font-family="Helvetica,sans-Serif" font-size="9.00">rate lookup</text>
</g>
<!-- rates_to_usage&#45;&gt;daily_summary -->
<g id="edge26" class="edge">
<title>rates_to_usage&#45;&gt;daily_summary</title>
<path fill="none" stroke="black" d="M198.84,-133.32C211.42,-145.37 229.9,-160.55 249.44,-168 273.79,-177.28 343.5,-163.63 366.44,-176 380.82,-183.75 374.87,-196.54 388.69,-205.25 419.21,-224.48 457.5,-234.43 491.61,-239.5"/>
<polygon fill="black" stroke="black" points="491.11,-242.97 501.49,-240.84 492.05,-236.03 491.11,-242.97"/>
<text xml:space="preserve" text-anchor="middle" x="420.56" y="-191.82" font-family="Helvetica,sans-Serif" font-size="9.00">aggregate back</text>
<text xml:space="preserve" text-anchor="middle" x="420.56" y="-182.07" font-family="Helvetica,sans-Serif" font-size="9.00">to cost columns</text>
</g>
<!-- koku_api -->
<g id="node30" class="node">
<title>koku_api</title>
<polygon fill="#c8e6c9" stroke="black" stroke-width="2" points="907.44,-56 735.44,-56 735.44,0 907.44,0 907.44,-56"/>
<text xml:space="preserve" text-anchor="middle" x="821.44" y="-41.55" font-family="Helvetica,sans-Serif" font-size="11.00">Koku Report API</text>
<text xml:space="preserve" text-anchor="middle" x="821.44" y="-29.55" font-family="Helvetica,sans-Serif" font-size="11.00">GET /reports/openshift/costs/</text>
<text xml:space="preserve" text-anchor="middle" x="821.44" y="-17.55" font-family="Helvetica,sans-Serif" font-size="11.00">GET /reports/openshift/compute/</text>
<text xml:space="preserve" text-anchor="middle" x="821.44" y="-5.55" font-family="Helvetica,sans-Serif" font-size="11.00">etc.</text>
</g>
<!-- cost_summary&#45;&gt;koku_api -->
<g id="edge34" class="edge">
<title>cost_summary&#45;&gt;koku_api</title>
<path fill="none" stroke="black" d="M729.19,-96.59C742.38,-86.93 759.25,-74.57 774.94,-63.07"/>
<polygon fill="black" stroke="black" points="776.79,-66.05 782.79,-57.32 772.66,-60.41 776.79,-66.05"/>
</g>
<!-- cost_by_project&#45;&gt;koku_api -->
<g id="edge35" class="edge">
<title>cost_by_project&#45;&gt;koku_api</title>
<path fill="none" stroke="black" d="M821.44,-92.55C821.44,-84.98 821.44,-76.21 821.44,-67.65"/>
<polygon fill="black" stroke="black" points="824.94,-67.76 821.44,-57.76 817.94,-67.76 824.94,-67.76"/>
</g>
<!-- pod_summary&#45;&gt;koku_api -->
<g id="edge37" class="edge">
<title>pod_summary&#45;&gt;koku_api</title>
<path fill="none" stroke="black" d="M344.29,-96.51C353.46,-92.12 363.65,-87.86 373.44,-85 490.99,-50.68 631.92,-37.39 723.91,-32.25"/>
<polygon fill="black" stroke="black" points="723.85,-35.76 733.65,-31.73 723.48,-28.77 723.85,-35.76"/>
</g>
<!-- vm_summary&#45;&gt;koku_api -->
<g id="edge36" class="edge">
<title>vm_summary&#45;&gt;koku_api</title>
<path fill="none" stroke="black" d="M911.3,-96.59C898.45,-86.93 882.02,-74.57 866.73,-63.07"/>
<polygon fill="black" stroke="black" points="869.2,-60.55 859.11,-57.33 864.99,-66.14 869.2,-60.55"/>
</g>
<!-- gpu_summary&#45;&gt;koku_api -->
<g id="edge38" class="edge">
<title>gpu_summary&#45;&gt;koku_api</title>
<path fill="none" stroke="black" d="M1130.06,-96.5C1121.28,-92.27 1111.65,-88.09 1102.44,-85 1042.87,-65.03 973.68,-51.13 918.87,-42.18"/>
<polygon fill="black" stroke="black" points="919.67,-38.76 909.25,-40.64 918.57,-45.68 919.67,-38.76"/>
</g>
</g>
</svg>
