<?xml version="1.0" encoding="UTF-8" standalone="no"?>
<!DOCTYPE svg PUBLIC "-//W3C//DTD SVG 1.1//EN"
 "http://www.w3.org/Graphics/SVG/1.1/DTD/svg11.dtd">
<!-- Generated by graphviz version 15.1.0 (20260618.0150)
 -->
<!-- Title: architecture_ai_grid_context Pages: 1 -->
<svg width="1287pt" height="708pt"
 viewBox="0.00 0.00 1287.00 708.00" xmlns="http://www.w3.org/2000/svg" xmlns:xlink="http://www.w3.org/1999/xlink">
<g id="graph0" class="graph" transform="scale(1 1) rotate(0) translate(28.8 678.89)">
<title>architecture_ai_grid_context</title>
<polygon fill="white" stroke="none" points="-28.8,28.8 -28.8,-678.89 1257.8,-678.89 1257.8,28.8 -28.8,28.8"/>
<text xml:space="preserve" text-anchor="middle" x="614.5" y="-632.79" font-family="Helvetica,sans-Serif" font-size="14.00">AI Grid — Sovereign Cloud System Context</text>
<g id="clust1" class="cluster">
<title>cluster_ai_grid</title>
<polygon fill="#fff3e0" stroke="#e65100" points="29,-18.7 29,-619.09 237,-619.09 237,-18.7 29,-18.7"/>
<text xml:space="preserve" text-anchor="middle" x="133" y="-603.69" font-family="Helvetica,sans-Serif" font-size="12.00" fill="#e65100">AI Grid — Sovereign Cloud Platform</text>
</g>
<g id="clust2" class="cluster">
<title>cluster_osac</title>
<polygon fill="#e3f2fd" stroke="#1565c0" points="597,-329.41 597,-619.09 966,-619.09 966,-329.41 597,-329.41"/>
<text xml:space="preserve" text-anchor="middle" x="781.5" y="-603.69" font-family="Helvetica,sans-Serif" font-size="12.00" fill="#1565c0">OSAC — Open Sovereign AI Console (orchestrator)</text>
</g>
<g id="clust5" class="cluster">
<title>cluster_cost</title>
<polygon fill="#e8f5e9" stroke="#2e7d32" points="413,-8 413,-284.91 1047,-284.91 1047,-8 413,-8"/>
<text xml:space="preserve" text-anchor="middle" x="730" y="-269.51" font-family="Helvetica,sans-Serif" font-size="12.00" fill="#2e7d32">Cost Management — AI Grid PoC (this repo)</text>
</g>
<g id="clust9" class="cluster">
<title>cluster_legend</title>
<polygon fill="white" stroke="#bdbdbd" points="1129,-437.88 1129,-617.59 1221,-617.59 1221,-437.88 1129,-437.88"/>
<text xml:space="preserve" text-anchor="middle" x="1175" y="-604.09" font-family="Helvetica,sans-Serif" font-size="10.00">Legend</text>
</g>
<!-- customer -->
<g id="node1" class="node">
<title>customer</title>
<path fill="#e1f5fe" stroke="#0277bd" d="M1092.5,-590.34C1092.5,-590.34 989.5,-590.34 989.5,-590.34 983.5,-590.34 977.5,-584.34 977.5,-578.34 977.5,-578.34 977.5,-566.34 977.5,-566.34 977.5,-560.34 983.5,-554.34 989.5,-554.34 989.5,-554.34 1092.5,-554.34 1092.5,-554.34 1098.5,-554.34 1104.5,-560.34 1104.5,-566.34 1104.5,-566.34 1104.5,-578.34 1104.5,-578.34 1104.5,-584.34 1098.5,-590.34 1092.5,-590.34"/>
<text xml:space="preserve" text-anchor="middle" x="1041" y="-568.47" font-family="Helvetica,sans-Serif" font-size="10.00">Customer / Tenant Admin</text>
</g>
<!-- osac_api -->
<g id="node10" class="node">
<title>osac_api</title>
<path fill="#64b5f6" stroke="#1565c0" d="M945.5,-481.88C945.5,-481.88 860.5,-481.88 860.5,-481.88 854.5,-481.88 848.5,-475.88 848.5,-469.88 848.5,-469.88 848.5,-457.88 848.5,-457.88 848.5,-451.88 854.5,-445.88 860.5,-445.88 860.5,-445.88 945.5,-445.88 945.5,-445.88 951.5,-445.88 957.5,-451.88 957.5,-457.88 957.5,-457.88 957.5,-469.88 957.5,-469.88 957.5,-475.88 951.5,-481.88 945.5,-481.88"/>
<text xml:space="preserve" text-anchor="middle" x="903" y="-465.62" font-family="Helvetica,sans-Serif" font-size="10.00">Fulfillment API</text>
<text xml:space="preserve" text-anchor="middle" x="903" y="-454.38" font-family="Helvetica,sans-Serif" font-size="10.00">gRPC + REST :8011</text>
</g>
<!-- customer&#45;&gt;osac_api -->
<g id="edge15" class="edge">
<title>customer&#45;&gt;osac_api</title>
<path fill="none" stroke="#0277bd" d="M1017.48,-553.89C1007.43,-546.39 995.6,-537.49 985,-529.34 967.83,-516.16 948.82,-501.23 933.42,-489.06"/>
<polygon fill="#0277bd" stroke="#0277bd" points="936.02,-486.65 926.01,-483.19 931.67,-492.14 936.02,-486.65"/>
<text xml:space="preserve" text-anchor="middle" x="1024" y="-515.92" font-family="Helvetica,sans-Serif" font-size="9.00" fill="#0277bd">provision / manage</text>
</g>
<!-- cost_api -->
<g id="node19" class="node">
<title>cost_api</title>
<path fill="#81c784" stroke="#2e7d32" d="M1008.75,-62.7C1008.75,-62.7 931.25,-62.7 931.25,-62.7 925.25,-62.7 919.25,-56.7 919.25,-50.7 919.25,-50.7 919.25,-38.7 919.25,-38.7 919.25,-32.7 925.25,-26.7 931.25,-26.7 931.25,-26.7 1008.75,-26.7 1008.75,-26.7 1014.75,-26.7 1020.75,-32.7 1020.75,-38.7 1020.75,-38.7 1020.75,-50.7 1020.75,-50.7 1020.75,-56.7 1014.75,-62.7 1008.75,-62.7"/>
<text xml:space="preserve" text-anchor="middle" x="970" y="-46.45" font-family="Helvetica,sans-Serif" font-size="10.00">Cost / Quota API</text>
<text xml:space="preserve" text-anchor="middle" x="970" y="-35.2" font-family="Helvetica,sans-Serif" font-size="10.00">+ Dashboard (TBD)</text>
</g>
<!-- customer&#45;&gt;cost_api -->
<g id="edge16" class="edge">
<title>customer&#45;&gt;cost_api</title>
<path fill="none" stroke="#0277bd" d="M1054.09,-553.92C1068,-533.64 1088,-498.62 1088,-464.88 1088,-464.88 1088,-464.88 1088,-150.16 1088,-112.88 1054.57,-85.69 1023.3,-68.42"/>
<polygon fill="#0277bd" stroke="#0277bd" points="1025.09,-65.4 1014.61,-63.86 1021.84,-71.6 1025.09,-65.4"/>
<text xml:space="preserve" text-anchor="middle" x="1121.75" y="-298.98" font-family="Helvetica,sans-Serif" font-size="9.00" fill="#0277bd">view cost / quota</text>
</g>
<!-- ocp -->
<g id="node2" class="node">
<title>ocp</title>
<path fill="#ffe0b2" stroke="#e65100" d="M159.38,-590.34C159.38,-590.34 106.62,-590.34 106.62,-590.34 100.62,-590.34 94.62,-584.34 94.62,-578.34 94.62,-578.34 94.62,-566.34 94.62,-566.34 94.62,-560.34 100.62,-554.34 106.62,-554.34 106.62,-554.34 159.38,-554.34 159.38,-554.34 165.38,-554.34 171.38,-560.34 171.38,-566.34 171.38,-566.34 171.38,-578.34 171.38,-578.34 171.38,-584.34 165.38,-590.34 159.38,-590.34"/>
<text xml:space="preserve" text-anchor="middle" x="133" y="-574.09" font-family="Helvetica,sans-Serif" font-size="10.00">OpenShift CP</text>
<text xml:space="preserve" text-anchor="middle" x="133" y="-562.84" font-family="Helvetica,sans-Serif" font-size="10.00">(CaaS)</text>
</g>
<!-- ocpvirt -->
<g id="node3" class="node">
<title>ocpvirt</title>
<path fill="#ffe0b2" stroke="#e65100" d="M216.75,-481.88C216.75,-481.88 127.25,-481.88 127.25,-481.88 121.25,-481.88 115.25,-475.88 115.25,-469.88 115.25,-469.88 115.25,-457.88 115.25,-457.88 115.25,-451.88 121.25,-445.88 127.25,-445.88 127.25,-445.88 216.75,-445.88 216.75,-445.88 222.75,-445.88 228.75,-451.88 228.75,-457.88 228.75,-457.88 228.75,-469.88 228.75,-469.88 228.75,-475.88 222.75,-481.88 216.75,-481.88"/>
<text xml:space="preserve" text-anchor="middle" x="172" y="-465.62" font-family="Helvetica,sans-Serif" font-size="10.00">OpenShift</text>
<text xml:space="preserve" text-anchor="middle" x="172" y="-454.38" font-family="Helvetica,sans-Serif" font-size="10.00">Virtualization (VMaaS)</text>
</g>
<!-- ocp&#45;&gt;ocpvirt -->
<!-- ocpai -->
<g id="node4" class="node">
<title>ocpai</title>
<path fill="#ffe0b2" stroke="#e65100" d="M211.75,-373.41C211.75,-373.41 164.25,-373.41 164.25,-373.41 158.25,-373.41 152.25,-367.41 152.25,-361.41 152.25,-361.41 152.25,-349.41 152.25,-349.41 152.25,-343.41 158.25,-337.41 164.25,-337.41 164.25,-337.41 211.75,-337.41 211.75,-337.41 217.75,-337.41 223.75,-343.41 223.75,-349.41 223.75,-349.41 223.75,-361.41 223.75,-361.41 223.75,-367.41 217.75,-373.41 211.75,-373.41"/>
<text xml:space="preserve" text-anchor="middle" x="188" y="-357.16" font-family="Helvetica,sans-Serif" font-size="10.00">OpenShift AI</text>
<text xml:space="preserve" text-anchor="middle" x="188" y="-345.91" font-family="Helvetica,sans-Serif" font-size="10.00">(MaaS)</text>
</g>
<!-- ocpvirt&#45;&gt;ocpai -->
<!-- baremetal -->
<g id="node5" class="node">
<title>baremetal</title>
<path fill="#ffecb3" stroke="#e65100" stroke-dasharray="5,2" d="M150.62,-256.16C150.62,-256.16 111.38,-256.16 111.38,-256.16 105.38,-256.16 99.38,-250.16 99.38,-244.16 99.38,-244.16 99.38,-232.16 99.38,-232.16 99.38,-226.16 105.38,-220.16 111.38,-220.16 111.38,-220.16 150.62,-220.16 150.62,-220.16 156.62,-220.16 162.62,-226.16 162.62,-232.16 162.62,-232.16 162.62,-244.16 162.62,-244.16 162.62,-250.16 156.62,-256.16 150.62,-256.16"/>
<text xml:space="preserve" text-anchor="middle" x="131" y="-239.91" font-family="Helvetica,sans-Serif" font-size="10.00">Bare Metal</text>
<text xml:space="preserve" text-anchor="middle" x="131" y="-228.66" font-family="Helvetica,sans-Serif" font-size="10.00">(BMaaS)</text>
</g>
<!-- ocpai&#45;&gt;baremetal -->
<!-- osac_gateway -->
<g id="node9" class="node">
<title>osac_gateway</title>
<path fill="#90caf9" stroke="#1565c0" d="M916,-590.34C916,-590.34 840,-590.34 840,-590.34 834,-590.34 828,-584.34 828,-578.34 828,-578.34 828,-566.34 828,-566.34 828,-560.34 834,-554.34 840,-554.34 840,-554.34 916,-554.34 916,-554.34 922,-554.34 928,-560.34 928,-566.34 928,-566.34 928,-578.34 928,-578.34 928,-584.34 922,-590.34 916,-590.34"/>
<text xml:space="preserve" text-anchor="middle" x="878" y="-574.09" font-family="Helvetica,sans-Serif" font-size="10.00">AI Gateway</text>
<text xml:space="preserve" text-anchor="middle" x="878" y="-562.84" font-family="Helvetica,sans-Serif" font-size="10.00">(Envoy/Istio + IPP)</text>
</g>
<!-- ocpai&#45;&gt;osac_gateway -->
<g id="edge23" class="edge">
<title>ocpai&#45;&gt;osac_gateway</title>
<path fill="none" stroke="#1565c0" d="M199.14,-373.84C209.14,-387.99 225.13,-407.28 244,-417.91 284.25,-440.57 302.24,-423.07 346,-437.88 432.88,-467.27 442.83,-504.05 531,-529.34 638.33,-560.14 670.37,-539.14 781,-554.34 792.49,-555.92 804.7,-557.86 816.44,-559.85"/>
<polygon fill="#1565c0" stroke="#1565c0" points="815.57,-563.25 826.02,-561.51 816.77,-556.36 815.57,-563.25"/>
<text xml:space="preserve" text-anchor="middle" x="455.52" y="-465.07" font-family="Helvetica,sans-Serif" font-size="9.00" fill="#1565c0">inference</text>
<text xml:space="preserve" text-anchor="middle" x="455.52" y="-455.32" font-family="Helvetica,sans-Serif" font-size="9.00" fill="#1565c0">traffic</text>
</g>
<!-- acm -->
<g id="node6" class="node">
<title>acm</title>
<path fill="#ffe0b2" stroke="#e65100" d="M166,-169.16C166,-169.16 96,-169.16 96,-169.16 90,-169.16 84,-163.16 84,-157.16 84,-157.16 84,-145.16 84,-145.16 84,-139.16 90,-133.16 96,-133.16 96,-133.16 166,-133.16 166,-133.16 172,-133.16 178,-139.16 178,-145.16 178,-145.16 178,-157.16 178,-157.16 178,-163.16 172,-169.16 166,-169.16"/>
<text xml:space="preserve" text-anchor="middle" x="131" y="-152.91" font-family="Helvetica,sans-Serif" font-size="10.00">Advanced Cluster</text>
<text xml:space="preserve" text-anchor="middle" x="131" y="-141.66" font-family="Helvetica,sans-Serif" font-size="10.00">Manager</text>
</g>
<!-- baremetal&#45;&gt;acm -->
<!-- ansible -->
<g id="node7" class="node">
<title>ansible</title>
<path fill="#ffe0b2" stroke="#e65100" d="M147,-62.7C147,-62.7 71,-62.7 71,-62.7 65,-62.7 59,-56.7 59,-50.7 59,-50.7 59,-38.7 59,-38.7 59,-32.7 65,-26.7 71,-26.7 71,-26.7 147,-26.7 147,-26.7 153,-26.7 159,-32.7 159,-38.7 159,-38.7 159,-50.7 159,-50.7 159,-56.7 153,-62.7 147,-62.7"/>
<text xml:space="preserve" text-anchor="middle" x="109" y="-46.45" font-family="Helvetica,sans-Serif" font-size="10.00">Ansible Automation</text>
<text xml:space="preserve" text-anchor="middle" x="109" y="-35.2" font-family="Helvetica,sans-Serif" font-size="10.00">Platform</text>
</g>
<!-- acm&#45;&gt;ansible -->
<!-- osac_ctrl -->
<g id="node8" class="node">
<title>osac_ctrl</title>
<path fill="#90caf9" stroke="#1565c0" d="M752.62,-590.34C752.62,-590.34 617.38,-590.34 617.38,-590.34 611.38,-590.34 605.38,-584.34 605.38,-578.34 605.38,-578.34 605.38,-566.34 605.38,-566.34 605.38,-560.34 611.38,-554.34 617.38,-554.34 617.38,-554.34 752.62,-554.34 752.62,-554.34 758.62,-554.34 764.62,-560.34 764.62,-566.34 764.62,-566.34 764.62,-578.34 764.62,-578.34 764.62,-584.34 758.62,-590.34 752.62,-590.34"/>
<text xml:space="preserve" text-anchor="middle" x="685" y="-574.09" font-family="Helvetica,sans-Serif" font-size="10.00">OSAC Controllers</text>
<text xml:space="preserve" text-anchor="middle" x="685" y="-562.84" font-family="Helvetica,sans-Serif" font-size="10.00">cluster / VM / model / bare&#45;metal</text>
</g>
<!-- osac_ctrl&#45;&gt;ocp -->
<g id="edge17" class="edge">
<title>osac_ctrl&#45;&gt;ocp</title>
<path fill="none" stroke="#1565c0" d="M605.03,-572.34C489.49,-572.34 279.22,-572.34 183.22,-572.34"/>
<polygon fill="#1565c0" stroke="#1565c0" points="183.33,-568.84 173.33,-572.34 183.33,-575.84 183.33,-568.84"/>
<text xml:space="preserve" text-anchor="middle" x="388.38" y="-586.29" font-family="Helvetica,sans-Serif" font-size="9.00" fill="#1565c0">provisions +</text>
<text xml:space="preserve" text-anchor="middle" x="388.38" y="-576.54" font-family="Helvetica,sans-Serif" font-size="9.00" fill="#1565c0">monitors</text>
</g>
<!-- osac_ctrl&#45;&gt;ocpvirt -->
<g id="edge18" class="edge">
<title>osac_ctrl&#45;&gt;ocpvirt</title>
<path fill="none" stroke="#1565c0" d="M605.2,-571.62C490.69,-570.76 286.5,-564.18 222.5,-529.34 207.08,-520.95 194.78,-505.65 186.18,-492.06"/>
<polygon fill="#1565c0" stroke="#1565c0" points="189.2,-490.28 181.11,-483.45 183.17,-493.84 189.2,-490.28"/>
<text xml:space="preserve" text-anchor="middle" x="247.25" y="-520.79" font-family="Helvetica,sans-Serif" font-size="9.00" fill="#1565c0">provisions +</text>
<text xml:space="preserve" text-anchor="middle" x="247.25" y="-511.04" font-family="Helvetica,sans-Serif" font-size="9.00" fill="#1565c0">monitors</text>
</g>
<!-- osac_ctrl&#45;&gt;ocpai -->
<g id="edge19" class="edge">
<title>osac_ctrl&#45;&gt;ocpai</title>
<path fill="none" stroke="#1565c0" d="M605.11,-566.76C523.9,-561.06 404.34,-549.55 363,-529.34 293.31,-495.28 234.42,-422.51 206.09,-383.1"/>
<polygon fill="#1565c0" stroke="#1565c0" points="209.05,-381.23 200.43,-375.08 203.33,-385.27 209.05,-381.23"/>
<text xml:space="preserve" text-anchor="middle" x="316.61" y="-460.2" font-family="Helvetica,sans-Serif" font-size="9.00" fill="#1565c0">provisions</text>
</g>
<!-- osac_ctrl&#45;&gt;baremetal -->
<g id="edge20" class="edge">
<title>osac_ctrl&#45;&gt;baremetal</title>
<path fill="none" stroke="#1565c0" stroke-dasharray="5,2" d="M605.12,-568.03C485.98,-562.5 267.63,-549.92 192,-529.34 147.79,-517.31 123.43,-523.61 99,-484.84 55.71,-416.14 93.67,-315.15 116.59,-266.86"/>
<polygon fill="#1565c0" stroke="#1565c0" points="119.71,-268.45 120.96,-257.93 113.42,-265.37 119.71,-268.45"/>
<text xml:space="preserve" text-anchor="middle" x="100.39" y="-404.48" font-family="Helvetica,sans-Serif" font-size="9.00" fill="#1565c0">provisions</text>
</g>
<!-- osac_ctrl&#45;&gt;acm -->
<g id="edge21" class="edge">
<title>osac_ctrl&#45;&gt;acm</title>
<path fill="none" stroke="#1565c0" d="M605.02,-558.78C517.05,-542.64 388,-511.09 388,-464.88 388,-464.88 388,-464.88 388,-237.16 388,-195.64 265.59,-170.94 189.73,-159.62"/>
<polygon fill="#1565c0" stroke="#1565c0" points="190.33,-156.17 179.94,-158.2 189.33,-163.1 190.33,-156.17"/>
<text xml:space="preserve" text-anchor="middle" x="405.62" y="-351.73" font-family="Helvetica,sans-Serif" font-size="9.00" fill="#1565c0">registers</text>
</g>
<!-- osac_ctrl&#45;&gt;ansible -->
<g id="edge22" class="edge">
<title>osac_ctrl&#45;&gt;ansible</title>
<path fill="none" stroke="#1565c0" d="M604.89,-569.72C470.21,-566.28 204.38,-556.23 115,-529.34 58.89,-512.46 0,-523.47 0,-464.88 0,-464.88 0,-464.88 0,-150.16 0,-114.01 31.63,-86.5 60.82,-68.8"/>
<polygon fill="#1565c0" stroke="#1565c0" points="62.34,-71.96 69.26,-63.94 58.85,-65.9 62.34,-71.96"/>
<text xml:space="preserve" text-anchor="middle" x="21" y="-303.86" font-family="Helvetica,sans-Serif" font-size="9.00" fill="#1565c0">triggers</text>
<text xml:space="preserve" text-anchor="middle" x="21" y="-294.11" font-family="Helvetica,sans-Serif" font-size="9.00" fill="#1565c0">playbooks</text>
</g>
<!-- osac_ctrl&#45;&gt;osac_gateway -->
<!-- osac_ctrl&#45;&gt;osac_api -->
<g id="edge7" class="edge">
<title>osac_ctrl&#45;&gt;osac_api</title>
<path fill="none" stroke="#555555" d="M724.58,-554.01C741.17,-546.61 760.61,-537.75 778,-529.34 805.7,-515.96 836.41,-500.13 860.47,-487.51"/>
<polygon fill="#555555" stroke="#555555" points="861.78,-490.77 869,-483.02 858.52,-484.58 861.78,-490.77"/>
</g>
<!-- osac_watch -->
<g id="node11" class="node">
<title>osac_watch</title>
<path fill="#90caf9" stroke="#1565c0" d="M790.62,-373.41C790.62,-373.41 727.38,-373.41 727.38,-373.41 721.38,-373.41 715.38,-367.41 715.38,-361.41 715.38,-361.41 715.38,-349.41 715.38,-349.41 715.38,-343.41 721.38,-337.41 727.38,-337.41 727.38,-337.41 790.62,-337.41 790.62,-337.41 796.62,-337.41 802.62,-343.41 802.62,-349.41 802.62,-349.41 802.62,-361.41 802.62,-361.41 802.62,-367.41 796.62,-373.41 790.62,-373.41"/>
<text xml:space="preserve" text-anchor="middle" x="759" y="-357.16" font-family="Helvetica,sans-Serif" font-size="10.00">Watch Stream</text>
<text xml:space="preserve" text-anchor="middle" x="759" y="-345.91" font-family="Helvetica,sans-Serif" font-size="10.00">(NDJSON/SSE)</text>
</g>
<!-- osac_ctrl&#45;&gt;osac_watch -->
<g id="edge25" class="edge">
<title>osac_ctrl&#45;&gt;osac_watch</title>
<path fill="none" stroke="#555555" d="M673.6,-554.09C657.81,-527.83 633.27,-476.79 652.5,-437.88 664.94,-412.7 689.31,-393.15 711.6,-379.53"/>
<polygon fill="#555555" stroke="#555555" points="713.13,-382.69 720.01,-374.63 709.6,-376.64 713.13,-382.69"/>
<text xml:space="preserve" text-anchor="middle" x="675.75" y="-460.2" font-family="Helvetica,sans-Serif" font-size="9.00">emit events</text>
</g>
<!-- osac_db -->
<g id="node12" class="node">
<title>osac_db</title>
<path fill="#bbdefb" stroke="#1565c0" d="M784.62,-481.03C784.62,-483.13 769.11,-484.84 750,-484.84 730.89,-484.84 715.38,-483.13 715.38,-481.03 715.38,-481.03 715.38,-446.72 715.38,-446.72 715.38,-444.62 730.89,-442.91 750,-442.91 769.11,-442.91 784.62,-444.62 784.62,-446.72 784.62,-446.72 784.62,-481.03 784.62,-481.03"/>
<path fill="none" stroke="#1565c0" d="M784.62,-481.03C784.62,-478.93 769.11,-477.22 750,-477.22 730.89,-477.22 715.38,-478.93 715.38,-481.03"/>
<text xml:space="preserve" text-anchor="middle" x="750" y="-465.62" font-family="Helvetica,sans-Serif" font-size="10.00">OSAC</text>
<text xml:space="preserve" text-anchor="middle" x="750" y="-454.38" font-family="Helvetica,sans-Serif" font-size="10.00">PostgreSQL</text>
</g>
<!-- osac_ctrl&#45;&gt;osac_db -->
<g id="edge24" class="edge">
<title>osac_ctrl&#45;&gt;osac_db</title>
<path fill="none" stroke="#555555" d="M695.44,-554.24C705.18,-538.29 719.91,-514.16 731.61,-494.99"/>
<polygon fill="#555555" stroke="#555555" points="734.57,-496.87 736.79,-486.51 728.6,-493.22 734.57,-496.87"/>
<text xml:space="preserve" text-anchor="middle" x="745.77" y="-515.92" font-family="Helvetica,sans-Serif" font-size="9.00">persist state</text>
</g>
<!-- ingest -->
<g id="node14" class="node">
<title>ingest</title>
<path fill="#81c784" stroke="#2e7d32" d="M580.12,-256.16C580.12,-256.16 531.88,-256.16 531.88,-256.16 525.88,-256.16 519.88,-250.16 519.88,-244.16 519.88,-244.16 519.88,-232.16 519.88,-232.16 519.88,-226.16 525.88,-220.16 531.88,-220.16 531.88,-220.16 580.12,-220.16 580.12,-220.16 586.12,-220.16 592.12,-226.16 592.12,-232.16 592.12,-232.16 592.12,-244.16 592.12,-244.16 592.12,-250.16 586.12,-256.16 580.12,-256.16"/>
<text xml:space="preserve" text-anchor="middle" x="556" y="-239.91" font-family="Helvetica,sans-Serif" font-size="10.00">HTTP Ingest</text>
<text xml:space="preserve" text-anchor="middle" x="556" y="-228.66" font-family="Helvetica,sans-Serif" font-size="10.00">CloudEvents</text>
</g>
<!-- osac_gateway&#45;&gt;ingest -->
<g id="edge28" class="edge">
<title>osac_gateway&#45;&gt;ingest</title>
<path fill="none" stroke="#1565c0" d="M827.76,-564.01C792.17,-557.68 743.87,-546.75 704,-529.34 671.24,-515.04 658.68,-513.27 637,-484.84 585.78,-417.68 566.1,-316.61 559.26,-267.69"/>
<polygon fill="#1565c0" stroke="#1565c0" points="562.76,-267.39 557.99,-257.93 555.82,-268.3 562.76,-267.39"/>
<text xml:space="preserve" text-anchor="middle" x="624.79" y="-409.36" font-family="Helvetica,sans-Serif" font-size="9.00" fill="#1565c0">MaaS usage</text>
<text xml:space="preserve" text-anchor="middle" x="624.79" y="-399.61" font-family="Helvetica,sans-Serif" font-size="9.00" fill="#1565c0">CloudEvents</text>
</g>
<!-- osac_api&#45;&gt;osac_watch -->
<g id="edge8" class="edge">
<title>osac_api&#45;&gt;osac_watch</title>
<path fill="none" stroke="#555555" d="M870.55,-438.88C843.77,-419.08 806.4,-391.45 782.45,-373.74"/>
<polygon fill="#555555" stroke="#555555" points="868.2,-441.5 878.33,-444.63 872.37,-435.87 868.2,-441.5"/>
<text xml:space="preserve" text-anchor="middle" x="853.5" y="-404.48" font-family="Helvetica,sans-Serif" font-size="9.00">stream</text>
</g>
<!-- osac_api&#45;&gt;osac_db -->
<!-- watcher -->
<g id="node13" class="node">
<title>watcher</title>
<path fill="#a5d6a7" stroke="#2e7d32" d="M783.25,-256.16C783.25,-256.16 696.75,-256.16 696.75,-256.16 690.75,-256.16 684.75,-250.16 684.75,-244.16 684.75,-244.16 684.75,-232.16 684.75,-232.16 684.75,-226.16 690.75,-220.16 696.75,-220.16 696.75,-220.16 783.25,-220.16 783.25,-220.16 789.25,-220.16 795.25,-226.16 795.25,-232.16 795.25,-232.16 795.25,-244.16 795.25,-244.16 795.25,-250.16 789.25,-256.16 783.25,-256.16"/>
<text xml:space="preserve" text-anchor="middle" x="740" y="-239.91" font-family="Helvetica,sans-Serif" font-size="10.00">inventory&#45;watcher</text>
<text xml:space="preserve" text-anchor="middle" x="740" y="-228.66" font-family="Helvetica,sans-Serif" font-size="10.00">Watcher + Reconciler</text>
</g>
<!-- osac_api&#45;&gt;watcher -->
<g id="edge27" class="edge">
<title>osac_api&#45;&gt;watcher</title>
<path fill="none" stroke="#1565c0" d="M848.03,-446.9C777.89,-425.97 664.19,-389.99 652.5,-373.41 625.95,-335.73 670.42,-290.58 705.1,-263.42"/>
<polygon fill="#1565c0" stroke="#1565c0" points="707.05,-266.34 712.9,-257.5 702.82,-260.76 707.05,-266.34"/>
<text xml:space="preserve" text-anchor="middle" x="675.75" y="-356.61" font-family="Helvetica,sans-Serif" font-size="9.00" fill="#1565c0">List APIs</text>
<text xml:space="preserve" text-anchor="middle" x="675.75" y="-346.86" font-family="Helvetica,sans-Serif" font-size="9.00" fill="#1565c0">(reconciler)</text>
</g>
<!-- osac_watch&#45;&gt;watcher -->
<g id="edge26" class="edge">
<title>osac_watch&#45;&gt;watcher</title>
<path fill="none" stroke="#1565c0" d="M756.2,-337.4C753.18,-319.12 748.34,-289.75 744.73,-267.87"/>
<polygon fill="#1565c0" stroke="#1565c0" points="748.2,-267.4 743.12,-258.1 741.3,-268.54 748.2,-267.4"/>
<text xml:space="preserve" text-anchor="middle" x="778.39" y="-298.98" font-family="Helvetica,sans-Serif" font-size="9.00" fill="#1565c0">events (SSE)</text>
</g>
<!-- metering -->
<g id="node15" class="node">
<title>metering</title>
<path fill="#a5d6a7" stroke="#2e7d32" d="M771.62,-169.16C771.62,-169.16 684.38,-169.16 684.38,-169.16 678.38,-169.16 672.38,-163.16 672.38,-157.16 672.38,-157.16 672.38,-145.16 672.38,-145.16 672.38,-139.16 678.38,-133.16 684.38,-133.16 684.38,-133.16 771.62,-133.16 771.62,-133.16 777.62,-133.16 783.62,-139.16 783.62,-145.16 783.62,-145.16 783.62,-157.16 783.62,-157.16 783.62,-163.16 777.62,-169.16 771.62,-169.16"/>
<text xml:space="preserve" text-anchor="middle" x="728" y="-147.28" font-family="Helvetica,sans-Serif" font-size="10.00">Metering Sweep (60s)</text>
</g>
<!-- watcher&#45;&gt;metering -->
<!-- cost_db -->
<g id="node18" class="node">
<title>cost_db</title>
<path fill="#c8e6c9" stroke="#2e7d32" d="M838.12,-68.19C838.12,-71.07 813.87,-73.41 784,-73.41 754.13,-73.41 729.88,-71.07 729.88,-68.19 729.88,-68.19 729.88,-21.22 729.88,-21.22 729.88,-18.34 754.13,-16 784,-16 813.87,-16 838.12,-18.34 838.12,-21.22 838.12,-21.22 838.12,-68.19 838.12,-68.19"/>
<path fill="none" stroke="#2e7d32" d="M838.12,-68.19C838.12,-65.31 813.87,-62.97 784,-62.97 754.13,-62.97 729.88,-65.31 729.88,-68.19"/>
<text xml:space="preserve" text-anchor="middle" x="784" y="-52.08" font-family="Helvetica,sans-Serif" font-size="10.00">Cost PostgreSQL</text>
<text xml:space="preserve" text-anchor="middle" x="784" y="-40.83" font-family="Helvetica,sans-Serif" font-size="10.00">inventory · metering ·</text>
<text xml:space="preserve" text-anchor="middle" x="784" y="-29.58" font-family="Helvetica,sans-Serif" font-size="10.00">cost_entries · quotas</text>
</g>
<!-- watcher&#45;&gt;cost_db -->
<g id="edge29" class="edge">
<title>watcher&#45;&gt;cost_db</title>
<path fill="none" stroke="#555555" d="M761.9,-219.81C775.72,-207.39 792.37,-189.33 800,-169.16 810.27,-141.98 805.35,-109.31 798.35,-84.41"/>
<polygon fill="#555555" stroke="#555555" points="801.75,-83.55 795.48,-75 795.05,-85.59 801.75,-83.55"/>
<text xml:space="preserve" text-anchor="middle" x="838.5" y="-147.48" font-family="Helvetica,sans-Serif" font-size="9.00">upsert inventory</text>
</g>
<!-- rating -->
<g id="node16" class="node">
<title>rating</title>
<path fill="#a5d6a7" stroke="#2e7d32" d="M511.12,-169.16C511.12,-169.16 432.88,-169.16 432.88,-169.16 426.88,-169.16 420.88,-163.16 420.88,-157.16 420.88,-157.16 420.88,-145.16 420.88,-145.16 420.88,-139.16 426.88,-133.16 432.88,-133.16 432.88,-133.16 511.12,-133.16 511.12,-133.16 517.12,-133.16 523.12,-139.16 523.12,-145.16 523.12,-145.16 523.12,-157.16 523.12,-157.16 523.12,-163.16 517.12,-169.16 511.12,-169.16"/>
<text xml:space="preserve" text-anchor="middle" x="472" y="-147.28" font-family="Helvetica,sans-Serif" font-size="10.00">Rating Sweep (30s)</text>
</g>
<!-- ingest&#45;&gt;rating -->
<!-- ingest&#45;&gt;cost_db -->
<g id="edge30" class="edge">
<title>ingest&#45;&gt;cost_db</title>
<path fill="none" stroke="#555555" d="M559.82,-219.97C565.61,-197.47 578.59,-157.98 602.75,-133.16 634.6,-100.43 681.18,-78.32 719.14,-64.52"/>
<polygon fill="#555555" stroke="#555555" points="719.9,-67.97 728.17,-61.35 717.58,-61.36 719.9,-67.97"/>
<text xml:space="preserve" text-anchor="middle" x="629.38" y="-147.48" font-family="Helvetica,sans-Serif" font-size="9.00">store + meter</text>
</g>
<!-- metering&#45;&gt;cost_db -->
<!-- metering&#45;&gt;cost_db -->
<g id="edge31" class="edge">
<title>metering&#45;&gt;cost_db</title>
<path fill="none" stroke="#555555" d="M721.36,-133.12C718.35,-122.67 716.46,-109.25 721.5,-98.41 724.52,-91.9 728.79,-85.91 733.69,-80.49"/>
<polygon fill="#555555" stroke="#555555" points="736.1,-83.02 740.74,-73.5 731.17,-78.05 736.1,-83.02"/>
<text xml:space="preserve" text-anchor="middle" x="746.25" y="-99.61" font-family="Helvetica,sans-Serif" font-size="9.00">write meters</text>
</g>
<!-- rating&#45;&gt;cost_db -->
<!-- rating&#45;&gt;cost_db -->
<g id="edge32" class="edge">
<title>rating&#45;&gt;cost_db</title>
<path fill="none" stroke="#555555" d="M489.38,-132.73C501.78,-121.29 519.4,-106.92 537.5,-98.41 595.3,-71.22 667.32,-57.9 718.56,-51.48"/>
<polygon fill="#555555" stroke="#555555" points="718.8,-54.97 728.31,-50.31 717.97,-48.02 718.8,-54.97"/>
<text xml:space="preserve" text-anchor="middle" x="557.75" y="-99.61" font-family="Helvetica,sans-Serif" font-size="9.00">read/write</text>
</g>
<!-- quota -->
<g id="node17" class="node">
<title>quota</title>
<path fill="#a5d6a7" stroke="#2e7d32" d="M1027,-169.16C1027,-169.16 957,-169.16 957,-169.16 951,-169.16 945,-163.16 945,-157.16 945,-157.16 945,-145.16 945,-145.16 945,-139.16 951,-133.16 957,-133.16 957,-133.16 1027,-133.16 1027,-133.16 1033,-133.16 1039,-139.16 1039,-145.16 1039,-145.16 1039,-157.16 1039,-157.16 1039,-163.16 1033,-169.16 1027,-169.16"/>
<text xml:space="preserve" text-anchor="middle" x="992" y="-152.91" font-family="Helvetica,sans-Serif" font-size="10.00">Quota / Threshold</text>
<text xml:space="preserve" text-anchor="middle" x="992" y="-141.66" font-family="Helvetica,sans-Serif" font-size="10.00">Evaluation</text>
</g>
<!-- quota&#45;&gt;cost_db -->
<!-- quota&#45;&gt;cost_db -->
<g id="edge33" class="edge">
<title>quota&#45;&gt;cost_db</title>
<path fill="none" stroke="#555555" d="M964.33,-132.75C947.23,-122.28 924.67,-108.98 904,-98.41 886.39,-89.4 866.9,-80.43 848.84,-72.52"/>
<polygon fill="#555555" stroke="#555555" points="850.35,-69.36 839.78,-68.59 847.56,-75.78 850.35,-69.36"/>
<text xml:space="preserve" text-anchor="middle" x="930.62" y="-99.61" font-family="Helvetica,sans-Serif" font-size="9.00">read</text>
</g>
<!-- cost_db&#45;&gt;cost_api -->
<g id="edge34" class="edge">
<title>cost_db&#45;&gt;cost_api</title>
<path fill="none" stroke="#555555" d="M849.83,-44.7C872.53,-44.7 897.61,-44.7 918.96,-44.7"/>
<polygon fill="#555555" stroke="#555555" points="850.06,-41.2 840.06,-44.7 850.06,-48.2 850.06,-41.2"/>
<text xml:space="preserve" text-anchor="middle" x="878.69" y="-48.9" font-family="Helvetica,sans-Serif" font-size="9.00">query</text>
</g>
<!-- cost_api&#45;&gt;osac_api -->
<g id="edge35" class="edge">
<title>cost_api&#45;&gt;osac_api</title>
<path fill="none" stroke="#c62828" stroke-dasharray="5,2" d="M918.96,-59.77C898.86,-64.81 875.48,-70.07 854,-73.41 645.14,-105.81 455.46,-64.11 405,-133.16 316.8,-253.85 447.62,-356.71 584,-417.91 672.36,-457.56 705.48,-421.87 801,-437.88 812.84,-439.86 825.34,-442.48 837.37,-445.27"/>
<polygon fill="#c62828" stroke="#c62828" points="836.25,-448.6 846.79,-447.52 837.87,-441.79 836.25,-448.6"/>
<text xml:space="preserve" text-anchor="middle" x="431.83" y="-239.36" font-family="Helvetica,sans-Serif" font-size="9.00" fill="#c62828">quota alerts</text>
<text xml:space="preserve" text-anchor="middle" x="431.83" y="-229.61" font-family="Helvetica,sans-Serif" font-size="9.00" fill="#c62828">(transport TBD)</text>
</g>
<!-- leg_solid -->
<g id="node20" class="node">
<title>leg_solid</title>
<path fill="#a5d6a7" stroke="#2e7d32" d="M1197.62,-590.34C1197.62,-590.34 1152.38,-590.34 1152.38,-590.34 1146.38,-590.34 1140.38,-584.34 1140.38,-578.34 1140.38,-578.34 1140.38,-566.34 1140.38,-566.34 1140.38,-560.34 1146.38,-554.34 1152.38,-554.34 1152.38,-554.34 1197.62,-554.34 1197.62,-554.34 1203.62,-554.34 1209.62,-560.34 1209.62,-566.34 1209.62,-566.34 1209.62,-578.34 1209.62,-578.34 1209.62,-584.34 1203.62,-590.34 1197.62,-590.34"/>
<text xml:space="preserve" text-anchor="middle" x="1175" y="-568.67" font-family="Helvetica,sans-Serif" font-size="9.00">Implemented</text>
</g>
<!-- leg_dashed -->
<g id="node21" class="node">
<title>leg_dashed</title>
<path fill="#c8e6c9" stroke="#2e7d32" stroke-dasharray="5,2" d="M1200.62,-481.88C1200.62,-481.88 1149.38,-481.88 1149.38,-481.88 1143.38,-481.88 1137.38,-475.88 1137.38,-469.88 1137.38,-469.88 1137.38,-457.88 1137.38,-457.88 1137.38,-451.88 1143.38,-445.88 1149.38,-445.88 1149.38,-445.88 1200.62,-445.88 1200.62,-445.88 1206.62,-445.88 1212.62,-451.88 1212.62,-457.88 1212.62,-457.88 1212.62,-469.88 1212.62,-469.88 1212.62,-475.88 1206.62,-481.88 1200.62,-481.88"/>
<text xml:space="preserve" text-anchor="middle" x="1175" y="-460.2" font-family="Helvetica,sans-Serif" font-size="9.00">Planned / TBD</text>
</g>
<!-- leg_solid&#45;&gt;leg_dashed -->
</g>
</svg>
