<?xml version="1.0" encoding="UTF-8" standalone="no"?>
<!DOCTYPE svg PUBLIC "-//W3C//DTD SVG 1.1//EN"
 "http://www.w3.org/Graphics/SVG/1.1/DTD/svg11.dtd">
<!-- Generated by graphviz version 15.0.0 (20260523.1842)
 -->
<!-- Title: data_flow_processing Pages: 1 -->
<svg width="1133pt" height="1442pt"
 viewBox="0.00 0.00 1133.00 1442.00" xmlns="http://www.w3.org/2000/svg" xmlns:xlink="http://www.w3.org/1999/xlink">
<g id="graph0" class="graph" transform="scale(1 1) rotate(0) translate(36 1405.5)">
<title>data_flow_processing</title>
<polygon fill="white" stroke="none" points="-36,36 -36,-1405.5 1097,-1405.5 1097,36 -36,36"/>
<text xml:space="preserve" text-anchor="middle" x="530.5" y="-1352.2" font-family="Helvetica,sans-Serif" font-size="14.00">Processing Pipeline — Metering &amp; Rating Sweeps</text>
<g id="clust1" class="cluster">
<title>cluster_source</title>
<polygon fill="#e8f5e9" stroke="#2e7d32" points="8,-1182 8,-1338.5 1053,-1338.5 1053,-1182 8,-1182"/>
<text xml:space="preserve" text-anchor="middle" x="530.5" y="-1324.05" font-family="Helvetica,sans-Serif" font-size="11.00" fill="#2e7d32">Source Tables (read by sweeps)</text>
</g>
<g id="clust2" class="cluster">
<title>cluster_target</title>
<polygon fill="#ffebee" stroke="#c62828" points="615,-139.75 615,-296.25 801,-296.25 801,-139.75 615,-139.75"/>
<text xml:space="preserve" text-anchor="middle" x="708" y="-281.8" font-family="Helvetica,sans-Serif" font-size="11.00" fill="#c62828">Target Tables (written by sweeps)</text>
</g>
<g id="clust3" class="cluster">
<title>cluster_consumers</title>
<polygon fill="#fafafa" stroke="#bdbdbd" points="524,-8 524,-87.25 845,-87.25 845,-8 524,-8"/>
<text xml:space="preserve" text-anchor="middle" x="684.5" y="-72.8" font-family="Helvetica,sans-Serif" font-size="11.00" fill="#616161">Consumers</text>
</g>
<!-- inv_ci -->
<g id="node1" class="node">
<title>inv_ci</title>
<polygon fill="#a5d6a7" stroke="none" points="16,-1210 16,-1290.5 206,-1290.5 206,-1210 16,-1210"/>
<polygon fill="#2e7d32" stroke="none" points="17,-1270.25 17,-1289.5 205,-1289.5 205,-1270.25 17,-1270.25"/>
<text xml:space="preserve" text-anchor="start" x="44.25" y="-1277" font-family="Helvetica,sans-Serif" font-weight="bold" font-size="10.00" fill="white">inventory_compute_instance</text>
<text xml:space="preserve" text-anchor="start" x="21" y="-1258" font-family="Helvetica,sans-Serif" font-size="10.00">state = RUNNING</text>
<text xml:space="preserve" text-anchor="start" x="21" y="-1237.25" font-family="Helvetica,sans-Serif" font-size="10.00">last_metered_at → period_start</text>
<text xml:space="preserve" text-anchor="start" x="21" y="-1218" font-family="Helvetica,sans-Serif" font-size="10.00">cores, memory_gib (or via instance_type)</text>
<polygon fill="none" stroke="black" points="16,-1210 16,-1290.5 206,-1290.5 206,-1210 16,-1210"/>
</g>
<!-- metering -->
<g id="node6" class="node">
<title>metering</title>
<polygon fill="#ffcc80" stroke="none" points="433.62,-963 433.62,-1104.5 664.38,-1104.5 664.38,-963 433.62,-963"/>
<polygon fill="#e65100" stroke="none" points="434.62,-1080.25 434.62,-1103.5 663.38,-1103.5 663.38,-1080.25 434.62,-1080.25"/>
<text xml:space="preserve" text-anchor="start" x="499.88" y="-1089" font-family="Helvetica,sans-Serif" font-weight="bold" font-size="10.00" fill="white">metering sweep (60s)</text>
<text xml:space="preserve" text-anchor="start" x="440.62" y="-1066" font-family="Helvetica,sans-Serif" font-size="10.00">1. Query billable resources (state filter)</text>
<text xml:space="preserve" text-anchor="start" x="440.62" y="-1042.75" font-family="Helvetica,sans-Serif" font-size="10.00">2. Enrich cores/mem from instance_type catalog</text>
<text xml:space="preserve" text-anchor="start" x="440.62" y="-1019.5" font-family="Helvetica,sans-Serif" font-size="10.00">3. Calculate duration since last_metered_at</text>
<text xml:space="preserve" text-anchor="start" x="440.62" y="-996.25" font-family="Helvetica,sans-Serif" font-size="10.00">4. Emit meter entries (value = quantity × duration)</text>
<text xml:space="preserve" text-anchor="start" x="440.62" y="-973" font-family="Helvetica,sans-Serif" font-size="10.00">5. Update last_metered_at</text>
<polygon fill="none" stroke="black" points="433.62,-963 433.62,-1104.5 664.38,-1104.5 664.38,-963 433.62,-963"/>
</g>
<!-- inv_ci&#45;&gt;metering -->
<g id="edge1" class="edge">
<title>inv_ci&#45;&gt;metering</title>
<path fill="none" stroke="#e65100" d="M178.73,-1210.1C195.66,-1200.64 213.88,-1190.74 231,-1182 293.61,-1150.02 364.5,-1116.91 423.43,-1090.2"/>
<polygon fill="#e65100" stroke="#e65100" points="424.86,-1093.39 432.53,-1086.08 421.97,-1087.01 424.86,-1093.39"/>
<text xml:space="preserve" text-anchor="middle" x="342.46" y="-1143.58" font-family="Helvetica,sans-Serif" font-size="9.00" fill="#e65100">billable VMs</text>
</g>
<!-- inv_cl -->
<g id="node2" class="node">
<title>inv_cl</title>
<polygon fill="#a5d6a7" stroke="none" points="256.12,-1219.62 256.12,-1280.88 443.88,-1280.88 443.88,-1219.62 256.12,-1219.62"/>
<polygon fill="#2e7d32" stroke="none" points="257.12,-1260.62 257.12,-1279.88 442.88,-1279.88 442.88,-1260.62 257.12,-1260.62"/>
<text xml:space="preserve" text-anchor="start" x="309.88" y="-1267.38" font-family="Helvetica,sans-Serif" font-weight="bold" font-size="10.00" fill="white">inventory_cluster</text>
<text xml:space="preserve" text-anchor="start" x="261.12" y="-1248.38" font-family="Helvetica,sans-Serif" font-size="10.00">state = READY / PROGRESSING</text>
<text xml:space="preserve" text-anchor="start" x="261.12" y="-1227.62" font-family="Helvetica,sans-Serif" font-size="10.00">node_sets JSONB → worker node count</text>
<polygon fill="none" stroke="black" points="256.12,-1219.62 256.12,-1280.88 443.88,-1280.88 443.88,-1219.62 256.12,-1219.62"/>
</g>
<!-- inv_cl&#45;&gt;metering -->
<g id="edge2" class="edge">
<title>inv_cl&#45;&gt;metering</title>
<path fill="none" stroke="#e65100" d="M377.25,-1219.87C402.79,-1192.35 442.09,-1149.99 476.66,-1112.73"/>
<polygon fill="#e65100" stroke="#e65100" points="479.14,-1115.19 483.38,-1105.48 474.01,-1110.43 479.14,-1115.19"/>
<text xml:space="preserve" text-anchor="middle" x="481.38" y="-1143.58" font-family="Helvetica,sans-Serif" font-size="9.00" fill="#e65100">billable clusters</text>
</g>
<!-- inv_bm -->
<g id="node3" class="node">
<title>inv_bm</title>
<polygon fill="#a5d6a7" stroke="none" points="494.12,-1230 494.12,-1270.5 603.88,-1270.5 603.88,-1230 494.12,-1230"/>
<polygon fill="#2e7d32" stroke="none" points="495.12,-1250.25 495.12,-1269.5 602.88,-1269.5 602.88,-1250.25 495.12,-1250.25"/>
<text xml:space="preserve" text-anchor="start" x="499.12" y="-1257" font-family="Helvetica,sans-Serif" font-weight="bold" font-size="10.00" fill="white">inventory_bare_metal</text>
<text xml:space="preserve" text-anchor="start" x="499.12" y="-1238" font-family="Helvetica,sans-Serif" font-size="10.00">state = RUNNING</text>
<polygon fill="none" stroke="black" points="494.12,-1230 494.12,-1270.5 603.88,-1270.5 603.88,-1230 494.12,-1230"/>
</g>
<!-- inv_bm&#45;&gt;metering -->
<g id="edge3" class="edge">
<title>inv_bm&#45;&gt;metering</title>
<path fill="none" stroke="#e65100" d="M549,-1230.21C549,-1204.57 549,-1157.35 549,-1115.75"/>
<polygon fill="#e65100" stroke="#e65100" points="552.5,-1115.98 549,-1105.98 545.5,-1115.98 552.5,-1115.98"/>
<text xml:space="preserve" text-anchor="middle" x="571.88" y="-1143.58" font-family="Helvetica,sans-Serif" font-size="9.00" fill="#e65100">billable BM</text>
</g>
<!-- inv_it -->
<g id="node4" class="node">
<title>inv_it</title>
<polygon fill="#a5d6a7" stroke="none" points="653.88,-1230 653.88,-1270.5 804.12,-1270.5 804.12,-1230 653.88,-1230"/>
<polygon fill="#2e7d32" stroke="none" points="654.88,-1250.25 654.88,-1269.5 803.12,-1269.5 803.12,-1250.25 654.88,-1250.25"/>
<text xml:space="preserve" text-anchor="start" x="672.75" y="-1257" font-family="Helvetica,sans-Serif" font-weight="bold" font-size="10.00" fill="white">inventory_instance_type</text>
<text xml:space="preserve" text-anchor="start" x="658.88" y="-1238" font-family="Helvetica,sans-Serif" font-size="10.00">cores, memory_gib (enrichment)</text>
<polygon fill="none" stroke="black" points="653.88,-1230 653.88,-1270.5 804.12,-1270.5 804.12,-1230 653.88,-1230"/>
</g>
<!-- inv_it&#45;&gt;metering -->
<g id="edge4" class="edge">
<title>inv_it&#45;&gt;metering</title>
<path fill="none" stroke="#e65100" stroke-dasharray="5,2" d="M713.03,-1230.21C691.05,-1204.03 650.18,-1155.33 614.74,-1113.09"/>
<polygon fill="#e65100" stroke="#e65100" points="617.58,-1111.03 608.47,-1105.62 612.22,-1115.53 617.58,-1111.03"/>
<text xml:space="preserve" text-anchor="middle" x="672.65" y="-1148.45" font-family="Helvetica,sans-Serif" font-size="9.00" fill="#e65100">cores/mem</text>
<text xml:space="preserve" text-anchor="middle" x="672.65" y="-1138.7" font-family="Helvetica,sans-Serif" font-size="9.00" fill="#e65100">enrichment</text>
</g>
<!-- rates -->
<g id="node5" class="node">
<title>rates</title>
<polygon fill="#e1bee7" stroke="none" points="854.62,-1190 854.62,-1310.5 1045.38,-1310.5 1045.38,-1190 854.62,-1190"/>
<polygon fill="#7b1fa2" stroke="none" points="855.62,-1290.25 855.62,-1309.5 1044.38,-1309.5 1044.38,-1290.25 855.62,-1290.25"/>
<text xml:space="preserve" text-anchor="start" x="938.75" y="-1297" font-family="Helvetica,sans-Serif" font-weight="bold" font-size="10.00" fill="white">rates</text>
<text xml:space="preserve" text-anchor="start" x="859.62" y="-1276.5" font-family="Helvetica,sans-Serif" font-size="10.00">resource_type + meter_name → rate</text>
<text xml:space="preserve" text-anchor="start" x="859.62" y="-1255.75" font-family="Helvetica,sans-Serif" font-size="10.00">tenant override → global fallback</text>
<text xml:space="preserve" text-anchor="start" x="859.62" y="-1236.5" font-family="Helvetica,sans-Serif" font-size="10.00">flat price_per_unit or tiered (JSONB)</text>
<text xml:space="preserve" text-anchor="start" x="859.62" y="-1217.25" font-family="Helvetica,sans-Serif" font-size="10.00">cost_type: Infrastructure / Supplementary</text>
<text xml:space="preserve" text-anchor="start" x="859.62" y="-1198" font-family="Helvetica,sans-Serif" font-size="10.00">koku_metric: mapping for Koku sync</text>
<polygon fill="none" stroke="black" points="854.62,-1190 854.62,-1310.5 1045.38,-1310.5 1045.38,-1190 854.62,-1190"/>
</g>
<!-- rating -->
<g id="node8" class="node">
<title>rating</title>
<polygon fill="#ffcdd2" stroke="none" points="581.38,-356.75 581.38,-499.75 834.62,-499.75 834.62,-356.75 581.38,-356.75"/>
<polygon fill="#c62828" stroke="none" points="582.38,-475.5 582.38,-498.75 833.62,-498.75 833.62,-475.5 582.38,-475.5"/>
<text xml:space="preserve" text-anchor="start" x="666" y="-484.25" font-family="Helvetica,sans-Serif" font-weight="bold" font-size="10.00" fill="white">rating sweep (30s)</text>
<text xml:space="preserve" text-anchor="start" x="588.38" y="-461.25" font-family="Helvetica,sans-Serif" font-size="10.00">1. Query unrated entries (rated_at IS NULL, batch 500)</text>
<text xml:space="preserve" text-anchor="start" x="588.38" y="-436.5" font-family="Helvetica,sans-Serif" font-size="10.00">2. FindRate: tenant&#45;specific → global fallback</text>
<text xml:space="preserve" text-anchor="start" x="588.38" y="-413.25" font-family="Helvetica,sans-Serif" font-size="10.00">3. Apply rate: flat (value × price) or tiered</text>
<text xml:space="preserve" text-anchor="start" x="588.38" y="-390" font-family="Helvetica,sans-Serif" font-size="10.00">4. Write cost entry with cost_type from rate</text>
<text xml:space="preserve" text-anchor="start" x="588.38" y="-366.75" font-family="Helvetica,sans-Serif" font-size="10.00">5. Mark metering entry as rated (set rated_at)</text>
<polygon fill="none" stroke="black" points="581.38,-356.75 581.38,-499.75 834.62,-499.75 834.62,-356.75 581.38,-356.75"/>
</g>
<!-- rates&#45;&gt;rating -->
<g id="edge7" class="edge">
<title>rates&#45;&gt;rating</title>
<path fill="none" stroke="#7b1fa2" d="M938.7,-1190.39C913.94,-1066.31 849.88,-769.81 760,-532.75 757.16,-525.25 753.94,-517.58 750.53,-509.97"/>
<polygon fill="#7b1fa2" stroke="#7b1fa2" points="753.77,-508.64 746.41,-501.02 747.41,-511.57 753.77,-508.64"/>
<text xml:space="preserve" text-anchor="middle" x="911.36" y="-921.45" font-family="Helvetica,sans-Serif" font-size="9.00" fill="#7b1fa2">FindRate()</text>
<text xml:space="preserve" text-anchor="middle" x="911.36" y="-911.7" font-family="Helvetica,sans-Serif" font-size="9.00" fill="#7b1fa2">tenant → global</text>
</g>
<!-- metering_entries -->
<g id="node7" class="node">
<title>metering_entries</title>
<polygon fill="#fff9c4" stroke="none" points="487.12,-585.25 487.12,-876 718.88,-876 718.88,-585.25 487.12,-585.25"/>
<polygon fill="#f57f17" stroke="none" points="488.12,-855.75 488.12,-875 717.88,-875 717.88,-855.75 488.12,-855.75"/>
<text xml:space="preserve" text-anchor="start" x="564" y="-862.5" font-family="Helvetica,sans-Serif" font-weight="bold" font-size="10.00" fill="white">metering_entries</text>
<polygon fill="#fffde7" stroke="none" points="488.12,-836.5 488.12,-855.75 717.88,-855.75 717.88,-836.5 488.12,-836.5"/>
<text xml:space="preserve" text-anchor="start" x="537.38" y="-843.25" font-family="Helvetica,sans-Serif" font-style="italic" font-size="10.00">Capacity&#45;based (from sweep):</text>
<text xml:space="preserve" text-anchor="start" x="492.12" y="-824.25" font-family="Helvetica,sans-Serif" font-size="10.00">vm_uptime_seconds</text>
<text xml:space="preserve" text-anchor="start" x="655.75" y="-824.25" font-family="Helvetica,sans-Serif" font-size="10.00">duration</text>
<text xml:space="preserve" text-anchor="start" x="492.12" y="-805" font-family="Helvetica,sans-Serif" font-size="10.00">vm_cpu_core_seconds</text>
<text xml:space="preserve" text-anchor="start" x="637.75" y="-805" font-family="Helvetica,sans-Serif" font-size="10.00">cores × duration</text>
<text xml:space="preserve" text-anchor="start" x="492.12" y="-785.75" font-family="Helvetica,sans-Serif" font-size="10.00">vm_memory_gib_seconds</text>
<text xml:space="preserve" text-anchor="start" x="632.12" y="-785.75" font-family="Helvetica,sans-Serif" font-size="10.00">memory × duration</text>
<text xml:space="preserve" text-anchor="start" x="492.12" y="-766.5" font-family="Helvetica,sans-Serif" font-size="10.00">cluster_uptime_seconds</text>
<text xml:space="preserve" text-anchor="start" x="655.75" y="-766.5" font-family="Helvetica,sans-Serif" font-size="10.00">duration</text>
<text xml:space="preserve" text-anchor="start" x="492.12" y="-747.25" font-family="Helvetica,sans-Serif" font-size="10.00">cluster_worker_node_seconds</text>
<text xml:space="preserve" text-anchor="start" x="634.75" y="-747.25" font-family="Helvetica,sans-Serif" font-size="10.00">Σ(size × duration)</text>
<text xml:space="preserve" text-anchor="start" x="492.12" y="-728" font-family="Helvetica,sans-Serif" font-size="10.00">cluster_worker_node_count</text>
<text xml:space="preserve" text-anchor="start" x="636.62" y="-728" font-family="Helvetica,sans-Serif" font-size="10.00">Σ(size) snapshot</text>
<text xml:space="preserve" text-anchor="start" x="492.12" y="-708.75" font-family="Helvetica,sans-Serif" font-size="10.00">bm_uptime_seconds</text>
<text xml:space="preserve" text-anchor="start" x="655.75" y="-708.75" font-family="Helvetica,sans-Serif" font-size="10.00">duration</text>
<polygon fill="#fffde7" stroke="none" points="488.12,-682.5 488.12,-701.75 717.88,-701.75 717.88,-682.5 488.12,-682.5"/>
<text xml:space="preserve" text-anchor="start" x="514.5" y="-689.25" font-family="Helvetica,sans-Serif" font-style="italic" font-size="10.00">Consumption&#45;based (from HTTP ingest):</text>
<text xml:space="preserve" text-anchor="start" x="492.12" y="-670.25" font-family="Helvetica,sans-Serif" font-size="10.00">maas_tokens_in</text>
<text xml:space="preserve" text-anchor="start" x="641.88" y="-670.25" font-family="Helvetica,sans-Serif" font-size="10.00">prompt tokens</text>
<text xml:space="preserve" text-anchor="start" x="492.12" y="-651" font-family="Helvetica,sans-Serif" font-size="10.00">maas_tokens_out</text>
<text xml:space="preserve" text-anchor="start" x="633.25" y="-651" font-family="Helvetica,sans-Serif" font-size="10.00">completion tokens</text>
<text xml:space="preserve" text-anchor="start" x="492.12" y="-631.75" font-family="Helvetica,sans-Serif" font-size="10.00">maas_tokens_cached</text>
<text xml:space="preserve" text-anchor="start" x="641.12" y="-631.75" font-family="Helvetica,sans-Serif" font-size="10.00">cached tokens</text>
<text xml:space="preserve" text-anchor="start" x="492.12" y="-612.5" font-family="Helvetica,sans-Serif" font-size="10.00">maas_tokens_reasoning</text>
<text xml:space="preserve" text-anchor="start" x="635.88" y="-612.5" font-family="Helvetica,sans-Serif" font-size="10.00">reasoning tokens</text>
<text xml:space="preserve" text-anchor="start" x="492.12" y="-593.25" font-family="Helvetica,sans-Serif" font-size="10.00">maas_requests</text>
<text xml:space="preserve" text-anchor="start" x="643.38" y="-593.25" font-family="Helvetica,sans-Serif" font-size="10.00">request count</text>
<polygon fill="none" stroke="black" points="487.12,-585.25 487.12,-876 718.88,-876 718.88,-585.25 487.12,-585.25"/>
</g>
<!-- metering&#45;&gt;metering_entries -->
<g id="edge5" class="edge">
<title>metering&#45;&gt;metering_entries</title>
<path fill="none" stroke="#e65100" d="M561.46,-963.29C565.58,-940.31 570.34,-913.75 575.14,-886.98"/>
<polygon fill="#e65100" stroke="#e65100" points="578.54,-887.86 576.86,-877.4 571.65,-886.63 578.54,-887.86"/>
<text xml:space="preserve" text-anchor="middle" x="600.04" y="-915.83" font-family="Helvetica,sans-Serif" font-size="9.00" fill="#e65100">INSERT batch</text>
</g>
<!-- metering_entries&#45;&gt;rating -->
<g id="edge6" class="edge">
<title>metering_entries&#45;&gt;rating</title>
<path fill="none" stroke="#c62828" d="M653.35,-585.6C662.39,-559.73 671.52,-533.62 679.65,-510.34"/>
<polygon fill="#c62828" stroke="#c62828" points="682.95,-511.53 682.94,-500.94 676.34,-509.22 682.95,-511.53"/>
<text xml:space="preserve" text-anchor="middle" x="709.29" y="-543.7" font-family="Helvetica,sans-Serif" font-size="9.00" fill="#c62828">unrated entries</text>
<text xml:space="preserve" text-anchor="middle" x="709.29" y="-533.95" font-family="Helvetica,sans-Serif" font-size="9.00" fill="#c62828">(rated_at IS NULL)</text>
</g>
<!-- cost_entries -->
<g id="node9" class="node">
<title>cost_entries</title>
<polygon fill="#ffcdd2" stroke="none" points="622.75,-147.75 622.75,-268.25 793.25,-268.25 793.25,-147.75 622.75,-147.75"/>
<polygon fill="#c62828" stroke="none" points="623.75,-248 623.75,-267.25 792.25,-267.25 792.25,-248 623.75,-248"/>
<text xml:space="preserve" text-anchor="start" x="679.88" y="-254.75" font-family="Helvetica,sans-Serif" font-weight="bold" font-size="10.00" fill="white">cost_entries</text>
<text xml:space="preserve" text-anchor="start" x="627.75" y="-234.25" font-family="Helvetica,sans-Serif" font-size="10.00">metering_entry_id → source</text>
<text xml:space="preserve" text-anchor="start" x="627.75" y="-213.5" font-family="Helvetica,sans-Serif" font-size="10.00">rate_id → pricing rule applied</text>
<text xml:space="preserve" text-anchor="start" x="627.75" y="-194.25" font-family="Helvetica,sans-Serif" font-size="10.00">cost_amount = metered_value × rate</text>
<text xml:space="preserve" text-anchor="start" x="627.75" y="-175" font-family="Helvetica,sans-Serif" font-size="10.00">currency (USD)</text>
<text xml:space="preserve" text-anchor="start" x="627.75" y="-155.75" font-family="Helvetica,sans-Serif" font-size="10.00">period_start / period_end</text>
<polygon fill="none" stroke="black" points="622.75,-147.75 622.75,-268.25 793.25,-268.25 793.25,-147.75 622.75,-147.75"/>
</g>
<!-- rating&#45;&gt;cost_entries -->
<g id="edge8" class="edge">
<title>rating&#45;&gt;cost_entries</title>
<path fill="none" stroke="#c62828" d="M708,-356.99C708,-332.14 708,-304.19 708,-279.33"/>
<polygon fill="#c62828" stroke="#c62828" points="711.5,-279.66 708,-269.66 704.5,-279.66 711.5,-279.66"/>
<text xml:space="preserve" text-anchor="middle" x="745.12" y="-315.2" font-family="Helvetica,sans-Serif" font-size="9.00" fill="#c62828">INSERT</text>
<text xml:space="preserve" text-anchor="middle" x="745.12" y="-305.45" font-family="Helvetica,sans-Serif" font-size="9.00" fill="#c62828">cost = value × rate</text>
</g>
<!-- report_api -->
<g id="node10" class="node">
<title>report_api</title>
<path fill="#e3f2fd" stroke="#1565c0" d="M668.38,-58.5C668.38,-58.5 543.62,-58.5 543.62,-58.5 537.62,-58.5 531.62,-52.5 531.62,-46.5 531.62,-46.5 531.62,-28.75 531.62,-28.75 531.62,-22.75 537.62,-16.75 543.62,-16.75 543.62,-16.75 668.38,-16.75 668.38,-16.75 674.38,-16.75 680.38,-22.75 680.38,-28.75 680.38,-28.75 680.38,-46.5 680.38,-46.5 680.38,-52.5 674.38,-58.5 668.38,-58.5"/>
<text xml:space="preserve" text-anchor="middle" x="606" y="-45" font-family="Helvetica,sans-Serif" font-size="10.00">Report API</text>
<text xml:space="preserve" text-anchor="middle" x="606" y="-33.75" font-family="Helvetica,sans-Serif" font-size="10.00">GET /api/v1/reports/costs</text>
<text xml:space="preserve" text-anchor="middle" x="606" y="-22.5" font-family="Helvetica,sans-Serif" font-size="10.00">GROUP BY tenant/type/meter</text>
</g>
<!-- cost_entries&#45;&gt;report_api -->
<g id="edge9" class="edge">
<title>cost_entries&#45;&gt;report_api</title>
<path fill="none" stroke="#1565c0" d="M672.33,-148.11C656.06,-121.26 637.5,-90.62 624.16,-68.6"/>
<polygon fill="#1565c0" stroke="#1565c0" points="627.2,-66.86 619.02,-60.12 621.21,-70.49 627.2,-66.86"/>
<text xml:space="preserve" text-anchor="middle" x="662.52" y="-101.33" font-family="Helvetica,sans-Serif" font-size="9.00" fill="#1565c0">query</text>
</g>
<!-- kokusync -->
<g id="node11" class="node">
<title>kokusync</title>
<path fill="#f3e5f5" stroke="#7b1fa2" stroke-dasharray="5,2" d="M825.38,-59.25C825.38,-59.25 742.62,-59.25 742.62,-59.25 736.62,-59.25 730.62,-53.25 730.62,-47.25 730.62,-47.25 730.62,-28 730.62,-28 730.62,-22 736.62,-16 742.62,-16 742.62,-16 825.38,-16 825.38,-16 831.38,-16 837.38,-22 837.38,-28 837.38,-28 837.38,-47.25 837.38,-47.25 837.38,-53.25 831.38,-59.25 825.38,-59.25"/>
<text xml:space="preserve" text-anchor="middle" x="784" y="-45.75" font-family="Helvetica,sans-Serif" font-size="10.00">koku&#45;sync (2m)</text>
<text xml:space="preserve" text-anchor="middle" x="784" y="-34.5" font-family="Helvetica,sans-Serif" font-size="10.00">SELECT daily costs</text>
<text xml:space="preserve" text-anchor="middle" x="784" y="-23.25" font-family="Helvetica,sans-Serif" font-size="10.00">→ Koku OSAC table</text>
</g>
<!-- cost_entries&#45;&gt;kokusync -->
<g id="edge10" class="edge">
<title>cost_entries&#45;&gt;kokusync</title>
<path fill="none" stroke="#7b1fa2" d="M734.58,-148.11C746.45,-121.83 759.95,-91.91 769.84,-70"/>
<polygon fill="#7b1fa2" stroke="#7b1fa2" points="772.97,-71.58 773.89,-61.02 766.59,-68.7 772.97,-71.58"/>
<text xml:space="preserve" text-anchor="middle" x="789.12" y="-106.2" font-family="Helvetica,sans-Serif" font-size="9.00" fill="#7b1fa2">daily aggregate</text>
<text xml:space="preserve" text-anchor="middle" x="789.12" y="-96.45" font-family="Helvetica,sans-Serif" font-size="9.00" fill="#7b1fa2">(excl. MaaS)</text>
</g>
</g>
</svg>
