<?xml version="1.0" encoding="UTF-8" standalone="no"?>
<!DOCTYPE svg PUBLIC "-//W3C//DTD SVG 1.1//EN"
 "http://www.w3.org/Graphics/SVG/1.1/DTD/svg11.dtd">
<!-- Generated by graphviz version 15.0.0 (20260523.1842)
 -->
<!-- Title: data_flow_processing Pages: 1 -->
<svg width="1332pt" height="1442pt"
 viewBox="0.00 0.00 1332.00 1442.00" xmlns="http://www.w3.org/2000/svg" xmlns:xlink="http://www.w3.org/1999/xlink">
<g id="graph0" class="graph" transform="scale(1 1) rotate(0) translate(36 1405.5)">
<title>data_flow_processing</title>
<polygon fill="white" stroke="none" points="-36,36 -36,-1405.5 1296,-1405.5 1296,36 -36,36"/>
<text xml:space="preserve" text-anchor="middle" x="630" y="-1352.2" font-family="Helvetica,sans-Serif" font-size="14.00">Processing Pipeline — Metering &amp; Rating Sweeps</text>
<g id="clust1" class="cluster">
<title>cluster_source</title>
<polygon fill="#e8f5e9" stroke="#2e7d32" points="8,-1182 8,-1338.5 1252,-1338.5 1252,-1182 8,-1182"/>
<text xml:space="preserve" text-anchor="middle" x="630" y="-1324.05" font-family="Helvetica,sans-Serif" font-size="11.00" fill="#2e7d32">Source Tables (read by sweeps)</text>
</g>
<g id="clust2" class="cluster">
<title>cluster_target</title>
<polygon fill="#ffebee" stroke="#c62828" points="867,-139.75 867,-296.25 1053,-296.25 1053,-139.75 867,-139.75"/>
<text xml:space="preserve" text-anchor="middle" x="960" y="-281.8" font-family="Helvetica,sans-Serif" font-size="11.00" fill="#c62828">Target Tables (written by sweeps)</text>
</g>
<g id="clust3" class="cluster">
<title>cluster_consumers</title>
<polygon fill="#fafafa" stroke="#bdbdbd" points="628,-8 628,-87.25 1199,-87.25 1199,-8 628,-8"/>
<text xml:space="preserve" text-anchor="middle" x="913.5" y="-72.8" font-family="Helvetica,sans-Serif" font-size="11.00" fill="#616161">Consumers</text>
</g>
<!-- inv_ci -->
<g id="node1" class="node">
<title>inv_ci</title>
<polygon fill="#a5d6a7" stroke="none" points="376,-1210 376,-1290.5 566,-1290.5 566,-1210 376,-1210"/>
<polygon fill="#2e7d32" stroke="none" points="377,-1270.25 377,-1289.5 565,-1289.5 565,-1270.25 377,-1270.25"/>
<text xml:space="preserve" text-anchor="start" x="404.25" y="-1277" font-family="Helvetica,sans-Serif" font-weight="bold" font-size="10.00" fill="white">inventory_compute_instance</text>
<text xml:space="preserve" text-anchor="start" x="381" y="-1258" font-family="Helvetica,sans-Serif" font-size="10.00">state = RUNNING</text>
<text xml:space="preserve" text-anchor="start" x="381" y="-1237.25" font-family="Helvetica,sans-Serif" font-size="10.00">last_metered_at → period_start</text>
<text xml:space="preserve" text-anchor="start" x="381" y="-1218" font-family="Helvetica,sans-Serif" font-size="10.00">cores, memory_gib (or via instance_type)</text>
<polygon fill="none" stroke="black" points="376,-1210 376,-1290.5 566,-1290.5 566,-1210 376,-1210"/>
</g>
<!-- metering -->
<g id="node7" class="node">
<title>metering</title>
<polygon fill="#ffcc80" stroke="none" points="355.62,-963 355.62,-1104.5 586.38,-1104.5 586.38,-963 355.62,-963"/>
<polygon fill="#e65100" stroke="none" points="356.62,-1080.25 356.62,-1103.5 585.38,-1103.5 585.38,-1080.25 356.62,-1080.25"/>
<text xml:space="preserve" text-anchor="start" x="421.88" y="-1089" font-family="Helvetica,sans-Serif" font-weight="bold" font-size="10.00" fill="white">metering sweep (60s)</text>
<text xml:space="preserve" text-anchor="start" x="362.62" y="-1066" font-family="Helvetica,sans-Serif" font-size="10.00">1. Query billable resources (state filter)</text>
<text xml:space="preserve" text-anchor="start" x="362.62" y="-1042.75" font-family="Helvetica,sans-Serif" font-size="10.00">2. Enrich cores/mem from instance_type catalog</text>
<text xml:space="preserve" text-anchor="start" x="362.62" y="-1019.5" font-family="Helvetica,sans-Serif" font-size="10.00">3. Calculate duration since last_metered_at</text>
<text xml:space="preserve" text-anchor="start" x="362.62" y="-996.25" font-family="Helvetica,sans-Serif" font-size="10.00">4. Emit meter entries (value = quantity × duration)</text>
<text xml:space="preserve" text-anchor="start" x="362.62" y="-973" font-family="Helvetica,sans-Serif" font-size="10.00">5. Update last_metered_at</text>
<polygon fill="none" stroke="black" points="355.62,-963 355.62,-1104.5 586.38,-1104.5 586.38,-963 355.62,-963"/>
</g>
<!-- inv_ci&#45;&gt;metering -->
<g id="edge1" class="edge">
<title>inv_ci&#45;&gt;metering</title>
<path fill="none" stroke="#e65100" d="M471,-1210.41C471,-1183.95 471,-1147.95 471,-1115.44"/>
<polygon fill="#e65100" stroke="#e65100" points="474.5,-1115.62 471,-1105.62 467.5,-1115.62 474.5,-1115.62"/>
<text xml:space="preserve" text-anchor="middle" x="496.12" y="-1143.58" font-family="Helvetica,sans-Serif" font-size="9.00" fill="#e65100">billable VMs</text>
</g>
<!-- inv_cl -->
<g id="node2" class="node">
<title>inv_cl</title>
<polygon fill="#a5d6a7" stroke="none" points="616.12,-1219.62 616.12,-1280.88 803.88,-1280.88 803.88,-1219.62 616.12,-1219.62"/>
<polygon fill="#2e7d32" stroke="none" points="617.12,-1260.62 617.12,-1279.88 802.88,-1279.88 802.88,-1260.62 617.12,-1260.62"/>
<text xml:space="preserve" text-anchor="start" x="669.88" y="-1267.38" font-family="Helvetica,sans-Serif" font-weight="bold" font-size="10.00" fill="white">inventory_cluster</text>
<text xml:space="preserve" text-anchor="start" x="621.12" y="-1248.38" font-family="Helvetica,sans-Serif" font-size="10.00">state = READY / PROGRESSING</text>
<text xml:space="preserve" text-anchor="start" x="621.12" y="-1227.62" font-family="Helvetica,sans-Serif" font-size="10.00">node_sets JSONB → worker node count</text>
<polygon fill="none" stroke="black" points="616.12,-1219.62 616.12,-1280.88 803.88,-1280.88 803.88,-1219.62 616.12,-1219.62"/>
</g>
<!-- inv_cl&#45;&gt;metering -->
<g id="edge2" class="edge">
<title>inv_cl&#45;&gt;metering</title>
<path fill="none" stroke="#e65100" d="M677.27,-1219.87C646.41,-1192.18 598.81,-1149.45 557.1,-1112.03"/>
<polygon fill="#e65100" stroke="#e65100" points="559.48,-1109.46 549.7,-1105.38 554.8,-1114.67 559.48,-1109.46"/>
<text xml:space="preserve" text-anchor="middle" x="636.68" y="-1143.58" font-family="Helvetica,sans-Serif" font-size="9.00" fill="#e65100">billable clusters</text>
</g>
<!-- inv_bm -->
<g id="node3" class="node">
<title>inv_bm</title>
<polygon fill="#a5d6a7" stroke="none" points="16.12,-1230 16.12,-1270.5 125.88,-1270.5 125.88,-1230 16.12,-1230"/>
<polygon fill="#2e7d32" stroke="none" points="17.12,-1250.25 17.12,-1269.5 124.88,-1269.5 124.88,-1250.25 17.12,-1250.25"/>
<text xml:space="preserve" text-anchor="start" x="21.12" y="-1257" font-family="Helvetica,sans-Serif" font-weight="bold" font-size="10.00" fill="white">inventory_bare_metal</text>
<text xml:space="preserve" text-anchor="start" x="21.12" y="-1238" font-family="Helvetica,sans-Serif" font-size="10.00">state = RUNNING</text>
<polygon fill="none" stroke="black" points="16.12,-1230 16.12,-1270.5 125.88,-1270.5 125.88,-1230 16.12,-1230"/>
</g>
<!-- inv_bm&#45;&gt;metering -->
<g id="edge3" class="edge">
<title>inv_bm&#45;&gt;metering</title>
<path fill="none" stroke="#e65100" d="M90.55,-1230.23C106.07,-1215.79 128.78,-1196.09 151,-1182 211.91,-1143.38 284.6,-1109.09 345.3,-1083.34"/>
<polygon fill="#e65100" stroke="#e65100" points="346.46,-1086.65 354.32,-1079.55 343.74,-1080.2 346.46,-1086.65"/>
<text xml:space="preserve" text-anchor="middle" x="249.25" y="-1143.58" font-family="Helvetica,sans-Serif" font-size="9.00" fill="#e65100">billable BM</text>
</g>
<!-- inv_it -->
<g id="node4" class="node">
<title>inv_it</title>
<polygon fill="#a5d6a7" stroke="none" points="175.88,-1230 175.88,-1270.5 326.12,-1270.5 326.12,-1230 175.88,-1230"/>
<polygon fill="#2e7d32" stroke="none" points="176.88,-1250.25 176.88,-1269.5 325.12,-1269.5 325.12,-1250.25 176.88,-1250.25"/>
<text xml:space="preserve" text-anchor="start" x="194.75" y="-1257" font-family="Helvetica,sans-Serif" font-weight="bold" font-size="10.00" fill="white">inventory_instance_type</text>
<text xml:space="preserve" text-anchor="start" x="180.88" y="-1238" font-family="Helvetica,sans-Serif" font-size="10.00">cores, memory_gib (enrichment)</text>
<polygon fill="none" stroke="black" points="175.88,-1230 175.88,-1270.5 326.12,-1270.5 326.12,-1230 175.88,-1230"/>
</g>
<!-- inv_it&#45;&gt;metering -->
<g id="edge4" class="edge">
<title>inv_it&#45;&gt;metering</title>
<path fill="none" stroke="#e65100" stroke-dasharray="5,2" d="M270.52,-1230.21C297.55,-1203.86 347.96,-1154.72 391.46,-1112.3"/>
<polygon fill="#e65100" stroke="#e65100" points="393.7,-1115.01 398.41,-1105.52 388.81,-1110 393.7,-1115.01"/>
<text xml:space="preserve" text-anchor="middle" x="383.88" y="-1148.45" font-family="Helvetica,sans-Serif" font-size="9.00" fill="#e65100">cores/mem</text>
<text xml:space="preserve" text-anchor="middle" x="383.88" y="-1138.7" font-family="Helvetica,sans-Serif" font-size="9.00" fill="#e65100">enrichment</text>
</g>
<!-- quotas -->
<g id="node5" class="node">
<title>quotas</title>
<polygon fill="#b2ebf2" stroke="none" points="1094.25,-1219.62 1094.25,-1280.88 1243.75,-1280.88 1243.75,-1219.62 1094.25,-1219.62"/>
<polygon fill="#00838f" stroke="none" points="1095.25,-1260.62 1095.25,-1279.88 1242.75,-1279.88 1242.75,-1260.62 1095.25,-1260.62"/>
<text xml:space="preserve" text-anchor="start" x="1153.25" y="-1267.38" font-family="Helvetica,sans-Serif" font-weight="bold" font-size="10.00" fill="white">quotas</text>
<text xml:space="preserve" text-anchor="start" x="1099.25" y="-1246.88" font-family="Helvetica,sans-Serif" font-size="10.00">tenant_id + meter_name → limit</text>
<text xml:space="preserve" text-anchor="start" x="1099.25" y="-1227.62" font-family="Helvetica,sans-Serif" font-size="10.00">period: monthly / daily</text>
<polygon fill="none" stroke="black" points="1094.25,-1219.62 1094.25,-1280.88 1243.75,-1280.88 1243.75,-1219.62 1094.25,-1219.62"/>
</g>
<!-- balance_api -->
<g id="node12" class="node">
<title>balance_api</title>
<path fill="#b2ebf2" stroke="#00838f" d="M823.5,-59.25C823.5,-59.25 648.5,-59.25 648.5,-59.25 642.5,-59.25 636.5,-53.25 636.5,-47.25 636.5,-47.25 636.5,-28 636.5,-28 636.5,-22 642.5,-16 648.5,-16 648.5,-16 823.5,-16 823.5,-16 829.5,-16 835.5,-22 835.5,-28 835.5,-28 835.5,-47.25 835.5,-47.25 835.5,-53.25 829.5,-59.25 823.5,-59.25"/>
<text xml:space="preserve" text-anchor="middle" x="736" y="-45.75" font-family="Helvetica,sans-Serif" font-size="10.00">Balance Check API</text>
<text xml:space="preserve" text-anchor="middle" x="736" y="-34.5" font-family="Helvetica,sans-Serif" font-size="10.00">GET /customers/{id}/entitlements/.../value</text>
<text xml:space="preserve" text-anchor="middle" x="736" y="-23.25" font-family="Helvetica,sans-Serif" font-size="10.00">SUM(usage) vs quota limit → hasAccess</text>
</g>
<!-- quotas&#45;&gt;balance_api -->
<g id="edge12" class="edge">
<title>quotas&#45;&gt;balance_api</title>
<path fill="none" stroke="#00838f" d="M1166.98,-1219.77C1164.33,-1178.44 1160,-1100.91 1160,-1034.75 1160,-1034.75 1160,-1034.75 1160,-207 1160,-155.57 1170.34,-127.15 1130,-95.25 1118.27,-85.98 875.65,-90.23 861,-87.25 836.88,-82.35 811.37,-73.21 789.72,-64.16"/>
<polygon fill="#00838f" stroke="#00838f" points="791.39,-61.07 780.82,-60.34 788.63,-67.5 791.39,-61.07"/>
<text xml:space="preserve" text-anchor="middle" x="1182.12" y="-538.83" font-family="Helvetica,sans-Serif" font-size="9.00" fill="#00838f">limit_value</text>
</g>
<!-- rates -->
<g id="node6" class="node">
<title>rates</title>
<polygon fill="#e1bee7" stroke="none" points="853.62,-1190 853.62,-1310.5 1044.38,-1310.5 1044.38,-1190 853.62,-1190"/>
<polygon fill="#7b1fa2" stroke="none" points="854.62,-1290.25 854.62,-1309.5 1043.38,-1309.5 1043.38,-1290.25 854.62,-1290.25"/>
<text xml:space="preserve" text-anchor="start" x="937.75" y="-1297" font-family="Helvetica,sans-Serif" font-weight="bold" font-size="10.00" fill="white">rates</text>
<text xml:space="preserve" text-anchor="start" x="858.62" y="-1276.5" font-family="Helvetica,sans-Serif" font-size="10.00">resource_type + meter_name → rate</text>
<text xml:space="preserve" text-anchor="start" x="858.62" y="-1255.75" font-family="Helvetica,sans-Serif" font-size="10.00">tenant override → global fallback</text>
<text xml:space="preserve" text-anchor="start" x="858.62" y="-1236.5" font-family="Helvetica,sans-Serif" font-size="10.00">flat price_per_unit or tiered (JSONB)</text>
<text xml:space="preserve" text-anchor="start" x="858.62" y="-1217.25" font-family="Helvetica,sans-Serif" font-size="10.00">cost_type: Infrastructure / Supplementary</text>
<text xml:space="preserve" text-anchor="start" x="858.62" y="-1198" font-family="Helvetica,sans-Serif" font-size="10.00">koku_metric: mapping for Koku sync</text>
<polygon fill="none" stroke="black" points="853.62,-1190 853.62,-1310.5 1044.38,-1310.5 1044.38,-1190 853.62,-1190"/>
</g>
<!-- rating -->
<g id="node9" class="node">
<title>rating</title>
<polygon fill="#ffcdd2" stroke="none" points="822.38,-356.75 822.38,-499.75 1075.62,-499.75 1075.62,-356.75 822.38,-356.75"/>
<polygon fill="#c62828" stroke="none" points="823.38,-475.5 823.38,-498.75 1074.62,-498.75 1074.62,-475.5 823.38,-475.5"/>
<text xml:space="preserve" text-anchor="start" x="907" y="-484.25" font-family="Helvetica,sans-Serif" font-weight="bold" font-size="10.00" fill="white">rating sweep (30s)</text>
<text xml:space="preserve" text-anchor="start" x="829.38" y="-461.25" font-family="Helvetica,sans-Serif" font-size="10.00">1. Query unrated entries (rated_at IS NULL, batch 500)</text>
<text xml:space="preserve" text-anchor="start" x="829.38" y="-436.5" font-family="Helvetica,sans-Serif" font-size="10.00">2. FindRate: tenant&#45;specific → global fallback</text>
<text xml:space="preserve" text-anchor="start" x="829.38" y="-413.25" font-family="Helvetica,sans-Serif" font-size="10.00">3. Apply rate: flat (value × price) or tiered</text>
<text xml:space="preserve" text-anchor="start" x="829.38" y="-390" font-family="Helvetica,sans-Serif" font-size="10.00">4. Write cost entry with cost_type from rate</text>
<text xml:space="preserve" text-anchor="start" x="829.38" y="-366.75" font-family="Helvetica,sans-Serif" font-size="10.00">5. Mark metering entry as rated (set rated_at)</text>
<polygon fill="none" stroke="black" points="822.38,-356.75 822.38,-499.75 1075.62,-499.75 1075.62,-356.75 822.38,-356.75"/>
</g>
<!-- rates&#45;&gt;rating -->
<g id="edge7" class="edge">
<title>rates&#45;&gt;rating</title>
<path fill="none" stroke="#7b1fa2" d="M949,-1190.28C949,-1046.15 949,-675.79 949,-510.74"/>
<polygon fill="#7b1fa2" stroke="#7b1fa2" points="952.5,-511.2 949,-501.2 945.5,-511.2 952.5,-511.2"/>
<text xml:space="preserve" text-anchor="middle" x="981.25" y="-921.45" font-family="Helvetica,sans-Serif" font-size="9.00" fill="#7b1fa2">FindRate()</text>
<text xml:space="preserve" text-anchor="middle" x="981.25" y="-911.7" font-family="Helvetica,sans-Serif" font-size="9.00" fill="#7b1fa2">tenant → global</text>
</g>
<!-- metering_entries -->
<g id="node8" class="node">
<title>metering_entries</title>
<polygon fill="#fff9c4" stroke="none" points="620.12,-585.25 620.12,-876 851.88,-876 851.88,-585.25 620.12,-585.25"/>
<polygon fill="#f57f17" stroke="none" points="621.12,-855.75 621.12,-875 850.88,-875 850.88,-855.75 621.12,-855.75"/>
<text xml:space="preserve" text-anchor="start" x="697" y="-862.5" font-family="Helvetica,sans-Serif" font-weight="bold" font-size="10.00" fill="white">metering_entries</text>
<polygon fill="#fffde7" stroke="none" points="621.12,-836.5 621.12,-855.75 850.88,-855.75 850.88,-836.5 621.12,-836.5"/>
<text xml:space="preserve" text-anchor="start" x="670.38" y="-843.25" font-family="Helvetica,sans-Serif" font-style="italic" font-size="10.00">Capacity&#45;based (from sweep):</text>
<text xml:space="preserve" text-anchor="start" x="625.12" y="-824.25" font-family="Helvetica,sans-Serif" font-size="10.00">vm_uptime_seconds</text>
<text xml:space="preserve" text-anchor="start" x="788.75" y="-824.25" font-family="Helvetica,sans-Serif" font-size="10.00">duration</text>
<text xml:space="preserve" text-anchor="start" x="625.12" y="-805" font-family="Helvetica,sans-Serif" font-size="10.00">vm_cpu_core_seconds</text>
<text xml:space="preserve" text-anchor="start" x="770.75" y="-805" font-family="Helvetica,sans-Serif" font-size="10.00">cores × duration</text>
<text xml:space="preserve" text-anchor="start" x="625.12" y="-785.75" font-family="Helvetica,sans-Serif" font-size="10.00">vm_memory_gib_seconds</text>
<text xml:space="preserve" text-anchor="start" x="765.12" y="-785.75" font-family="Helvetica,sans-Serif" font-size="10.00">memory × duration</text>
<text xml:space="preserve" text-anchor="start" x="625.12" y="-766.5" font-family="Helvetica,sans-Serif" font-size="10.00">cluster_uptime_seconds</text>
<text xml:space="preserve" text-anchor="start" x="788.75" y="-766.5" font-family="Helvetica,sans-Serif" font-size="10.00">duration</text>
<text xml:space="preserve" text-anchor="start" x="625.12" y="-747.25" font-family="Helvetica,sans-Serif" font-size="10.00">cluster_worker_node_seconds</text>
<text xml:space="preserve" text-anchor="start" x="767.75" y="-747.25" font-family="Helvetica,sans-Serif" font-size="10.00">Σ(size × duration)</text>
<text xml:space="preserve" text-anchor="start" x="625.12" y="-728" font-family="Helvetica,sans-Serif" font-size="10.00">cluster_worker_node_count</text>
<text xml:space="preserve" text-anchor="start" x="769.62" y="-728" font-family="Helvetica,sans-Serif" font-size="10.00">Σ(size) snapshot</text>
<text xml:space="preserve" text-anchor="start" x="625.12" y="-708.75" font-family="Helvetica,sans-Serif" font-size="10.00">bm_uptime_seconds</text>
<text xml:space="preserve" text-anchor="start" x="788.75" y="-708.75" font-family="Helvetica,sans-Serif" font-size="10.00">duration</text>
<polygon fill="#fffde7" stroke="none" points="621.12,-682.5 621.12,-701.75 850.88,-701.75 850.88,-682.5 621.12,-682.5"/>
<text xml:space="preserve" text-anchor="start" x="647.5" y="-689.25" font-family="Helvetica,sans-Serif" font-style="italic" font-size="10.00">Consumption&#45;based (from HTTP ingest):</text>
<text xml:space="preserve" text-anchor="start" x="625.12" y="-670.25" font-family="Helvetica,sans-Serif" font-size="10.00">maas_tokens_in</text>
<text xml:space="preserve" text-anchor="start" x="774.88" y="-670.25" font-family="Helvetica,sans-Serif" font-size="10.00">prompt tokens</text>
<text xml:space="preserve" text-anchor="start" x="625.12" y="-651" font-family="Helvetica,sans-Serif" font-size="10.00">maas_tokens_out</text>
<text xml:space="preserve" text-anchor="start" x="766.25" y="-651" font-family="Helvetica,sans-Serif" font-size="10.00">completion tokens</text>
<text xml:space="preserve" text-anchor="start" x="625.12" y="-631.75" font-family="Helvetica,sans-Serif" font-size="10.00">maas_tokens_cached</text>
<text xml:space="preserve" text-anchor="start" x="774.12" y="-631.75" font-family="Helvetica,sans-Serif" font-size="10.00">cached tokens</text>
<text xml:space="preserve" text-anchor="start" x="625.12" y="-612.5" font-family="Helvetica,sans-Serif" font-size="10.00">maas_tokens_reasoning</text>
<text xml:space="preserve" text-anchor="start" x="768.88" y="-612.5" font-family="Helvetica,sans-Serif" font-size="10.00">reasoning tokens</text>
<text xml:space="preserve" text-anchor="start" x="625.12" y="-593.25" font-family="Helvetica,sans-Serif" font-size="10.00">maas_requests</text>
<text xml:space="preserve" text-anchor="start" x="776.38" y="-593.25" font-family="Helvetica,sans-Serif" font-size="10.00">request count</text>
<polygon fill="none" stroke="black" points="620.12,-585.25 620.12,-876 851.88,-876 851.88,-585.25 620.12,-585.25"/>
</g>
<!-- metering&#45;&gt;metering_entries -->
<g id="edge5" class="edge">
<title>metering&#45;&gt;metering_entries</title>
<path fill="none" stroke="#e65100" d="M532.13,-963.29C556.19,-935.94 584.73,-903.51 612.72,-871.71"/>
<polygon fill="#e65100" stroke="#e65100" points="615.23,-874.16 619.21,-864.34 609.98,-869.53 615.23,-874.16"/>
<text xml:space="preserve" text-anchor="middle" x="608.64" y="-915.83" font-family="Helvetica,sans-Serif" font-size="9.00" fill="#e65100">INSERT batch</text>
</g>
<!-- metering_entries&#45;&gt;rating -->
<g id="edge6" class="edge">
<title>metering_entries&#45;&gt;rating</title>
<path fill="none" stroke="#c62828" d="M800.32,-585.25C810.73,-566.93 822.19,-548.95 834.5,-532.75 840.94,-524.28 848.13,-515.95 855.7,-507.91"/>
<polygon fill="#c62828" stroke="#c62828" points="858.2,-510.36 862.64,-500.74 853.17,-505.49 858.2,-510.36"/>
<text xml:space="preserve" text-anchor="middle" x="872.75" y="-543.7" font-family="Helvetica,sans-Serif" font-size="9.00" fill="#c62828">unrated entries</text>
<text xml:space="preserve" text-anchor="middle" x="872.75" y="-533.95" font-family="Helvetica,sans-Serif" font-size="9.00" fill="#c62828">(rated_at IS NULL)</text>
</g>
<!-- metering_entries&#45;&gt;balance_api -->
<g id="edge11" class="edge">
<title>metering_entries&#45;&gt;balance_api</title>
<path fill="none" stroke="#00838f" d="M736,-585.61C736,-420.55 736,-161.17 736,-70.89"/>
<polygon fill="#00838f" stroke="#00838f" points="739.5,-71.05 736,-61.05 732.5,-71.05 739.5,-71.05"/>
<text xml:space="preserve" text-anchor="middle" x="769.38" y="-315.2" font-family="Helvetica,sans-Serif" font-size="9.00" fill="#00838f">SUM(value)</text>
<text xml:space="preserve" text-anchor="middle" x="769.38" y="-305.45" font-family="Helvetica,sans-Serif" font-size="9.00" fill="#00838f">for tenant+meter</text>
</g>
<!-- cost_entries -->
<g id="node10" class="node">
<title>cost_entries</title>
<polygon fill="#ffcdd2" stroke="none" points="874.75,-147.75 874.75,-268.25 1045.25,-268.25 1045.25,-147.75 874.75,-147.75"/>
<polygon fill="#c62828" stroke="none" points="875.75,-248 875.75,-267.25 1044.25,-267.25 1044.25,-248 875.75,-248"/>
<text xml:space="preserve" text-anchor="start" x="931.88" y="-254.75" font-family="Helvetica,sans-Serif" font-weight="bold" font-size="10.00" fill="white">cost_entries</text>
<text xml:space="preserve" text-anchor="start" x="879.75" y="-234.25" font-family="Helvetica,sans-Serif" font-size="10.00">metering_entry_id → source</text>
<text xml:space="preserve" text-anchor="start" x="879.75" y="-213.5" font-family="Helvetica,sans-Serif" font-size="10.00">rate_id → pricing rule applied</text>
<text xml:space="preserve" text-anchor="start" x="879.75" y="-194.25" font-family="Helvetica,sans-Serif" font-size="10.00">cost_amount = metered_value × rate</text>
<text xml:space="preserve" text-anchor="start" x="879.75" y="-175" font-family="Helvetica,sans-Serif" font-size="10.00">currency (USD)</text>
<text xml:space="preserve" text-anchor="start" x="879.75" y="-155.75" font-family="Helvetica,sans-Serif" font-size="10.00">period_start / period_end</text>
<polygon fill="none" stroke="black" points="874.75,-147.75 874.75,-268.25 1045.25,-268.25 1045.25,-147.75 874.75,-147.75"/>
</g>
<!-- rating&#45;&gt;cost_entries -->
<g id="edge8" class="edge">
<title>rating&#45;&gt;cost_entries</title>
<path fill="none" stroke="#c62828" d="M952.54,-356.99C953.79,-332.14 955.2,-304.19 956.46,-279.33"/>
<polygon fill="#c62828" stroke="#c62828" points="959.93,-279.82 956.94,-269.66 952.94,-279.47 959.93,-279.82"/>
<text xml:space="preserve" text-anchor="middle" x="992.28" y="-315.2" font-family="Helvetica,sans-Serif" font-size="9.00" fill="#c62828">INSERT</text>
<text xml:space="preserve" text-anchor="middle" x="992.28" y="-305.45" font-family="Helvetica,sans-Serif" font-size="9.00" fill="#c62828">cost = value × rate</text>
</g>
<!-- report_api -->
<g id="node11" class="node">
<title>report_api</title>
<path fill="#e3f2fd" stroke="#1565c0" d="M1022.38,-58.5C1022.38,-58.5 897.62,-58.5 897.62,-58.5 891.62,-58.5 885.62,-52.5 885.62,-46.5 885.62,-46.5 885.62,-28.75 885.62,-28.75 885.62,-22.75 891.62,-16.75 897.62,-16.75 897.62,-16.75 1022.38,-16.75 1022.38,-16.75 1028.38,-16.75 1034.38,-22.75 1034.38,-28.75 1034.38,-28.75 1034.38,-46.5 1034.38,-46.5 1034.38,-52.5 1028.38,-58.5 1022.38,-58.5"/>
<text xml:space="preserve" text-anchor="middle" x="960" y="-45" font-family="Helvetica,sans-Serif" font-size="10.00">Report API</text>
<text xml:space="preserve" text-anchor="middle" x="960" y="-33.75" font-family="Helvetica,sans-Serif" font-size="10.00">GET /api/v1/reports/costs</text>
<text xml:space="preserve" text-anchor="middle" x="960" y="-22.5" font-family="Helvetica,sans-Serif" font-size="10.00">GROUP BY tenant/type/meter</text>
</g>
<!-- cost_entries&#45;&gt;report_api -->
<g id="edge9" class="edge">
<title>cost_entries&#45;&gt;report_api</title>
<path fill="none" stroke="#1565c0" d="M960,-148.11C960,-121.87 960,-92 960,-70.1"/>
<polygon fill="#1565c0" stroke="#1565c0" points="963.5,-70.34 960,-60.34 956.5,-70.34 963.5,-70.34"/>
<text xml:space="preserve" text-anchor="middle" x="971.62" y="-101.33" font-family="Helvetica,sans-Serif" font-size="9.00" fill="#1565c0">query</text>
</g>
<!-- kokusync -->
<g id="node13" class="node">
<title>kokusync</title>
<path fill="#f3e5f5" stroke="#7b1fa2" stroke-dasharray="5,2" d="M1179.38,-59.25C1179.38,-59.25 1096.62,-59.25 1096.62,-59.25 1090.62,-59.25 1084.62,-53.25 1084.62,-47.25 1084.62,-47.25 1084.62,-28 1084.62,-28 1084.62,-22 1090.62,-16 1096.62,-16 1096.62,-16 1179.38,-16 1179.38,-16 1185.38,-16 1191.38,-22 1191.38,-28 1191.38,-28 1191.38,-47.25 1191.38,-47.25 1191.38,-53.25 1185.38,-59.25 1179.38,-59.25"/>
<text xml:space="preserve" text-anchor="middle" x="1138" y="-45.75" font-family="Helvetica,sans-Serif" font-size="10.00">koku&#45;sync (2m)</text>
<text xml:space="preserve" text-anchor="middle" x="1138" y="-34.5" font-family="Helvetica,sans-Serif" font-size="10.00">SELECT daily costs</text>
<text xml:space="preserve" text-anchor="middle" x="1138" y="-23.25" font-family="Helvetica,sans-Serif" font-size="10.00">→ Koku OSAC table</text>
</g>
<!-- cost_entries&#45;&gt;kokusync -->
<g id="edge10" class="edge">
<title>cost_entries&#45;&gt;kokusync</title>
<path fill="none" stroke="#7b1fa2" d="M1022.51,-147.87C1051.41,-120.53 1084.42,-89.31 1107.73,-67.26"/>
<polygon fill="#7b1fa2" stroke="#7b1fa2" points="1109.89,-70.03 1114.75,-60.62 1105.08,-64.95 1109.89,-70.03"/>
<text xml:space="preserve" text-anchor="middle" x="1107.22" y="-106.2" font-family="Helvetica,sans-Serif" font-size="9.00" fill="#7b1fa2">daily aggregate</text>
<text xml:space="preserve" text-anchor="middle" x="1107.22" y="-96.45" font-family="Helvetica,sans-Serif" font-size="9.00" fill="#7b1fa2">(excl. MaaS)</text>
</g>
</g>
</svg>
