<?xml version="1.0" encoding="UTF-8" standalone="no"?>
<!DOCTYPE svg PUBLIC "-//W3C//DTD SVG 1.1//EN"
 "http://www.w3.org/Graphics/SVG/1.1/DTD/svg11.dtd">
<!-- Generated by graphviz version 15.0.0 (20260523.1842)
 -->
<!-- Title: data_flow_processing Pages: 1 -->
<svg width="1357pt" height="1432pt"
 viewBox="0.00 0.00 1357.00 1432.00" xmlns="http://www.w3.org/2000/svg" xmlns:xlink="http://www.w3.org/1999/xlink">
<g id="graph0" class="graph" transform="scale(1 1) rotate(0) translate(36 1395.75)">
<title>data_flow_processing</title>
<polygon fill="white" stroke="none" points="-36,36 -36,-1395.75 1321,-1395.75 1321,36 -36,36"/>
<text xml:space="preserve" text-anchor="middle" x="642.5" y="-1342.45" font-family="Helvetica,sans-Serif" font-size="14.00">Processing Pipeline — Metering &amp; Rating Sweeps</text>
<g id="clust1" class="cluster">
<title>cluster_source</title>
<polygon fill="#e8f5e9" stroke="#2e7d32" points="8,-1172.25 8,-1328.75 1252,-1328.75 1252,-1172.25 8,-1172.25"/>
<text xml:space="preserve" text-anchor="middle" x="630" y="-1314.3" font-family="Helvetica,sans-Serif" font-size="11.00" fill="#2e7d32">Source Tables (read by sweeps)</text>
</g>
<g id="clust2" class="cluster">
<title>cluster_target</title>
<polygon fill="#ffebee" stroke="#c62828" points="854,-130 854,-286.5 1040,-286.5 1040,-130 854,-130"/>
<text xml:space="preserve" text-anchor="middle" x="947" y="-272.05" font-family="Helvetica,sans-Serif" font-size="11.00" fill="#c62828">Target Tables (written by sweeps)</text>
</g>
<g id="clust3" class="cluster">
<title>cluster_consumers</title>
<polygon fill="#fafafa" stroke="#bdbdbd" points="863,-8 863,-87.25 1277,-87.25 1277,-8 863,-8"/>
<text xml:space="preserve" text-anchor="middle" x="1070" y="-72.8" font-family="Helvetica,sans-Serif" font-size="11.00" fill="#616161">Consumers</text>
</g>
<!-- inv_ci -->
<g id="node1" class="node">
<title>inv_ci</title>
<polygon fill="#a5d6a7" stroke="none" points="376,-1200.25 376,-1280.75 566,-1280.75 566,-1200.25 376,-1200.25"/>
<polygon fill="#2e7d32" stroke="none" points="377,-1260.5 377,-1279.75 565,-1279.75 565,-1260.5 377,-1260.5"/>
<text xml:space="preserve" text-anchor="start" x="404.25" y="-1267.25" font-family="Helvetica,sans-Serif" font-weight="bold" font-size="10.00" fill="white">inventory_compute_instance</text>
<text xml:space="preserve" text-anchor="start" x="381" y="-1248.25" font-family="Helvetica,sans-Serif" font-size="10.00">state = RUNNING</text>
<text xml:space="preserve" text-anchor="start" x="381" y="-1227.5" font-family="Helvetica,sans-Serif" font-size="10.00">last_metered_at → period_start</text>
<text xml:space="preserve" text-anchor="start" x="381" y="-1208.25" font-family="Helvetica,sans-Serif" font-size="10.00">cores, memory_gib (or via instance_type)</text>
<polygon fill="none" stroke="black" points="376,-1200.25 376,-1280.75 566,-1280.75 566,-1200.25 376,-1200.25"/>
</g>
<!-- metering -->
<g id="node7" class="node">
<title>metering</title>
<polygon fill="#ffcc80" stroke="none" points="355.62,-953.25 355.62,-1094.75 586.38,-1094.75 586.38,-953.25 355.62,-953.25"/>
<polygon fill="#e65100" stroke="none" points="356.62,-1070.5 356.62,-1093.75 585.38,-1093.75 585.38,-1070.5 356.62,-1070.5"/>
<text xml:space="preserve" text-anchor="start" x="421.88" y="-1079.25" font-family="Helvetica,sans-Serif" font-weight="bold" font-size="10.00" fill="white">metering sweep (60s)</text>
<text xml:space="preserve" text-anchor="start" x="362.62" y="-1056.25" font-family="Helvetica,sans-Serif" font-size="10.00">1. Query billable resources (state filter)</text>
<text xml:space="preserve" text-anchor="start" x="362.62" y="-1033" font-family="Helvetica,sans-Serif" font-size="10.00">2. Enrich cores/mem from instance_type catalog</text>
<text xml:space="preserve" text-anchor="start" x="362.62" y="-1009.75" font-family="Helvetica,sans-Serif" font-size="10.00">3. Calculate duration since last_metered_at</text>
<text xml:space="preserve" text-anchor="start" x="362.62" y="-986.5" font-family="Helvetica,sans-Serif" font-size="10.00">4. Emit meter entries (value = quantity × duration)</text>
<text xml:space="preserve" text-anchor="start" x="362.62" y="-963.25" font-family="Helvetica,sans-Serif" font-size="10.00">5. Update last_metered_at</text>
<polygon fill="none" stroke="black" points="355.62,-953.25 355.62,-1094.75 586.38,-1094.75 586.38,-953.25 355.62,-953.25"/>
</g>
<!-- inv_ci&#45;&gt;metering -->
<g id="edge1" class="edge">
<title>inv_ci&#45;&gt;metering</title>
<path fill="none" stroke="#e65100" d="M471,-1200.66C471,-1174.2 471,-1138.2 471,-1105.69"/>
<polygon fill="#e65100" stroke="#e65100" points="474.5,-1105.87 471,-1095.87 467.5,-1105.87 474.5,-1105.87"/>
<text xml:space="preserve" text-anchor="middle" x="496.12" y="-1133.83" font-family="Helvetica,sans-Serif" font-size="9.00" fill="#e65100">billable VMs</text>
</g>
<!-- inv_cl -->
<g id="node2" class="node">
<title>inv_cl</title>
<polygon fill="#a5d6a7" stroke="none" points="616.12,-1209.88 616.12,-1271.12 803.88,-1271.12 803.88,-1209.88 616.12,-1209.88"/>
<polygon fill="#2e7d32" stroke="none" points="617.12,-1250.88 617.12,-1270.12 802.88,-1270.12 802.88,-1250.88 617.12,-1250.88"/>
<text xml:space="preserve" text-anchor="start" x="669.88" y="-1257.62" font-family="Helvetica,sans-Serif" font-weight="bold" font-size="10.00" fill="white">inventory_cluster</text>
<text xml:space="preserve" text-anchor="start" x="621.12" y="-1238.62" font-family="Helvetica,sans-Serif" font-size="10.00">state = READY / PROGRESSING</text>
<text xml:space="preserve" text-anchor="start" x="621.12" y="-1217.88" font-family="Helvetica,sans-Serif" font-size="10.00">node_sets JSONB → worker node count</text>
<polygon fill="none" stroke="black" points="616.12,-1209.88 616.12,-1271.12 803.88,-1271.12 803.88,-1209.88 616.12,-1209.88"/>
</g>
<!-- inv_cl&#45;&gt;metering -->
<g id="edge2" class="edge">
<title>inv_cl&#45;&gt;metering</title>
<path fill="none" stroke="#e65100" d="M677.27,-1210.12C646.41,-1182.43 598.81,-1139.7 557.1,-1102.28"/>
<polygon fill="#e65100" stroke="#e65100" points="559.48,-1099.71 549.7,-1095.63 554.8,-1104.92 559.48,-1099.71"/>
<text xml:space="preserve" text-anchor="middle" x="636.68" y="-1133.83" font-family="Helvetica,sans-Serif" font-size="9.00" fill="#e65100">billable clusters</text>
</g>
<!-- inv_bm -->
<g id="node3" class="node">
<title>inv_bm</title>
<polygon fill="#a5d6a7" stroke="none" points="16.12,-1220.25 16.12,-1260.75 125.88,-1260.75 125.88,-1220.25 16.12,-1220.25"/>
<polygon fill="#2e7d32" stroke="none" points="17.12,-1240.5 17.12,-1259.75 124.88,-1259.75 124.88,-1240.5 17.12,-1240.5"/>
<text xml:space="preserve" text-anchor="start" x="21.12" y="-1247.25" font-family="Helvetica,sans-Serif" font-weight="bold" font-size="10.00" fill="white">inventory_bare_metal</text>
<text xml:space="preserve" text-anchor="start" x="21.12" y="-1228.25" font-family="Helvetica,sans-Serif" font-size="10.00">state = RUNNING</text>
<polygon fill="none" stroke="black" points="16.12,-1220.25 16.12,-1260.75 125.88,-1260.75 125.88,-1220.25 16.12,-1220.25"/>
</g>
<!-- inv_bm&#45;&gt;metering -->
<g id="edge3" class="edge">
<title>inv_bm&#45;&gt;metering</title>
<path fill="none" stroke="#e65100" d="M90.55,-1220.48C106.07,-1206.04 128.78,-1186.34 151,-1172.25 211.91,-1133.63 284.6,-1099.34 345.3,-1073.59"/>
<polygon fill="#e65100" stroke="#e65100" points="346.46,-1076.9 354.32,-1069.8 343.74,-1070.45 346.46,-1076.9"/>
<text xml:space="preserve" text-anchor="middle" x="249.25" y="-1133.83" font-family="Helvetica,sans-Serif" font-size="9.00" fill="#e65100">billable BM</text>
</g>
<!-- inv_it -->
<g id="node4" class="node">
<title>inv_it</title>
<polygon fill="#a5d6a7" stroke="none" points="175.88,-1220.25 175.88,-1260.75 326.12,-1260.75 326.12,-1220.25 175.88,-1220.25"/>
<polygon fill="#2e7d32" stroke="none" points="176.88,-1240.5 176.88,-1259.75 325.12,-1259.75 325.12,-1240.5 176.88,-1240.5"/>
<text xml:space="preserve" text-anchor="start" x="194.75" y="-1247.25" font-family="Helvetica,sans-Serif" font-weight="bold" font-size="10.00" fill="white">inventory_instance_type</text>
<text xml:space="preserve" text-anchor="start" x="180.88" y="-1228.25" font-family="Helvetica,sans-Serif" font-size="10.00">cores, memory_gib (enrichment)</text>
<polygon fill="none" stroke="black" points="175.88,-1220.25 175.88,-1260.75 326.12,-1260.75 326.12,-1220.25 175.88,-1220.25"/>
</g>
<!-- inv_it&#45;&gt;metering -->
<g id="edge4" class="edge">
<title>inv_it&#45;&gt;metering</title>
<path fill="none" stroke="#e65100" stroke-dasharray="5,2" d="M270.52,-1220.46C297.55,-1194.11 347.96,-1144.97 391.46,-1102.55"/>
<polygon fill="#e65100" stroke="#e65100" points="393.7,-1105.26 398.41,-1095.77 388.81,-1100.25 393.7,-1105.26"/>
<text xml:space="preserve" text-anchor="middle" x="383.88" y="-1138.7" font-family="Helvetica,sans-Serif" font-size="9.00" fill="#e65100">cores/mem</text>
<text xml:space="preserve" text-anchor="middle" x="383.88" y="-1128.95" font-family="Helvetica,sans-Serif" font-size="9.00" fill="#e65100">enrichment</text>
</g>
<!-- quotas -->
<g id="node5" class="node">
<title>quotas</title>
<polygon fill="#b2ebf2" stroke="none" points="1094.25,-1209.88 1094.25,-1271.12 1243.75,-1271.12 1243.75,-1209.88 1094.25,-1209.88"/>
<polygon fill="#00838f" stroke="none" points="1095.25,-1250.88 1095.25,-1270.12 1242.75,-1270.12 1242.75,-1250.88 1095.25,-1250.88"/>
<text xml:space="preserve" text-anchor="start" x="1153.25" y="-1257.62" font-family="Helvetica,sans-Serif" font-weight="bold" font-size="10.00" fill="white">quotas</text>
<text xml:space="preserve" text-anchor="start" x="1099.25" y="-1237.12" font-family="Helvetica,sans-Serif" font-size="10.00">tenant_id + meter_name → limit</text>
<text xml:space="preserve" text-anchor="start" x="1099.25" y="-1217.88" font-family="Helvetica,sans-Serif" font-size="10.00">period: monthly / daily</text>
<polygon fill="none" stroke="black" points="1094.25,-1209.88 1094.25,-1271.12 1243.75,-1271.12 1243.75,-1209.88 1094.25,-1209.88"/>
</g>
<!-- balance_api -->
<g id="node12" class="node">
<title>balance_api</title>
<path fill="#b2ebf2" stroke="#00838f" d="M1256.5,-59.25C1256.5,-59.25 1081.5,-59.25 1081.5,-59.25 1075.5,-59.25 1069.5,-53.25 1069.5,-47.25 1069.5,-47.25 1069.5,-28 1069.5,-28 1069.5,-22 1075.5,-16 1081.5,-16 1081.5,-16 1256.5,-16 1256.5,-16 1262.5,-16 1268.5,-22 1268.5,-28 1268.5,-28 1268.5,-47.25 1268.5,-47.25 1268.5,-53.25 1262.5,-59.25 1256.5,-59.25"/>
<text xml:space="preserve" text-anchor="middle" x="1169" y="-45.75" font-family="Helvetica,sans-Serif" font-size="10.00">Balance Check API</text>
<text xml:space="preserve" text-anchor="middle" x="1169" y="-34.5" font-family="Helvetica,sans-Serif" font-size="10.00">GET /customers/{id}/entitlements/.../value</text>
<text xml:space="preserve" text-anchor="middle" x="1169" y="-23.25" font-family="Helvetica,sans-Serif" font-size="10.00">SUM(usage) vs quota limit → hasAccess</text>
</g>
<!-- quotas&#45;&gt;balance_api -->
<g id="edge11" class="edge">
<title>quotas&#45;&gt;balance_api</title>
<path fill="none" stroke="#00838f" d="M1169,-1210.01C1169,-1168.66 1169,-1091.1 1169,-1025 1169,-1025 1169,-1025 1169,-197.25 1169,-153.54 1169,-103.05 1169,-71"/>
<polygon fill="#00838f" stroke="#00838f" points="1172.5,-71.18 1169,-61.18 1165.5,-71.18 1172.5,-71.18"/>
<text xml:space="preserve" text-anchor="middle" x="1191.12" y="-529.08" font-family="Helvetica,sans-Serif" font-size="9.00" fill="#00838f">limit_value</text>
</g>
<!-- rates -->
<g id="node6" class="node">
<title>rates</title>
<polygon fill="#e1bee7" stroke="none" points="853.62,-1180.25 853.62,-1300.75 1044.38,-1300.75 1044.38,-1180.25 853.62,-1180.25"/>
<polygon fill="#7b1fa2" stroke="none" points="854.62,-1280.5 854.62,-1299.75 1043.38,-1299.75 1043.38,-1280.5 854.62,-1280.5"/>
<text xml:space="preserve" text-anchor="start" x="937.75" y="-1287.25" font-family="Helvetica,sans-Serif" font-weight="bold" font-size="10.00" fill="white">rates</text>
<text xml:space="preserve" text-anchor="start" x="858.62" y="-1266.75" font-family="Helvetica,sans-Serif" font-size="10.00">resource_type + meter_name → rate</text>
<text xml:space="preserve" text-anchor="start" x="858.62" y="-1246" font-family="Helvetica,sans-Serif" font-size="10.00">tenant override → global fallback</text>
<text xml:space="preserve" text-anchor="start" x="858.62" y="-1226.75" font-family="Helvetica,sans-Serif" font-size="10.00">flat price_per_unit or tiered (JSONB)</text>
<text xml:space="preserve" text-anchor="start" x="858.62" y="-1207.5" font-family="Helvetica,sans-Serif" font-size="10.00">cost_type: Infrastructure / Supplementary</text>
<text xml:space="preserve" text-anchor="start" x="858.62" y="-1188.25" font-family="Helvetica,sans-Serif" font-size="10.00">koku_metric: external system mapping</text>
<polygon fill="none" stroke="black" points="853.62,-1180.25 853.62,-1300.75 1044.38,-1300.75 1044.38,-1180.25 853.62,-1180.25"/>
</g>
<!-- rating -->
<g id="node9" class="node">
<title>rating</title>
<polygon fill="#ffcdd2" stroke="none" points="820.38,-347 820.38,-490 1073.62,-490 1073.62,-347 820.38,-347"/>
<polygon fill="#c62828" stroke="none" points="821.38,-465.75 821.38,-489 1072.62,-489 1072.62,-465.75 821.38,-465.75"/>
<text xml:space="preserve" text-anchor="start" x="905" y="-474.5" font-family="Helvetica,sans-Serif" font-weight="bold" font-size="10.00" fill="white">rating sweep (30s)</text>
<text xml:space="preserve" text-anchor="start" x="827.38" y="-451.5" font-family="Helvetica,sans-Serif" font-size="10.00">1. Query unrated entries (rated_at IS NULL, batch 500)</text>
<text xml:space="preserve" text-anchor="start" x="827.38" y="-426.75" font-family="Helvetica,sans-Serif" font-size="10.00">2. FindRate: tenant&#45;specific → global fallback</text>
<text xml:space="preserve" text-anchor="start" x="827.38" y="-403.5" font-family="Helvetica,sans-Serif" font-size="10.00">3. Apply rate: flat (value × price) or tiered</text>
<text xml:space="preserve" text-anchor="start" x="827.38" y="-380.25" font-family="Helvetica,sans-Serif" font-size="10.00">4. Write cost entry with cost_type from rate</text>
<text xml:space="preserve" text-anchor="start" x="827.38" y="-357" font-family="Helvetica,sans-Serif" font-size="10.00">5. Mark metering entry as rated (set rated_at)</text>
<polygon fill="none" stroke="black" points="820.38,-347 820.38,-490 1073.62,-490 1073.62,-347 820.38,-347"/>
</g>
<!-- rates&#45;&gt;rating -->
<g id="edge7" class="edge">
<title>rates&#45;&gt;rating</title>
<path fill="none" stroke="#7b1fa2" d="M948.86,-1180.53C948.5,-1036.4 947.6,-666.04 947.2,-500.99"/>
<polygon fill="#7b1fa2" stroke="#7b1fa2" points="950.7,-501.44 947.18,-491.45 943.7,-501.46 950.7,-501.44"/>
<text xml:space="preserve" text-anchor="middle" x="980.46" y="-911.7" font-family="Helvetica,sans-Serif" font-size="9.00" fill="#7b1fa2">FindRate()</text>
<text xml:space="preserve" text-anchor="middle" x="980.46" y="-901.95" font-family="Helvetica,sans-Serif" font-size="9.00" fill="#7b1fa2">tenant → global</text>
</g>
<!-- metering_entries -->
<g id="node8" class="node">
<title>metering_entries</title>
<polygon fill="#fff9c4" stroke="none" points="628.12,-575.5 628.12,-866.25 859.88,-866.25 859.88,-575.5 628.12,-575.5"/>
<polygon fill="#f57f17" stroke="none" points="629.12,-846 629.12,-865.25 858.88,-865.25 858.88,-846 629.12,-846"/>
<text xml:space="preserve" text-anchor="start" x="705" y="-852.75" font-family="Helvetica,sans-Serif" font-weight="bold" font-size="10.00" fill="white">metering_entries</text>
<polygon fill="#fffde7" stroke="none" points="629.12,-826.75 629.12,-846 858.88,-846 858.88,-826.75 629.12,-826.75"/>
<text xml:space="preserve" text-anchor="start" x="678.38" y="-833.5" font-family="Helvetica,sans-Serif" font-style="italic" font-size="10.00">Capacity&#45;based (from sweep):</text>
<text xml:space="preserve" text-anchor="start" x="633.12" y="-814.5" font-family="Helvetica,sans-Serif" font-size="10.00">vm_uptime_seconds</text>
<text xml:space="preserve" text-anchor="start" x="796.75" y="-814.5" font-family="Helvetica,sans-Serif" font-size="10.00">duration</text>
<text xml:space="preserve" text-anchor="start" x="633.12" y="-795.25" font-family="Helvetica,sans-Serif" font-size="10.00">vm_cpu_core_seconds</text>
<text xml:space="preserve" text-anchor="start" x="778.75" y="-795.25" font-family="Helvetica,sans-Serif" font-size="10.00">cores × duration</text>
<text xml:space="preserve" text-anchor="start" x="633.12" y="-776" font-family="Helvetica,sans-Serif" font-size="10.00">vm_memory_gib_seconds</text>
<text xml:space="preserve" text-anchor="start" x="773.12" y="-776" font-family="Helvetica,sans-Serif" font-size="10.00">memory × duration</text>
<text xml:space="preserve" text-anchor="start" x="633.12" y="-756.75" font-family="Helvetica,sans-Serif" font-size="10.00">cluster_uptime_seconds</text>
<text xml:space="preserve" text-anchor="start" x="796.75" y="-756.75" font-family="Helvetica,sans-Serif" font-size="10.00">duration</text>
<text xml:space="preserve" text-anchor="start" x="633.12" y="-737.5" font-family="Helvetica,sans-Serif" font-size="10.00">cluster_worker_node_seconds</text>
<text xml:space="preserve" text-anchor="start" x="775.75" y="-737.5" font-family="Helvetica,sans-Serif" font-size="10.00">Σ(size × duration)</text>
<text xml:space="preserve" text-anchor="start" x="633.12" y="-718.25" font-family="Helvetica,sans-Serif" font-size="10.00">cluster_worker_node_count</text>
<text xml:space="preserve" text-anchor="start" x="777.62" y="-718.25" font-family="Helvetica,sans-Serif" font-size="10.00">Σ(size) snapshot</text>
<text xml:space="preserve" text-anchor="start" x="633.12" y="-699" font-family="Helvetica,sans-Serif" font-size="10.00">bm_uptime_seconds</text>
<text xml:space="preserve" text-anchor="start" x="796.75" y="-699" font-family="Helvetica,sans-Serif" font-size="10.00">duration</text>
<polygon fill="#fffde7" stroke="none" points="629.12,-672.75 629.12,-692 858.88,-692 858.88,-672.75 629.12,-672.75"/>
<text xml:space="preserve" text-anchor="start" x="655.5" y="-679.5" font-family="Helvetica,sans-Serif" font-style="italic" font-size="10.00">Consumption&#45;based (from HTTP ingest):</text>
<text xml:space="preserve" text-anchor="start" x="633.12" y="-660.5" font-family="Helvetica,sans-Serif" font-size="10.00">maas_tokens_in</text>
<text xml:space="preserve" text-anchor="start" x="782.88" y="-660.5" font-family="Helvetica,sans-Serif" font-size="10.00">prompt tokens</text>
<text xml:space="preserve" text-anchor="start" x="633.12" y="-641.25" font-family="Helvetica,sans-Serif" font-size="10.00">maas_tokens_out</text>
<text xml:space="preserve" text-anchor="start" x="774.25" y="-641.25" font-family="Helvetica,sans-Serif" font-size="10.00">completion tokens</text>
<text xml:space="preserve" text-anchor="start" x="633.12" y="-622" font-family="Helvetica,sans-Serif" font-size="10.00">maas_tokens_cached</text>
<text xml:space="preserve" text-anchor="start" x="782.12" y="-622" font-family="Helvetica,sans-Serif" font-size="10.00">cached tokens</text>
<text xml:space="preserve" text-anchor="start" x="633.12" y="-602.75" font-family="Helvetica,sans-Serif" font-size="10.00">maas_tokens_reasoning</text>
<text xml:space="preserve" text-anchor="start" x="776.88" y="-602.75" font-family="Helvetica,sans-Serif" font-size="10.00">reasoning tokens</text>
<text xml:space="preserve" text-anchor="start" x="633.12" y="-583.5" font-family="Helvetica,sans-Serif" font-size="10.00">maas_requests</text>
<text xml:space="preserve" text-anchor="start" x="784.38" y="-583.5" font-family="Helvetica,sans-Serif" font-size="10.00">request count</text>
<polygon fill="none" stroke="black" points="628.12,-575.5 628.12,-866.25 859.88,-866.25 859.88,-575.5 628.12,-575.5"/>
</g>
<!-- metering&#45;&gt;metering_entries -->
<g id="edge5" class="edge">
<title>metering&#45;&gt;metering_entries</title>
<path fill="none" stroke="#e65100" d="M533.97,-953.54C559.81,-925.04 590.66,-891.01 620.66,-857.92"/>
<polygon fill="#e65100" stroke="#e65100" points="623.12,-860.42 627.25,-850.66 617.94,-855.72 623.12,-860.42"/>
<text xml:space="preserve" text-anchor="middle" x="611.92" y="-906.08" font-family="Helvetica,sans-Serif" font-size="9.00" fill="#e65100">INSERT batch</text>
</g>
<!-- metering_entries&#45;&gt;rating -->
<g id="edge6" class="edge">
<title>metering_entries&#45;&gt;rating</title>
<path fill="none" stroke="#c62828" d="M802.07,-575.75C811.82,-557.35 822.66,-539.27 834.5,-523 840.7,-514.48 847.68,-506.11 855.06,-498.05"/>
<polygon fill="#c62828" stroke="#c62828" points="857.51,-500.55 861.83,-490.88 852.42,-495.75 857.51,-500.55"/>
<text xml:space="preserve" text-anchor="middle" x="872.75" y="-533.95" font-family="Helvetica,sans-Serif" font-size="9.00" fill="#c62828">unrated entries</text>
<text xml:space="preserve" text-anchor="middle" x="872.75" y="-524.2" font-family="Helvetica,sans-Serif" font-size="9.00" fill="#c62828">(rated_at IS NULL)</text>
</g>
<!-- metering_entries&#45;&gt;balance_api -->
<g id="edge10" class="edge">
<title>metering_entries&#45;&gt;balance_api</title>
<path fill="none" stroke="#00838f" d="M728.75,-575.69C723.04,-444.25 736.43,-252.46 842,-130 901.92,-60.5 954.48,-107.44 1044,-87.25 1067.61,-81.93 1092.65,-72.91 1114.08,-64.08"/>
<polygon fill="#00838f" stroke="#00838f" points="1115.35,-67.34 1123.2,-60.22 1112.63,-60.89 1115.35,-67.34"/>
<text xml:space="preserve" text-anchor="middle" x="789.32" y="-305.45" font-family="Helvetica,sans-Serif" font-size="9.00" fill="#00838f">SUM(value)</text>
<text xml:space="preserve" text-anchor="middle" x="789.32" y="-295.7" font-family="Helvetica,sans-Serif" font-size="9.00" fill="#00838f">for tenant+meter</text>
</g>
<!-- cost_entries -->
<g id="node10" class="node">
<title>cost_entries</title>
<polygon fill="#ffcdd2" stroke="none" points="861.75,-138 861.75,-258.5 1032.25,-258.5 1032.25,-138 861.75,-138"/>
<polygon fill="#c62828" stroke="none" points="862.75,-238.25 862.75,-257.5 1031.25,-257.5 1031.25,-238.25 862.75,-238.25"/>
<text xml:space="preserve" text-anchor="start" x="918.88" y="-245" font-family="Helvetica,sans-Serif" font-weight="bold" font-size="10.00" fill="white">cost_entries</text>
<text xml:space="preserve" text-anchor="start" x="866.75" y="-224.5" font-family="Helvetica,sans-Serif" font-size="10.00">metering_entry_id → source</text>
<text xml:space="preserve" text-anchor="start" x="866.75" y="-203.75" font-family="Helvetica,sans-Serif" font-size="10.00">rate_id → pricing rule applied</text>
<text xml:space="preserve" text-anchor="start" x="866.75" y="-184.5" font-family="Helvetica,sans-Serif" font-size="10.00">cost_amount = metered_value × rate</text>
<text xml:space="preserve" text-anchor="start" x="866.75" y="-165.25" font-family="Helvetica,sans-Serif" font-size="10.00">currency (USD)</text>
<text xml:space="preserve" text-anchor="start" x="866.75" y="-146" font-family="Helvetica,sans-Serif" font-size="10.00">period_start / period_end</text>
<polygon fill="none" stroke="black" points="861.75,-138 861.75,-258.5 1032.25,-258.5 1032.25,-138 861.75,-138"/>
</g>
<!-- rating&#45;&gt;cost_entries -->
<g id="edge8" class="edge">
<title>rating&#45;&gt;cost_entries</title>
<path fill="none" stroke="#c62828" d="M947,-347.24C947,-322.39 947,-294.44 947,-269.58"/>
<polygon fill="#c62828" stroke="#c62828" points="950.5,-269.91 947,-259.91 943.5,-269.91 950.5,-269.91"/>
<text xml:space="preserve" text-anchor="middle" x="984.12" y="-305.45" font-family="Helvetica,sans-Serif" font-size="9.00" fill="#c62828">INSERT</text>
<text xml:space="preserve" text-anchor="middle" x="984.12" y="-295.7" font-family="Helvetica,sans-Serif" font-size="9.00" fill="#c62828">cost = value × rate</text>
</g>
<!-- report_api -->
<g id="node11" class="node">
<title>report_api</title>
<path fill="#e3f2fd" stroke="#1565c0" d="M1007.38,-58.5C1007.38,-58.5 882.62,-58.5 882.62,-58.5 876.62,-58.5 870.62,-52.5 870.62,-46.5 870.62,-46.5 870.62,-28.75 870.62,-28.75 870.62,-22.75 876.62,-16.75 882.62,-16.75 882.62,-16.75 1007.38,-16.75 1007.38,-16.75 1013.38,-16.75 1019.38,-22.75 1019.38,-28.75 1019.38,-28.75 1019.38,-46.5 1019.38,-46.5 1019.38,-52.5 1013.38,-58.5 1007.38,-58.5"/>
<text xml:space="preserve" text-anchor="middle" x="945" y="-45" font-family="Helvetica,sans-Serif" font-size="10.00">Report API</text>
<text xml:space="preserve" text-anchor="middle" x="945" y="-33.75" font-family="Helvetica,sans-Serif" font-size="10.00">GET /api/v1/reports/costs</text>
<text xml:space="preserve" text-anchor="middle" x="945" y="-22.5" font-family="Helvetica,sans-Serif" font-size="10.00">GROUP BY tenant/type/meter</text>
</g>
<!-- cost_entries&#45;&gt;report_api -->
<g id="edge9" class="edge">
<title>cost_entries&#45;&gt;report_api</title>
<path fill="none" stroke="#1565c0" d="M946.26,-138.18C945.97,-115.24 945.65,-89.88 945.4,-70.49"/>
<polygon fill="#1565c0" stroke="#1565c0" points="948.9,-70.46 945.28,-60.5 941.9,-70.54 948.9,-70.46"/>
<text xml:space="preserve" text-anchor="middle" x="957.45" y="-96.45" font-family="Helvetica,sans-Serif" font-size="9.00" fill="#1565c0">query</text>
</g>
</g>
</svg>
