<?xml version="1.0" encoding="UTF-8" standalone="no"?>
<!DOCTYPE svg PUBLIC "-//W3C//DTD SVG 1.1//EN"
 "http://www.w3.org/Graphics/SVG/1.1/DTD/svg11.dtd">
<!-- Generated by graphviz version 15.0.0 (20260523.1842)
 -->
<!-- Title: erd_inventory Pages: 1 -->
<svg width="579pt" height="803pt"
 viewBox="0.00 0.00 579.00 803.00" xmlns="http://www.w3.org/2000/svg" xmlns:xlink="http://www.w3.org/1999/xlink">
<g id="graph0" class="graph" transform="scale(1 1) rotate(0) translate(36 766.5)">
<title>erd_inventory</title>
<polygon fill="white" stroke="none" points="-36,36 -36,-766.5 543.25,-766.5 543.25,36 -36,36"/>
<text xml:space="preserve" text-anchor="middle" x="253.62" y="-715.1" font-family="Helvetica,sans-Serif" font-size="12.00">Inventory &amp; Events</text>
<text xml:space="preserve" text-anchor="middle" x="253.62" y="-702.35" font-family="Helvetica,sans-Serif" font-size="12.00">(store.go / models.go)</text>
<!-- raw_events -->
<g id="node1" class="node">
<title>raw_events</title>
<polygon fill="#e8f4fd" stroke="none" points="0,-60.38 0,-274.12 197,-274.12 197,-60.38 0,-60.38"/>
<polygon fill="#2196f3" stroke="none" points="1,-253.88 1,-273.12 196,-273.12 196,-253.88 1,-253.88"/>
<text xml:space="preserve" text-anchor="start" x="72.62" y="-260.62" font-family="Helvetica,sans-Serif" font-weight="bold" font-size="10.00" fill="white">raw_events</text>
<text xml:space="preserve" text-anchor="start" x="5" y="-241.38" font-family="Helvetica,sans-Serif" font-weight="bold" font-size="10.00">id</text>
<text xml:space="preserve" text-anchor="start" x="82.75" y="-241.62" font-family="Helvetica,sans-Serif" font-size="10.00">BIGSERIAL</text>
<text xml:space="preserve" text-anchor="start" x="165.38" y="-241.62" font-family="Helvetica,sans-Serif" font-size="10.00">PK</text>
<text xml:space="preserve" text-anchor="start" x="5" y="-222.38" font-family="Helvetica,sans-Serif" font-size="10.00">event_id</text>
<text xml:space="preserve" text-anchor="start" x="96.62" y="-222.38" font-family="Helvetica,sans-Serif" font-size="10.00">TEXT</text>
<text xml:space="preserve" text-anchor="start" x="152.25" y="-222.38" font-family="Helvetica,sans-Serif" font-size="10.00">UNIQUE</text>
<text xml:space="preserve" text-anchor="start" x="5" y="-203.12" font-family="Helvetica,sans-Serif" font-size="10.00">event_type</text>
<text xml:space="preserve" text-anchor="start" x="96.62" y="-203.12" font-family="Helvetica,sans-Serif" font-size="10.00">TEXT</text>
<text xml:space="preserve" text-anchor="start" x="5" y="-183.88" font-family="Helvetica,sans-Serif" font-size="10.00">event_source</text>
<text xml:space="preserve" text-anchor="start" x="96.62" y="-183.88" font-family="Helvetica,sans-Serif" font-size="10.00">TEXT</text>
<text xml:space="preserve" text-anchor="start" x="5" y="-164.62" font-family="Helvetica,sans-Serif" font-size="10.00">event_time</text>
<text xml:space="preserve" text-anchor="start" x="74.5" y="-164.62" font-family="Helvetica,sans-Serif" font-size="10.00">TIMESTAMPTZ</text>
<text xml:space="preserve" text-anchor="start" x="5" y="-145.38" font-family="Helvetica,sans-Serif" font-size="10.00">tenant_id</text>
<text xml:space="preserve" text-anchor="start" x="96.62" y="-145.38" font-family="Helvetica,sans-Serif" font-size="10.00">TEXT</text>
<text xml:space="preserve" text-anchor="start" x="5" y="-126.12" font-family="Helvetica,sans-Serif" font-size="10.00">resource_type</text>
<text xml:space="preserve" text-anchor="start" x="96.62" y="-126.12" font-family="Helvetica,sans-Serif" font-size="10.00">TEXT</text>
<text xml:space="preserve" text-anchor="start" x="5" y="-106.88" font-family="Helvetica,sans-Serif" font-size="10.00">resource_id</text>
<text xml:space="preserve" text-anchor="start" x="96.62" y="-106.88" font-family="Helvetica,sans-Serif" font-size="10.00">TEXT</text>
<text xml:space="preserve" text-anchor="start" x="5" y="-87.62" font-family="Helvetica,sans-Serif" font-size="10.00">data</text>
<text xml:space="preserve" text-anchor="start" x="92.5" y="-87.62" font-family="Helvetica,sans-Serif" font-size="10.00">JSONB</text>
<text xml:space="preserve" text-anchor="start" x="5" y="-68.38" font-family="Helvetica,sans-Serif" font-size="10.00">received_at</text>
<text xml:space="preserve" text-anchor="start" x="74.5" y="-68.38" font-family="Helvetica,sans-Serif" font-size="10.00">TIMESTAMPTZ</text>
<polygon fill="none" stroke="black" points="0,-60.38 0,-274.12 197,-274.12 197,-60.38 0,-60.38"/>
</g>
<!-- inventory_compute_instance -->
<g id="node3" class="node">
<title>inventory_compute_instance</title>
<polygon fill="#e8f5e9" stroke="none" points="328.25,-425.5 328.25,-697 507.25,-697 507.25,-425.5 328.25,-425.5"/>
<polygon fill="#4caf50" stroke="none" points="329.25,-676.75 329.25,-696 506.25,-696 506.25,-676.75 329.25,-676.75"/>
<text xml:space="preserve" text-anchor="start" x="351" y="-683.5" font-family="Helvetica,sans-Serif" font-weight="bold" font-size="10.00" fill="white">inventory_compute_instance</text>
<text xml:space="preserve" text-anchor="start" x="333.25" y="-664.25" font-family="Helvetica,sans-Serif" font-weight="bold" font-size="10.00">instance_id</text>
<text xml:space="preserve" text-anchor="start" x="433.12" y="-664.5" font-family="Helvetica,sans-Serif" font-size="10.00">TEXT</text>
<text xml:space="preserve" text-anchor="start" x="488.75" y="-664.5" font-family="Helvetica,sans-Serif" font-size="10.00">PK</text>
<text xml:space="preserve" text-anchor="start" x="333.25" y="-645.25" font-family="Helvetica,sans-Serif" font-size="10.00">name</text>
<text xml:space="preserve" text-anchor="start" x="433.12" y="-645.25" font-family="Helvetica,sans-Serif" font-size="10.00">TEXT</text>
<text xml:space="preserve" text-anchor="start" x="333.25" y="-626" font-family="Helvetica,sans-Serif" font-size="10.00">tenant</text>
<text xml:space="preserve" text-anchor="start" x="433.12" y="-626" font-family="Helvetica,sans-Serif" font-size="10.00">TEXT</text>
<text xml:space="preserve" text-anchor="start" x="333.25" y="-606.75" font-family="Helvetica,sans-Serif" font-size="10.00">project</text>
<text xml:space="preserve" text-anchor="start" x="433.12" y="-606.75" font-family="Helvetica,sans-Serif" font-size="10.00">TEXT</text>
<text xml:space="preserve" text-anchor="start" x="333.25" y="-587.5" font-family="Helvetica,sans-Serif" font-size="10.00">cluster_id</text>
<text xml:space="preserve" text-anchor="start" x="433.12" y="-587.5" font-family="Helvetica,sans-Serif" font-size="10.00">TEXT</text>
<text xml:space="preserve" text-anchor="start" x="333.25" y="-568.25" font-family="Helvetica,sans-Serif" font-size="10.00">instance_type</text>
<text xml:space="preserve" text-anchor="start" x="433.12" y="-568.25" font-family="Helvetica,sans-Serif" font-size="10.00">TEXT</text>
<text xml:space="preserve" text-anchor="start" x="333.25" y="-549" font-family="Helvetica,sans-Serif" font-size="10.00">cores</text>
<text xml:space="preserve" text-anchor="start" x="423.38" y="-549" font-family="Helvetica,sans-Serif" font-size="10.00">INTEGER</text>
<text xml:space="preserve" text-anchor="start" x="333.25" y="-529.75" font-family="Helvetica,sans-Serif" font-size="10.00">memory_gib</text>
<text xml:space="preserve" text-anchor="start" x="423.38" y="-529.75" font-family="Helvetica,sans-Serif" font-size="10.00">INTEGER</text>
<text xml:space="preserve" text-anchor="start" x="333.25" y="-510.5" font-family="Helvetica,sans-Serif" font-size="10.00">state</text>
<text xml:space="preserve" text-anchor="start" x="433.12" y="-510.5" font-family="Helvetica,sans-Serif" font-size="10.00">TEXT</text>
<text xml:space="preserve" text-anchor="start" x="333.25" y="-491.25" font-family="Helvetica,sans-Serif" font-size="10.00">labels</text>
<text xml:space="preserve" text-anchor="start" x="429" y="-491.25" font-family="Helvetica,sans-Serif" font-size="10.00">JSONB</text>
<text xml:space="preserve" text-anchor="start" x="333.25" y="-472" font-family="Helvetica,sans-Serif" font-size="10.00">created_at</text>
<text xml:space="preserve" text-anchor="start" x="411" y="-472" font-family="Helvetica,sans-Serif" font-size="10.00">TIMESTAMPTZ</text>
<text xml:space="preserve" text-anchor="start" x="333.25" y="-452.75" font-family="Helvetica,sans-Serif" font-size="10.00">deleted_at</text>
<text xml:space="preserve" text-anchor="start" x="411" y="-452.75" font-family="Helvetica,sans-Serif" font-size="10.00">TIMESTAMPTZ</text>
<text xml:space="preserve" text-anchor="start" x="333.25" y="-433.5" font-family="Helvetica,sans-Serif" font-size="10.00">last_metered_at</text>
<text xml:space="preserve" text-anchor="start" x="411" y="-433.5" font-family="Helvetica,sans-Serif" font-size="10.00">TIMESTAMPTZ</text>
<polygon fill="none" stroke="black" points="328.25,-425.5 328.25,-697 507.25,-697 507.25,-425.5 328.25,-425.5"/>
</g>
<!-- raw_events&#45;&gt;inventory_compute_instance -->
<g id="edge5" class="edge">
<title>raw_events&#45;&gt;inventory_compute_instance</title>
<path fill="none" stroke="#999999" stroke-dasharray="1,5" d="M196.72,-271.75C202.68,-275.94 208.78,-279.81 215,-283.25 252.99,-304.24 280.53,-273.13 310.25,-304.75 342.35,-338.9 315.03,-365.43 328.47,-414.89"/>
<polygon fill="#999999" stroke="#999999" points="325.12,-415.92 331.52,-424.37 331.78,-413.78 325.12,-415.92"/>
<text xml:space="preserve" text-anchor="middle" x="262.62" y="-315.7" font-family="Helvetica,sans-Serif" font-size="9.00">produces</text>
<text xml:space="preserve" text-anchor="middle" x="262.62" y="-305.95" font-family="Helvetica,sans-Serif" font-size="9.00">(CREATED/UPDATED)</text>
</g>
<!-- inventory_cluster -->
<g id="node4" class="node">
<title>inventory_cluster</title>
<polygon fill="#e8f5e9" stroke="none" points="328.25,0 328.25,-194.5 507.25,-194.5 507.25,0 328.25,0"/>
<polygon fill="#4caf50" stroke="none" points="329.25,-174.25 329.25,-193.5 506.25,-193.5 506.25,-174.25 329.25,-174.25"/>
<text xml:space="preserve" text-anchor="start" x="377.62" y="-181" font-family="Helvetica,sans-Serif" font-weight="bold" font-size="10.00" fill="white">inventory_cluster</text>
<text xml:space="preserve" text-anchor="start" x="333.25" y="-161.75" font-family="Helvetica,sans-Serif" font-weight="bold" font-size="10.00">cluster_id</text>
<text xml:space="preserve" text-anchor="start" x="433.12" y="-162" font-family="Helvetica,sans-Serif" font-size="10.00">TEXT</text>
<text xml:space="preserve" text-anchor="start" x="488.75" y="-162" font-family="Helvetica,sans-Serif" font-size="10.00">PK</text>
<text xml:space="preserve" text-anchor="start" x="333.25" y="-142.75" font-family="Helvetica,sans-Serif" font-size="10.00">name</text>
<text xml:space="preserve" text-anchor="start" x="433.12" y="-142.75" font-family="Helvetica,sans-Serif" font-size="10.00">TEXT</text>
<text xml:space="preserve" text-anchor="start" x="333.25" y="-123.5" font-family="Helvetica,sans-Serif" font-size="10.00">tenant</text>
<text xml:space="preserve" text-anchor="start" x="433.12" y="-123.5" font-family="Helvetica,sans-Serif" font-size="10.00">TEXT</text>
<text xml:space="preserve" text-anchor="start" x="333.25" y="-104.25" font-family="Helvetica,sans-Serif" font-size="10.00">template</text>
<text xml:space="preserve" text-anchor="start" x="433.12" y="-104.25" font-family="Helvetica,sans-Serif" font-size="10.00">TEXT</text>
<text xml:space="preserve" text-anchor="start" x="333.25" y="-85" font-family="Helvetica,sans-Serif" font-size="10.00">node_sets</text>
<text xml:space="preserve" text-anchor="start" x="429" y="-85" font-family="Helvetica,sans-Serif" font-size="10.00">JSONB</text>
<text xml:space="preserve" text-anchor="start" x="333.25" y="-65.75" font-family="Helvetica,sans-Serif" font-size="10.00">state</text>
<text xml:space="preserve" text-anchor="start" x="433.12" y="-65.75" font-family="Helvetica,sans-Serif" font-size="10.00">TEXT</text>
<text xml:space="preserve" text-anchor="start" x="333.25" y="-46.5" font-family="Helvetica,sans-Serif" font-size="10.00">created_at</text>
<text xml:space="preserve" text-anchor="start" x="411" y="-46.5" font-family="Helvetica,sans-Serif" font-size="10.00">TIMESTAMPTZ</text>
<text xml:space="preserve" text-anchor="start" x="333.25" y="-27.25" font-family="Helvetica,sans-Serif" font-size="10.00">deleted_at</text>
<text xml:space="preserve" text-anchor="start" x="411" y="-27.25" font-family="Helvetica,sans-Serif" font-size="10.00">TIMESTAMPTZ</text>
<text xml:space="preserve" text-anchor="start" x="333.25" y="-8" font-family="Helvetica,sans-Serif" font-size="10.00">last_metered_at</text>
<text xml:space="preserve" text-anchor="start" x="411" y="-8" font-family="Helvetica,sans-Serif" font-size="10.00">TIMESTAMPTZ</text>
<polygon fill="none" stroke="black" points="328.25,0 328.25,-194.5 507.25,-194.5 507.25,0 328.25,0"/>
</g>
<!-- raw_events&#45;&gt;inventory_cluster -->
<g id="edge6" class="edge">
<title>raw_events&#45;&gt;inventory_cluster</title>
<path fill="none" stroke="#999999" stroke-dasharray="1,5" d="M196.84,-145.77C235.05,-137.34 278.87,-127.67 317.29,-119.2"/>
<polygon fill="#999999" stroke="#999999" points="318.01,-122.62 327.02,-117.05 316.5,-115.79 318.01,-122.62"/>
<text xml:space="preserve" text-anchor="middle" x="262.62" y="-141.78" font-family="Helvetica,sans-Serif" font-size="9.00">produces</text>
</g>
<!-- inventory_model -->
<g id="node5" class="node">
<title>inventory_model</title>
<polygon fill="#e8f5e9" stroke="none" points="335.38,-213 335.38,-407.5 500.12,-407.5 500.12,-213 335.38,-213"/>
<polygon fill="#4caf50" stroke="none" points="336.38,-387.25 336.38,-406.5 499.12,-406.5 499.12,-387.25 336.38,-387.25"/>
<text xml:space="preserve" text-anchor="start" x="378.75" y="-394" font-family="Helvetica,sans-Serif" font-weight="bold" font-size="10.00" fill="white">inventory_model</text>
<text xml:space="preserve" text-anchor="start" x="340.38" y="-374.75" font-family="Helvetica,sans-Serif" font-weight="bold" font-size="10.00">model_id</text>
<text xml:space="preserve" text-anchor="start" x="426" y="-375" font-family="Helvetica,sans-Serif" font-size="10.00">TEXT</text>
<text xml:space="preserve" text-anchor="start" x="481.62" y="-375" font-family="Helvetica,sans-Serif" font-size="10.00">PK</text>
<text xml:space="preserve" text-anchor="start" x="340.38" y="-355.75" font-family="Helvetica,sans-Serif" font-size="10.00">name</text>
<text xml:space="preserve" text-anchor="start" x="426" y="-355.75" font-family="Helvetica,sans-Serif" font-size="10.00">TEXT</text>
<text xml:space="preserve" text-anchor="start" x="340.38" y="-336.5" font-family="Helvetica,sans-Serif" font-size="10.00">model_name</text>
<text xml:space="preserve" text-anchor="start" x="426" y="-336.5" font-family="Helvetica,sans-Serif" font-size="10.00">TEXT</text>
<text xml:space="preserve" text-anchor="start" x="340.38" y="-317.25" font-family="Helvetica,sans-Serif" font-size="10.00">tenant</text>
<text xml:space="preserve" text-anchor="start" x="426" y="-317.25" font-family="Helvetica,sans-Serif" font-size="10.00">TEXT</text>
<text xml:space="preserve" text-anchor="start" x="340.38" y="-298" font-family="Helvetica,sans-Serif" font-size="10.00">project</text>
<text xml:space="preserve" text-anchor="start" x="426" y="-298" font-family="Helvetica,sans-Serif" font-size="10.00">TEXT</text>
<text xml:space="preserve" text-anchor="start" x="340.38" y="-278.75" font-family="Helvetica,sans-Serif" font-size="10.00">template</text>
<text xml:space="preserve" text-anchor="start" x="426" y="-278.75" font-family="Helvetica,sans-Serif" font-size="10.00">TEXT</text>
<text xml:space="preserve" text-anchor="start" x="340.38" y="-259.5" font-family="Helvetica,sans-Serif" font-size="10.00">state</text>
<text xml:space="preserve" text-anchor="start" x="426" y="-259.5" font-family="Helvetica,sans-Serif" font-size="10.00">TEXT</text>
<text xml:space="preserve" text-anchor="start" x="340.38" y="-240.25" font-family="Helvetica,sans-Serif" font-size="10.00">created_at</text>
<text xml:space="preserve" text-anchor="start" x="403.88" y="-240.25" font-family="Helvetica,sans-Serif" font-size="10.00">TIMESTAMPTZ</text>
<text xml:space="preserve" text-anchor="start" x="340.38" y="-221" font-family="Helvetica,sans-Serif" font-size="10.00">deleted_at</text>
<text xml:space="preserve" text-anchor="start" x="403.88" y="-221" font-family="Helvetica,sans-Serif" font-size="10.00">TIMESTAMPTZ</text>
<polygon fill="none" stroke="black" points="335.38,-213 335.38,-407.5 500.12,-407.5 500.12,-213 335.38,-213"/>
</g>
<!-- raw_events&#45;&gt;inventory_model -->
<g id="edge7" class="edge">
<title>raw_events&#45;&gt;inventory_model</title>
<path fill="none" stroke="#999999" stroke-dasharray="1,5" d="M196.96,-185.53C233.69,-194.62 275.07,-207.59 310.25,-225.5 315.58,-228.21 320.9,-231.22 326.15,-234.43"/>
<polygon fill="#999999" stroke="#999999" points="323.95,-237.18 334.26,-239.61 327.71,-231.28 323.95,-237.18"/>
<text xml:space="preserve" text-anchor="middle" x="262.62" y="-226.7" font-family="Helvetica,sans-Serif" font-size="9.00">produces</text>
</g>
<!-- inventory_project -->
<g id="node2" class="node">
<title>inventory_project</title>
<polygon fill="#e8f5e9" stroke="none" points="20.62,-291.88 20.62,-428.62 176.38,-428.62 176.38,-291.88 20.62,-291.88"/>
<polygon fill="#4caf50" stroke="none" points="21.62,-408.38 21.62,-427.62 175.38,-427.62 175.38,-408.38 21.62,-408.38"/>
<text xml:space="preserve" text-anchor="start" x="58" y="-415.12" font-family="Helvetica,sans-Serif" font-weight="bold" font-size="10.00" fill="white">inventory_project</text>
<text xml:space="preserve" text-anchor="start" x="25.62" y="-395.88" font-family="Helvetica,sans-Serif" font-weight="bold" font-size="10.00">project_id</text>
<text xml:space="preserve" text-anchor="start" x="102.25" y="-396.12" font-family="Helvetica,sans-Serif" font-size="10.00">TEXT</text>
<text xml:space="preserve" text-anchor="start" x="157.88" y="-396.12" font-family="Helvetica,sans-Serif" font-size="10.00">PK</text>
<text xml:space="preserve" text-anchor="start" x="25.62" y="-376.88" font-family="Helvetica,sans-Serif" font-size="10.00">name</text>
<text xml:space="preserve" text-anchor="start" x="102.25" y="-376.88" font-family="Helvetica,sans-Serif" font-size="10.00">TEXT</text>
<text xml:space="preserve" text-anchor="start" x="25.62" y="-357.62" font-family="Helvetica,sans-Serif" font-size="10.00">tenant</text>
<text xml:space="preserve" text-anchor="start" x="102.25" y="-357.62" font-family="Helvetica,sans-Serif" font-size="10.00">TEXT</text>
<text xml:space="preserve" text-anchor="start" x="25.62" y="-338.38" font-family="Helvetica,sans-Serif" font-size="10.00">labels</text>
<text xml:space="preserve" text-anchor="start" x="98.12" y="-338.38" font-family="Helvetica,sans-Serif" font-size="10.00">JSONB</text>
<text xml:space="preserve" text-anchor="start" x="25.62" y="-319.12" font-family="Helvetica,sans-Serif" font-size="10.00">created_at</text>
<text xml:space="preserve" text-anchor="start" x="80.12" y="-319.12" font-family="Helvetica,sans-Serif" font-size="10.00">TIMESTAMPTZ</text>
<text xml:space="preserve" text-anchor="start" x="25.62" y="-299.88" font-family="Helvetica,sans-Serif" font-size="10.00">deleted_at</text>
<text xml:space="preserve" text-anchor="start" x="80.12" y="-299.88" font-family="Helvetica,sans-Serif" font-size="10.00">TIMESTAMPTZ</text>
<polygon fill="none" stroke="black" points="20.62,-291.88 20.62,-428.62 176.38,-428.62 176.38,-291.88 20.62,-291.88"/>
</g>
<!-- inventory_project&#45;&gt;inventory_compute_instance -->
<g id="edge1" class="edge">
<title>inventory_project&#45;&gt;inventory_compute_instance</title>
<path fill="none" stroke="#666666" stroke-dasharray="5,2" d="M176.3,-408.91C219.1,-436.02 272.84,-470.08 318.66,-499.1"/>
<polygon fill="#666666" stroke="#666666" points="316.71,-502.01 327.03,-504.41 320.46,-496.1 316.71,-502.01"/>
<text xml:space="preserve" text-anchor="middle" x="262.62" y="-491.7" font-family="Helvetica,sans-Serif" font-size="9.00">tenant</text>
</g>
<!-- inventory_project&#45;&gt;inventory_cluster -->
<g id="edge3" class="edge">
<title>inventory_project&#45;&gt;inventory_cluster</title>
<path fill="none" stroke="#666666" stroke-dasharray="5,2" d="M176.2,-298.33C188.8,-289.43 202,-280.82 215,-273.5 254.75,-251.11 275.75,-265.1 310.25,-235.25 322.3,-224.83 319.14,-217.32 328.25,-204.25 328.39,-204.05 328.53,-203.84 328.68,-203.64"/>
<polygon fill="#666666" stroke="#666666" points="331.43,-205.81 334.4,-195.64 325.73,-201.74 331.43,-205.81"/>
<text xml:space="preserve" text-anchor="middle" x="262.62" y="-274.7" font-family="Helvetica,sans-Serif" font-size="9.00">tenant</text>
</g>
<!-- inventory_project&#45;&gt;inventory_model -->
<g id="edge2" class="edge">
<title>inventory_project&#45;&gt;inventory_model</title>
<path fill="none" stroke="#666666" stroke-dasharray="5,2" d="M176.13,-348.93C216.13,-342.94 265.85,-335.37 310.25,-328.25 314.88,-327.51 319.63,-326.74 324.42,-325.95"/>
<polygon fill="#666666" stroke="#666666" points="324.87,-329.43 334.16,-324.35 323.73,-322.52 324.87,-329.43"/>
<text xml:space="preserve" text-anchor="middle" x="262.62" y="-343.84" font-family="Helvetica,sans-Serif" font-size="9.00">tenant</text>
</g>
<!-- inventory_instance_type -->
<g id="node6" class="node">
<title>inventory_instance_type</title>
<polygon fill="#e8f5e9" stroke="none" points="17.25,-502.5 17.25,-620 179.75,-620 179.75,-502.5 17.25,-502.5"/>
<polygon fill="#4caf50" stroke="none" points="18.25,-599.75 18.25,-619 178.75,-619 178.75,-599.75 18.25,-599.75"/>
<text xml:space="preserve" text-anchor="start" x="42.25" y="-606.5" font-family="Helvetica,sans-Serif" font-weight="bold" font-size="10.00" fill="white">inventory_instance_type</text>
<text xml:space="preserve" text-anchor="start" x="22.25" y="-587.25" font-family="Helvetica,sans-Serif" font-weight="bold" font-size="10.00">instance_type_id</text>
<text xml:space="preserve" text-anchor="start" x="118" y="-587.5" font-family="Helvetica,sans-Serif" font-size="10.00">TEXT</text>
<text xml:space="preserve" text-anchor="start" x="161.25" y="-587.5" font-family="Helvetica,sans-Serif" font-size="10.00">PK</text>
<text xml:space="preserve" text-anchor="start" x="22.25" y="-568.25" font-family="Helvetica,sans-Serif" font-size="10.00">name</text>
<text xml:space="preserve" text-anchor="start" x="118" y="-568.25" font-family="Helvetica,sans-Serif" font-size="10.00">TEXT</text>
<text xml:space="preserve" text-anchor="start" x="22.25" y="-549" font-family="Helvetica,sans-Serif" font-size="10.00">cores</text>
<text xml:space="preserve" text-anchor="start" x="108.25" y="-549" font-family="Helvetica,sans-Serif" font-size="10.00">INTEGER</text>
<text xml:space="preserve" text-anchor="start" x="22.25" y="-529.75" font-family="Helvetica,sans-Serif" font-size="10.00">memory_gib</text>
<text xml:space="preserve" text-anchor="start" x="108.25" y="-529.75" font-family="Helvetica,sans-Serif" font-size="10.00">INTEGER</text>
<text xml:space="preserve" text-anchor="start" x="22.25" y="-510.5" font-family="Helvetica,sans-Serif" font-size="10.00">state</text>
<text xml:space="preserve" text-anchor="start" x="118" y="-510.5" font-family="Helvetica,sans-Serif" font-size="10.00">TEXT</text>
<polygon fill="none" stroke="black" points="17.25,-502.5 17.25,-620 179.75,-620 179.75,-502.5 17.25,-502.5"/>
</g>
<!-- inventory_instance_type&#45;&gt;inventory_compute_instance -->
<g id="edge4" class="edge">
<title>inventory_instance_type&#45;&gt;inventory_compute_instance</title>
<path fill="none" stroke="#666666" stroke-dasharray="5,2" d="M179.56,-561.25C221.26,-561.25 272.67,-561.25 316.95,-561.25"/>
<polygon fill="#666666" stroke="#666666" points="316.83,-564.75 326.83,-561.25 316.83,-557.75 316.83,-564.75"/>
<text xml:space="preserve" text-anchor="middle" x="262.62" y="-562.45" font-family="Helvetica,sans-Serif" font-size="9.00">instance_type</text>
</g>
</g>
</svg>
