<?xml version="1.0" encoding="UTF-8" standalone="no"?>
<!DOCTYPE svg PUBLIC "-//W3C//DTD SVG 1.1//EN"
 "http://www.w3.org/Graphics/SVG/1.1/DTD/svg11.dtd">
<!-- Generated by graphviz version 15.0.0 (20260523.1842)
 -->
<!-- Title: koku_ocp_flow Pages: 1 -->
<svg width="1223pt" height="920pt"
 viewBox="0.00 0.00 1223.00 920.00" xmlns="http://www.w3.org/2000/svg" xmlns:xlink="http://www.w3.org/1999/xlink">
<g id="graph0" class="graph" transform="scale(1 1) rotate(0) translate(4 915.5)">
<title>koku_ocp_flow</title>
<polygon fill="white" stroke="none" points="-4,4 -4,-915.5 1218.97,-915.5 1218.97,4 -4,4"/>
<text xml:space="preserve" text-anchor="middle" x="607.48" y="-894.2" font-family="Helvetica,sans-Serif" font-weight="bold" font-size="14.00">Koku OCP Data Flow — Normal Pipeline + OSAC Integration</text>
<text xml:space="preserve" text-anchor="middle" x="607.48" y="-879.2" font-family="Helvetica,sans-Serif" font-weight="bold" font-size="14.00">(On&#45;Prem / Self&#45;Hosted)</text>
<g id="clust1" class="cluster">
<title>cluster_sources</title>
<polygon fill="none" stroke="gray" stroke-dasharray="5,2" points="773,-691 773,-865.5 1031,-865.5 1031,-691 773,-691"/>
<text xml:space="preserve" text-anchor="middle" x="902" y="-848.2" font-family="Helvetica,sans-Serif" font-weight="bold" font-size="14.00">Data Sources</text>
</g>
<g id="clust2" class="cluster">
<title>cluster_raw</title>
<polygon fill="#e3f2fd" stroke="#e3f2fd" points="167,-560.75 167,-643.75 1181,-643.75 1181,-560.75 167,-560.75"/>
<text xml:space="preserve" text-anchor="middle" x="674" y="-626.45" font-family="Helvetica,sans-Serif" font-weight="bold" font-size="14.00">Raw Line Item Tables (per&#45;tenant schema)</text>
</g>
<g id="clust3" class="cluster">
<title>cluster_daily</title>
<polygon fill="#f3e5f5" stroke="#f3e5f5" points="167,-458 167,-533 1040,-533 1040,-458 167,-458"/>
<text xml:space="preserve" text-anchor="middle" x="603.5" y="-515.7" font-family="Helvetica,sans-Serif" font-weight="bold" font-size="14.00">Daily Aggregated Tables</text>
</g>
<g id="clust4" class="cluster">
<title>cluster_summary</title>
<polygon fill="#fff9c4" stroke="#fff9c4" points="466,-215.25 466,-410.75 742,-410.75 742,-215.25 466,-215.25"/>
<text xml:space="preserve" text-anchor="middle" x="604" y="-393.45" font-family="Helvetica,sans-Serif" font-weight="bold" font-size="14.00">Summarization Pipeline</text>
</g>
<g id="clust5" class="cluster">
<title>cluster_cost</title>
<polygon fill="#ffebee" stroke="#ffebee" points="8,-89 8,-298.25 175,-298.25 175,-89 8,-89"/>
<text xml:space="preserve" text-anchor="middle" x="91.5" y="-280.95" font-family="Helvetica,sans-Serif" font-weight="bold" font-size="14.00">Cost Model Application</text>
</g>
<g id="clust6" class="cluster">
<title>cluster_ui</title>
<polygon fill="#e8eaf6" stroke="#e8eaf6" points="183,-85 183,-168 1152,-168 1152,-85 183,-85"/>
<text xml:space="preserve" text-anchor="middle" x="667.5" y="-150.7" font-family="Helvetica,sans-Serif" font-weight="bold" font-size="14.00">UI Summary Tables (12+)</text>
</g>
<!-- cmmo -->
<g id="node1" class="node">
<title>cmmo</title>
<polygon fill="#e8f5e9" stroke="black" points="889.12,-834.5 780.88,-834.5 780.88,-790.5 889.12,-790.5 889.12,-834.5"/>
<text xml:space="preserve" text-anchor="middle" x="835" y="-820.05" font-family="Helvetica,sans-Serif" font-size="11.00">CMMO</text>
<text xml:space="preserve" text-anchor="middle" x="835" y="-808.05" font-family="Helvetica,sans-Serif" font-size="11.00">(Cost Management</text>
<text xml:space="preserve" text-anchor="middle" x="835" y="-796.05" font-family="Helvetica,sans-Serif" font-size="11.00">Metrics Operator)</text>
</g>
<!-- pod_raw -->
<g id="node4" class="node">
<title>pod_raw</title>
<polygon fill="#bbdefb" stroke="black" points="903.38,-608.75 784.62,-608.75 784.62,-572.75 903.38,-572.75 903.38,-608.75"/>
<text xml:space="preserve" text-anchor="middle" x="844" y="-592.3" font-family="Helvetica,sans-Serif" font-size="11.00">openshift_pod_usage</text>
<text xml:space="preserve" text-anchor="middle" x="844" y="-580.3" font-family="Helvetica,sans-Serif" font-size="11.00">_line_items</text>
</g>
<!-- cmmo&#45;&gt;pod_raw -->
<g id="edge1" class="edge">
<title>cmmo&#45;&gt;pod_raw</title>
<path fill="none" stroke="black" d="M815.22,-790.3C803.19,-775.91 788.94,-755.77 782.5,-735 776.71,-716.32 777.15,-709.81 782.5,-691 790.24,-663.81 807.79,-636.8 822.18,-617.83"/>
<polygon fill="black" stroke="black" points="824.79,-620.17 828.2,-610.14 819.28,-615.86 824.79,-620.17"/>
<text xml:space="preserve" text-anchor="middle" x="813.25" y="-718.2" font-family="Helvetica,sans-Serif" font-size="9.00">CSV upload</text>
<text xml:space="preserve" text-anchor="middle" x="813.25" y="-708.45" font-family="Helvetica,sans-Serif" font-size="9.00">(Kafka/Ingress)</text>
</g>
<!-- storage_raw -->
<g id="node5" class="node">
<title>storage_raw</title>
<polygon fill="#bbdefb" stroke="black" points="311.38,-608.75 174.62,-608.75 174.62,-572.75 311.38,-572.75 311.38,-608.75"/>
<text xml:space="preserve" text-anchor="middle" x="243" y="-592.3" font-family="Helvetica,sans-Serif" font-size="11.00">openshift_storage_usage</text>
<text xml:space="preserve" text-anchor="middle" x="243" y="-580.3" font-family="Helvetica,sans-Serif" font-size="11.00">_line_items</text>
</g>
<!-- cmmo&#45;&gt;storage_raw -->
<g id="edge2" class="edge">
<title>cmmo&#45;&gt;storage_raw</title>
<path fill="none" stroke="black" d="M780.62,-799.76C747.86,-792.45 705.38,-782.55 668,-772.5 508.74,-729.68 465.54,-721.31 320,-643.75 304.76,-635.63 288.81,-625.21 275.4,-615.84"/>
<polygon fill="black" stroke="black" points="277.54,-613.06 267.37,-610.12 273.48,-618.77 277.54,-613.06"/>
</g>
<!-- node_labels -->
<g id="node6" class="node">
<title>node_labels</title>
<polygon fill="#bbdefb" stroke="black" points="452.62,-608.75 329.38,-608.75 329.38,-572.75 452.62,-572.75 452.62,-608.75"/>
<text xml:space="preserve" text-anchor="middle" x="391" y="-592.3" font-family="Helvetica,sans-Serif" font-size="11.00">openshift_node_labels</text>
<text xml:space="preserve" text-anchor="middle" x="391" y="-580.3" font-family="Helvetica,sans-Serif" font-size="11.00">_line_items</text>
</g>
<!-- cmmo&#45;&gt;node_labels -->
<g id="edge3" class="edge">
<title>cmmo&#45;&gt;node_labels</title>
<path fill="none" stroke="black" d="M780.59,-796.14C759.24,-789.59 734.7,-781.4 713,-772.5 673.05,-756.11 523.68,-681.91 462,-643.75 448.33,-635.29 433.91,-625.01 421.66,-615.82"/>
<polygon fill="black" stroke="black" points="424.05,-613.24 413.97,-609.98 419.81,-618.82 424.05,-613.24"/>
</g>
<!-- ns_labels -->
<g id="node7" class="node">
<title>ns_labels</title>
<polygon fill="#bbdefb" stroke="black" points="625.38,-608.75 470.62,-608.75 470.62,-572.75 625.38,-572.75 625.38,-608.75"/>
<text xml:space="preserve" text-anchor="middle" x="548" y="-592.3" font-family="Helvetica,sans-Serif" font-size="11.00">openshift_namespace_labels</text>
<text xml:space="preserve" text-anchor="middle" x="548" y="-580.3" font-family="Helvetica,sans-Serif" font-size="11.00">_line_items</text>
</g>
<!-- cmmo&#45;&gt;ns_labels -->
<g id="edge4" class="edge">
<title>cmmo&#45;&gt;ns_labels</title>
<path fill="none" stroke="black" d="M780.38,-792.03C767.67,-786.51 754.51,-779.94 743,-772.5 672.85,-727.12 604.42,-655.56 570.35,-617.52"/>
<polygon fill="black" stroke="black" points="573.09,-615.34 563.83,-610.18 567.85,-619.99 573.09,-615.34"/>
</g>
<!-- vm_raw -->
<g id="node8" class="node">
<title>vm_raw</title>
<polygon fill="#bbdefb" stroke="black" points="1036.5,-608.75 921.5,-608.75 921.5,-572.75 1036.5,-572.75 1036.5,-608.75"/>
<text xml:space="preserve" text-anchor="middle" x="979" y="-592.3" font-family="Helvetica,sans-Serif" font-size="11.00">openshift_vm_usage</text>
<text xml:space="preserve" text-anchor="middle" x="979" y="-580.3" font-family="Helvetica,sans-Serif" font-size="11.00">_line_items</text>
</g>
<!-- cmmo&#45;&gt;vm_raw -->
<g id="edge5" class="edge">
<title>cmmo&#45;&gt;vm_raw</title>
<path fill="none" stroke="black" d="M790.61,-790.13C769.41,-777.35 746.11,-758.9 734.25,-735 725.56,-717.48 725.39,-708.43 734.25,-691 747.65,-664.63 760.19,-661.83 788,-651.75 839.92,-632.94 860.36,-663.32 912,-643.75 927.58,-637.85 942.48,-627 954.25,-616.74"/>
<polygon fill="black" stroke="black" points="956.47,-619.45 961.49,-610.12 951.75,-614.28 956.47,-619.45"/>
<text xml:space="preserve" text-anchor="middle" x="754.12" y="-713.33" font-family="Helvetica,sans-Serif" font-size="9.00">VM report</text>
</g>
<!-- gpu_raw -->
<g id="node9" class="node">
<title>gpu_raw</title>
<polygon fill="#bbdefb" stroke="black" points="1173.38,-608.75 1054.62,-608.75 1054.62,-572.75 1173.38,-572.75 1173.38,-608.75"/>
<text xml:space="preserve" text-anchor="middle" x="1114" y="-592.3" font-family="Helvetica,sans-Serif" font-size="11.00">openshift_gpu_usage</text>
<text xml:space="preserve" text-anchor="middle" x="1114" y="-580.3" font-family="Helvetica,sans-Serif" font-size="11.00">_line_items</text>
</g>
<!-- cmmo&#45;&gt;gpu_raw -->
<g id="edge6" class="edge">
<title>cmmo&#45;&gt;gpu_raw</title>
<path fill="none" stroke="black" d="M836.54,-790.01C839.54,-763.5 848.35,-718.59 874.25,-691 906.57,-656.56 927.17,-663.15 973,-651.75 1004.67,-643.87 1015.7,-655.89 1046,-643.75 1061.5,-637.54 1076.49,-626.76 1088.44,-616.63"/>
<polygon fill="black" stroke="black" points="1090.65,-619.35 1095.81,-610.09 1086,-614.11 1090.65,-619.35"/>
<text xml:space="preserve" text-anchor="middle" x="897.12" y="-713.33" font-family="Helvetica,sans-Serif" font-size="9.00">GPU report</text>
</g>
<!-- osac_consumer -->
<g id="node2" class="node">
<title>osac_consumer</title>
<polygon fill="#fff3e0" stroke="black" stroke-width="2" points="1023.25,-830.5 906.75,-830.5 906.75,-794.5 1023.25,-794.5 1023.25,-830.5"/>
<text xml:space="preserve" text-anchor="middle" x="965" y="-814.05" font-family="Helvetica,sans-Serif" font-size="11.00">cost&#45;event&#45;consumer</text>
<text xml:space="preserve" text-anchor="middle" x="965" y="-802.05" font-family="Helvetica,sans-Serif" font-size="11.00">(our Go service)</text>
</g>
<!-- koku_sync -->
<g id="node3" class="node">
<title>koku_sync</title>
<polygon fill="#fff3e0" stroke="black" stroke-width="2" points="1022.62,-735 929.38,-735 929.38,-699 1022.62,-699 1022.62,-735"/>
<text xml:space="preserve" text-anchor="middle" x="976" y="-718.55" font-family="Helvetica,sans-Serif" font-size="11.00">koku&#45;sync</text>
<text xml:space="preserve" text-anchor="middle" x="976" y="-706.55" font-family="Helvetica,sans-Serif" font-size="11.00">(new Go binary)</text>
</g>
<!-- osac_consumer&#45;&gt;koku_sync -->
<g id="edge39" class="edge">
<title>osac_consumer&#45;&gt;koku_sync</title>
<path fill="none" stroke="#e65100" stroke-width="2" d="M967.02,-794.35C968.54,-781.38 970.68,-763.26 972.48,-747.92"/>
<polygon fill="#e65100" stroke="#e65100" stroke-width="2" points="975.91,-748.7 973.6,-738.36 968.96,-747.89 975.91,-748.7"/>
<text xml:space="preserve" text-anchor="middle" x="996.56" y="-763.95" font-family="Helvetica,sans-Serif" font-size="9.00">reads</text>
<text xml:space="preserve" text-anchor="middle" x="996.56" y="-754.2" font-family="Helvetica,sans-Serif" font-size="9.00">cost_entries</text>
</g>
<!-- koku_sync&#45;&gt;vm_raw -->
<g id="edge42" class="edge">
<title>koku_sync&#45;&gt;vm_raw</title>
<path fill="none" stroke="#e65100" stroke-dasharray="5,2" d="M976.42,-698.72C976.91,-678.42 977.73,-644.42 978.31,-620.2"/>
<polygon fill="#e65100" stroke="#e65100" points="981.81,-620.47 978.55,-610.39 974.81,-620.31 981.81,-620.47"/>
<text xml:space="preserve" text-anchor="middle" x="1006" y="-672.45" font-family="Helvetica,sans-Serif" font-size="9.00">VM data</text>
<text xml:space="preserve" text-anchor="middle" x="1006" y="-662.7" font-family="Helvetica,sans-Serif" font-size="9.00">(future: use</text>
<text xml:space="preserve" text-anchor="middle" x="1006" y="-652.95" font-family="Helvetica,sans-Serif" font-size="9.00">existing table)</text>
</g>
<!-- osac_raw -->
<g id="node10" class="node">
<title>osac_raw</title>
<polygon fill="#ffe0b2" stroke="black" stroke-width="2" points="766.62,-612.75 643.38,-612.75 643.38,-568.75 766.62,-568.75 766.62,-612.75"/>
<text xml:space="preserve" text-anchor="middle" x="705" y="-598.3" font-family="Helvetica,sans-Serif" font-size="11.00">openshift_osac_usage</text>
<text xml:space="preserve" text-anchor="middle" x="705" y="-586.3" font-family="Helvetica,sans-Serif" font-size="11.00">_line_items_daily</text>
<text xml:space="preserve" text-anchor="middle" x="705" y="-574.3" font-family="Helvetica,sans-Serif" font-size="11.00">(NEW — MaaS data)</text>
</g>
<!-- koku_sync&#45;&gt;osac_raw -->
<g id="edge40" class="edge">
<title>koku_sync&#45;&gt;osac_raw</title>
<path fill="none" stroke="#e65100" stroke-width="2" d="M935.16,-698.54C928.78,-695.94 922.23,-693.35 916,-691 854.54,-667.86 834.29,-674.01 776,-643.75 763.67,-637.35 751.14,-628.93 740.11,-620.74"/>
<polygon fill="#e65100" stroke="#e65100" stroke-width="2" points="742.51,-618.18 732.45,-614.87 738.26,-623.73 742.51,-618.18"/>
<text xml:space="preserve" text-anchor="middle" x="909.23" y="-667.58" font-family="Helvetica,sans-Serif" font-size="9.00">writes daily</text>
<text xml:space="preserve" text-anchor="middle" x="909.23" y="-657.83" font-family="Helvetica,sans-Serif" font-size="9.00">OSAC data</text>
</g>
<!-- pod_daily -->
<g id="node11" class="node">
<title>pod_daily</title>
<polygon fill="#ce93d8" stroke="black" points="762.38,-502 643.62,-502 643.62,-466 762.38,-466 762.38,-502"/>
<text xml:space="preserve" text-anchor="middle" x="703" y="-485.55" font-family="Helvetica,sans-Serif" font-size="11.00">openshift_pod_usage</text>
<text xml:space="preserve" text-anchor="middle" x="703" y="-473.55" font-family="Helvetica,sans-Serif" font-size="11.00">_line_items_daily</text>
</g>
<!-- pod_raw&#45;&gt;pod_daily -->
<g id="edge7" class="edge">
<title>pod_raw&#45;&gt;pod_daily</title>
<path fill="none" stroke="black" d="M820.72,-572.45C797.45,-555.17 761.48,-528.45 735.43,-509.09"/>
<polygon fill="black" stroke="black" points="737.65,-506.38 727.53,-503.23 733.47,-512 737.65,-506.38"/>
<text xml:space="preserve" text-anchor="middle" x="809.03" y="-542.2" font-family="Helvetica,sans-Serif" font-size="9.00">daily agg</text>
</g>
<!-- staging -->
<g id="node17" class="node">
<title>staging</title>
<polygon fill="#fff59d" stroke="black" points="622,-379.75 474,-379.75 474,-343.75 622,-343.75 622,-379.75"/>
<text xml:space="preserve" text-anchor="middle" x="548" y="-363.3" font-family="Helvetica,sans-Serif" font-size="11.00">reporting_ocpusagelineitem</text>
<text xml:space="preserve" text-anchor="middle" x="548" y="-351.3" font-family="Helvetica,sans-Serif" font-size="11.00">_daily_summary_staging</text>
</g>
<!-- pod_raw&#45;&gt;staging -->
<g id="edge17" class="edge">
<title>pod_raw&#45;&gt;staging</title>
<path fill="none" stroke="black" stroke-dasharray="5,2" d="M881.84,-572.33C891.84,-568.15 902.71,-563.97 913,-560.75 969.8,-542.97 1006.53,-579.24 1044,-533 1064.99,-507.1 1065.35,-483.6 1044,-458 981.79,-383.4 925.54,-429.46 829,-418.75 785.23,-413.89 673.29,-423.02 631,-410.75 613.2,-405.59 595.19,-395.84 580.52,-386.47"/>
<polygon fill="black" stroke="black" points="582.46,-383.56 572.19,-380.94 578.59,-389.39 582.46,-383.56"/>
<text xml:space="preserve" text-anchor="middle" x="1088.38" y="-485.2" font-family="Helvetica,sans-Serif" font-size="9.00">node capacity</text>
<text xml:space="preserve" text-anchor="middle" x="1088.38" y="-475.45" font-family="Helvetica,sans-Serif" font-size="9.00">CTE</text>
</g>
<!-- storage_daily -->
<g id="node12" class="node">
<title>storage_daily</title>
<polygon fill="#ce93d8" stroke="black" points="311.38,-502 174.62,-502 174.62,-466 311.38,-466 311.38,-502"/>
<text xml:space="preserve" text-anchor="middle" x="243" y="-485.55" font-family="Helvetica,sans-Serif" font-size="11.00">openshift_storage_usage</text>
<text xml:space="preserve" text-anchor="middle" x="243" y="-473.55" font-family="Helvetica,sans-Serif" font-size="11.00">_line_items_daily</text>
</g>
<!-- storage_raw&#45;&gt;storage_daily -->
<g id="edge8" class="edge">
<title>storage_raw&#45;&gt;storage_daily</title>
<path fill="none" stroke="black" d="M243,-572.45C243,-556.53 243,-532.61 243,-513.8"/>
<polygon fill="black" stroke="black" points="246.5,-513.84 243,-503.84 239.5,-513.84 246.5,-513.84"/>
</g>
<!-- node_labels_daily -->
<g id="node13" class="node">
<title>node_labels_daily</title>
<polygon fill="#ce93d8" stroke="black" points="452.62,-502 329.38,-502 329.38,-466 452.62,-466 452.62,-502"/>
<text xml:space="preserve" text-anchor="middle" x="391" y="-485.55" font-family="Helvetica,sans-Serif" font-size="11.00">openshift_node_labels</text>
<text xml:space="preserve" text-anchor="middle" x="391" y="-473.55" font-family="Helvetica,sans-Serif" font-size="11.00">_line_items_daily</text>
</g>
<!-- node_labels&#45;&gt;node_labels_daily -->
<g id="edge9" class="edge">
<title>node_labels&#45;&gt;node_labels_daily</title>
<path fill="none" stroke="black" d="M391,-572.45C391,-556.53 391,-532.61 391,-513.8"/>
<polygon fill="black" stroke="black" points="394.5,-513.84 391,-503.84 387.5,-513.84 394.5,-513.84"/>
</g>
<!-- ns_labels_daily -->
<g id="node14" class="node">
<title>ns_labels_daily</title>
<polygon fill="#ce93d8" stroke="black" points="625.38,-502 470.62,-502 470.62,-466 625.38,-466 625.38,-502"/>
<text xml:space="preserve" text-anchor="middle" x="548" y="-485.55" font-family="Helvetica,sans-Serif" font-size="11.00">openshift_namespace_labels</text>
<text xml:space="preserve" text-anchor="middle" x="548" y="-473.55" font-family="Helvetica,sans-Serif" font-size="11.00">_line_items_daily</text>
</g>
<!-- ns_labels&#45;&gt;ns_labels_daily -->
<g id="edge10" class="edge">
<title>ns_labels&#45;&gt;ns_labels_daily</title>
<path fill="none" stroke="black" d="M548,-572.45C548,-556.53 548,-532.61 548,-513.8"/>
<polygon fill="black" stroke="black" points="551.5,-513.84 548,-503.84 544.5,-513.84 551.5,-513.84"/>
</g>
<!-- vm_daily -->
<g id="node15" class="node">
<title>vm_daily</title>
<polygon fill="#ce93d8" stroke="black" points="895.5,-502 780.5,-502 780.5,-466 895.5,-466 895.5,-502"/>
<text xml:space="preserve" text-anchor="middle" x="838" y="-485.55" font-family="Helvetica,sans-Serif" font-size="11.00">openshift_vm_usage</text>
<text xml:space="preserve" text-anchor="middle" x="838" y="-473.55" font-family="Helvetica,sans-Serif" font-size="11.00">_line_items_daily</text>
</g>
<!-- vm_raw&#45;&gt;vm_daily -->
<g id="edge11" class="edge">
<title>vm_raw&#45;&gt;vm_daily</title>
<path fill="none" stroke="black" d="M955.72,-572.45C932.45,-555.17 896.48,-528.45 870.43,-509.09"/>
<polygon fill="black" stroke="black" points="872.65,-506.38 862.53,-503.23 868.47,-512 872.65,-506.38"/>
</g>
<!-- daily_summary -->
<g id="node18" class="node">
<title>daily_summary</title>
<polygon fill="#ffd54f" stroke="black" stroke-width="2" points="622,-267.25 474,-267.25 474,-223.25 622,-223.25 622,-267.25"/>
<text xml:space="preserve" text-anchor="middle" x="548" y="-252.8" font-family="Helvetica,sans-Serif" font-size="11.00">reporting_ocpusagelineitem</text>
<text xml:space="preserve" text-anchor="middle" x="548" y="-240.8" font-family="Helvetica,sans-Serif" font-size="11.00">_daily_summary</text>
<text xml:space="preserve" text-anchor="middle" x="548" y="-228.8" font-family="Helvetica,sans-Serif" font-size="11.00">(main fact table)</text>
</g>
<!-- vm_raw&#45;&gt;daily_summary -->
<g id="edge27" class="edge">
<title>vm_raw&#45;&gt;daily_summary</title>
<path fill="none" stroke="red" stroke-dasharray="5,2" d="M945,-572.38C934.66,-567.82 923.09,-563.44 912,-560.75 785.59,-530.08 749.96,-546.53 620,-541 607.32,-540.46 171.9,-542.06 163,-533 51.8,-419.84 318.86,-316.42 463.12,-270.82"/>
<polygon fill="red" stroke="red" points="463.77,-274.28 472.26,-267.96 461.67,-267.6 463.77,-274.28"/>
<text xml:space="preserve" text-anchor="middle" x="214.12" y="-439.45" font-family="Helvetica,sans-Serif" font-size="9.00">vm_cost_per_hour</text>
<text xml:space="preserve" text-anchor="middle" x="214.12" y="-429.7" font-family="Helvetica,sans-Serif" font-size="9.00">vm_core_cost_per_hour</text>
<text xml:space="preserve" text-anchor="middle" x="214.12" y="-419.95" font-family="Helvetica,sans-Serif" font-size="9.00">(JOIN)</text>
</g>
<!-- vm_tmp -->
<g id="node19" class="node">
<title>vm_tmp</title>
<polygon fill="#fff59d" stroke="black" points="733.62,-379.75 640.38,-379.75 640.38,-343.75 733.62,-343.75 733.62,-379.75"/>
<text xml:space="preserve" text-anchor="middle" x="687" y="-363.3" font-family="Helvetica,sans-Serif" font-size="11.00">tmp_virt_{uuid}</text>
<text xml:space="preserve" text-anchor="middle" x="687" y="-351.3" font-family="Helvetica,sans-Serif" font-size="11.00">(VM temp table)</text>
</g>
<!-- vm_raw&#45;&gt;vm_tmp -->
<g id="edge19" class="edge">
<title>vm_raw&#45;&gt;vm_tmp</title>
<path fill="none" stroke="black" d="M1016.9,-572.27C1026.31,-568.23 1036.44,-564.13 1046,-560.75 1082.67,-547.79 1106.88,-565 1129,-533 1147.95,-505.58 1143.12,-488.19 1129,-458 1117.47,-433.35 1106.87,-429.81 1082,-418.75 1022.91,-392.48 839.9,-374.74 745.16,-367.06"/>
<polygon fill="black" stroke="black" points="745.54,-363.58 735.29,-366.28 744.98,-370.56 745.54,-363.58"/>
<text xml:space="preserve" text-anchor="middle" x="1178.22" y="-485.2" font-family="Helvetica,sans-Serif" font-size="9.00">populate_vm_tmp</text>
<text xml:space="preserve" text-anchor="middle" x="1178.22" y="-475.45" font-family="Helvetica,sans-Serif" font-size="9.00">_table.sql</text>
</g>
<!-- gpu_daily -->
<g id="node16" class="node">
<title>gpu_daily</title>
<polygon fill="#ce93d8" stroke="black" points="1032.38,-502 913.62,-502 913.62,-466 1032.38,-466 1032.38,-502"/>
<text xml:space="preserve" text-anchor="middle" x="973" y="-485.55" font-family="Helvetica,sans-Serif" font-size="11.00">openshift_gpu_usage</text>
<text xml:space="preserve" text-anchor="middle" x="973" y="-473.55" font-family="Helvetica,sans-Serif" font-size="11.00">_line_items_daily</text>
</g>
<!-- gpu_raw&#45;&gt;gpu_daily -->
<g id="edge12" class="edge">
<title>gpu_raw&#45;&gt;gpu_daily</title>
<path fill="none" stroke="black" d="M1090.72,-572.45C1067.45,-555.17 1031.48,-528.45 1005.43,-509.09"/>
<polygon fill="black" stroke="black" points="1007.65,-506.38 997.53,-503.23 1003.47,-512 1007.65,-506.38"/>
</g>
<!-- osac_raw&#45;&gt;staging -->
<g id="edge41" class="edge">
<title>osac_raw&#45;&gt;staging</title>
<path fill="none" stroke="#e65100" stroke-width="2" d="M658.74,-568.27C650.64,-565.26 642.19,-562.58 634,-560.75 575.61,-547.71 137.45,-576.38 96.25,-533 60.19,-495.03 79.96,-445.45 125,-418.75 180.19,-386.03 354.34,-371.95 461.21,-366.27"/>
<polygon fill="#e65100" stroke="#e65100" stroke-width="2" points="461.06,-369.78 470.87,-365.77 460.7,-362.79 461.06,-369.78"/>
<text xml:space="preserve" text-anchor="middle" x="129.62" y="-485.2" font-family="Helvetica,sans-Serif" font-size="9.00">OSAC UNION</text>
<text xml:space="preserve" text-anchor="middle" x="129.62" y="-475.45" font-family="Helvetica,sans-Serif" font-size="9.00">(new SQL block)</text>
</g>
<!-- pod_daily&#45;&gt;staging -->
<g id="edge13" class="edge">
<title>pod_daily&#45;&gt;staging</title>
<path fill="none" stroke="black" d="M680.46,-465.51C653.75,-444.79 609.1,-410.15 579.11,-386.89"/>
<polygon fill="black" stroke="black" points="581.56,-384.35 571.51,-380.99 577.27,-389.88 581.56,-384.35"/>
<text xml:space="preserve" text-anchor="middle" x="687.57" y="-434.57" font-family="Helvetica,sans-Serif" font-size="9.00">Pod UNION</text>
<text xml:space="preserve" text-anchor="middle" x="687.57" y="-424.82" font-family="Helvetica,sans-Serif" font-size="9.00">(SQL template)</text>
</g>
<!-- storage_daily&#45;&gt;staging -->
<g id="edge14" class="edge">
<title>storage_daily&#45;&gt;staging</title>
<path fill="none" stroke="black" d="M273.71,-465.54C298.87,-451.69 335.66,-432.45 369.25,-418.75 402.53,-405.18 440.38,-392.89 472.66,-383.31"/>
<polygon fill="black" stroke="black" points="473.32,-386.76 481.93,-380.59 471.35,-380.04 473.32,-386.76"/>
<text xml:space="preserve" text-anchor="middle" x="401.12" y="-429.7" font-family="Helvetica,sans-Serif" font-size="9.00">Storage UNION</text>
</g>
<!-- node_labels_daily&#45;&gt;staging -->
<g id="edge15" class="edge">
<title>node_labels_daily&#45;&gt;staging</title>
<path fill="none" stroke="black" d="M413.83,-465.51C440.88,-444.79 486.11,-410.15 516.48,-386.89"/>
<polygon fill="black" stroke="black" points="518.39,-389.84 524.2,-380.98 514.13,-384.28 518.39,-389.84"/>
<text xml:space="preserve" text-anchor="middle" x="499.33" y="-434.57" font-family="Helvetica,sans-Serif" font-size="9.00">label merge</text>
<text xml:space="preserve" text-anchor="middle" x="499.33" y="-424.82" font-family="Helvetica,sans-Serif" font-size="9.00">(LEFT JOIN)</text>
</g>
<!-- ns_labels_daily&#45;&gt;staging -->
<g id="edge16" class="edge">
<title>ns_labels_daily&#45;&gt;staging</title>
<path fill="none" stroke="black" d="M548,-465.51C548,-446.08 548,-414.4 548,-391.34"/>
<polygon fill="black" stroke="black" points="551.5,-391.38 548,-381.38 544.5,-391.38 551.5,-391.38"/>
<text xml:space="preserve" text-anchor="middle" x="572.38" y="-429.7" font-family="Helvetica,sans-Serif" font-size="9.00">label merge</text>
</g>
<!-- vm_daily&#45;&gt;vm_tmp -->
<g id="edge20" class="edge">
<title>vm_daily&#45;&gt;vm_tmp</title>
<path fill="none" stroke="black" stroke-dasharray="5,2" d="M816.04,-465.51C790.06,-444.82 746.65,-410.26 717.44,-386.99"/>
<polygon fill="black" stroke="black" points="719.68,-384.3 709.68,-380.81 715.32,-389.78 719.68,-384.3"/>
<text xml:space="preserve" text-anchor="middle" x="809.13" y="-429.7" font-family="Helvetica,sans-Serif" font-size="9.00">fallback</text>
</g>
<!-- gpu_summary -->
<g id="node28" class="node">
<title>gpu_summary</title>
<polygon fill="#9fa8da" stroke="black" points="1144.12,-133 1041.88,-133 1041.88,-97 1144.12,-97 1144.12,-133"/>
<text xml:space="preserve" text-anchor="middle" x="1093" y="-116.55" font-family="Helvetica,sans-Serif" font-size="11.00">reporting_ocp</text>
<text xml:space="preserve" text-anchor="middle" x="1093" y="-104.55" font-family="Helvetica,sans-Serif" font-size="11.00">_gpu_summary_p</text>
</g>
<!-- gpu_daily&#45;&gt;gpu_summary -->
<g id="edge23" class="edge">
<title>gpu_daily&#45;&gt;gpu_summary</title>
<path fill="none" stroke="black" d="M978.63,-465.79C997.72,-407.4 1060.16,-216.43 1083.81,-144.1"/>
<polygon fill="black" stroke="black" points="1087.13,-145.2 1086.91,-134.61 1080.48,-143.03 1087.13,-145.2"/>
<text xml:space="preserve" text-anchor="middle" x="1048.23" y="-317.2" font-family="Helvetica,sans-Serif" font-size="9.00">separate</text>
<text xml:space="preserve" text-anchor="middle" x="1048.23" y="-307.45" font-family="Helvetica,sans-Serif" font-size="9.00">SQL</text>
</g>
<!-- staging&#45;&gt;daily_summary -->
<g id="edge18" class="edge">
<title>staging&#45;&gt;daily_summary</title>
<path fill="none" stroke="black" d="M548,-343.36C548,-326.34 548,-299.98 548,-279.02"/>
<polygon fill="black" stroke="black" points="551.5,-279.23 548,-269.23 544.5,-279.23 551.5,-279.23"/>
<text xml:space="preserve" text-anchor="middle" x="571.62" y="-317.2" font-family="Helvetica,sans-Serif" font-size="9.00">copy + uuid</text>
<text xml:space="preserve" text-anchor="middle" x="571.62" y="-307.45" font-family="Helvetica,sans-Serif" font-size="9.00">generation</text>
</g>
<!-- rates_to_usage -->
<g id="node21" class="node">
<title>rates_to_usage</title>
<polygon fill="#ef9a9a" stroke="black" points="167.25,-133 56.75,-133 56.75,-97 167.25,-97 167.25,-133"/>
<text xml:space="preserve" text-anchor="middle" x="112" y="-116.55" font-family="Helvetica,sans-Serif" font-size="11.00">rates_to_usage</text>
<text xml:space="preserve" text-anchor="middle" x="112" y="-104.55" font-family="Helvetica,sans-Serif" font-size="11.00">(per&#45;rate cost rows)</text>
</g>
<!-- daily_summary&#45;&gt;rates_to_usage -->
<g id="edge24" class="edge">
<title>daily_summary&#45;&gt;rates_to_usage</title>
<path fill="none" stroke="black" d="M473.64,-239.04C426.03,-234.01 363.56,-224.21 311,-205.25 286.78,-196.51 285.49,-183.93 261,-176 226.16,-164.72 213.02,-181.54 179,-168 163.63,-161.88 148.84,-151.12 137.09,-140.97"/>
<polygon fill="black" stroke="black" points="139.62,-138.54 129.86,-134.42 134.93,-143.73 139.62,-138.54"/>
<text xml:space="preserve" text-anchor="middle" x="336.5" y="-191.82" font-family="Helvetica,sans-Serif" font-size="9.00">usage_rates</text>
<text xml:space="preserve" text-anchor="middle" x="336.5" y="-182.07" font-family="Helvetica,sans-Serif" font-size="9.00">SQL</text>
</g>
<!-- cost_summary -->
<g id="node22" class="node">
<title>cost_summary</title>
<polygon fill="#9fa8da" stroke="black" points="294.88,-133 191.12,-133 191.12,-97 294.88,-97 294.88,-133"/>
<text xml:space="preserve" text-anchor="middle" x="243" y="-116.55" font-family="Helvetica,sans-Serif" font-size="11.00">reporting_ocp</text>
<text xml:space="preserve" text-anchor="middle" x="243" y="-104.55" font-family="Helvetica,sans-Serif" font-size="11.00">_cost_summary_p</text>
</g>
<!-- daily_summary&#45;&gt;cost_summary -->
<g id="edge28" class="edge">
<title>daily_summary&#45;&gt;cost_summary</title>
<path fill="none" stroke="black" d="M473.82,-231.53C449.5,-225.59 422.93,-217.13 400.25,-205.25 382.52,-195.96 384.3,-184.12 366,-176 340.6,-164.73 329.4,-179.26 304,-168 290.08,-161.83 276.92,-151.44 266.42,-141.57"/>
<polygon fill="black" stroke="black" points="268.9,-139.1 259.33,-134.56 263.98,-144.08 268.9,-139.1"/>
<text xml:space="preserve" text-anchor="middle" x="439.62" y="-191.82" font-family="Helvetica,sans-Serif" font-size="9.00">populate_ui</text>
<text xml:space="preserve" text-anchor="middle" x="439.62" y="-182.07" font-family="Helvetica,sans-Serif" font-size="9.00">_summary_tables()</text>
</g>
<!-- cost_by_project -->
<g id="node23" class="node">
<title>cost_by_project</title>
<polygon fill="#9fa8da" stroke="black" points="404.88,-137 313.12,-137 313.12,-93 404.88,-93 404.88,-137"/>
<text xml:space="preserve" text-anchor="middle" x="359" y="-122.55" font-family="Helvetica,sans-Serif" font-size="11.00">reporting_ocp</text>
<text xml:space="preserve" text-anchor="middle" x="359" y="-110.55" font-family="Helvetica,sans-Serif" font-size="11.00">_cost_summary</text>
<text xml:space="preserve" text-anchor="middle" x="359" y="-98.55" font-family="Helvetica,sans-Serif" font-size="11.00">_by_project_p</text>
</g>
<!-- daily_summary&#45;&gt;cost_by_project -->
<g id="edge29" class="edge">
<title>daily_summary&#45;&gt;cost_by_project</title>
<path fill="none" stroke="black" d="M530.64,-223.06C515.51,-205.18 494.28,-181.62 483,-176 455.37,-162.22 441.98,-181.05 414,-168 402.72,-162.74 392.26,-154.25 383.55,-145.65"/>
<polygon fill="black" stroke="black" points="386.24,-143.4 376.81,-138.56 381.17,-148.22 386.24,-143.4"/>
</g>
<!-- cost_by_node -->
<g id="node24" class="node">
<title>cost_by_node</title>
<polygon fill="#9fa8da" stroke="black" points="514.88,-137 423.12,-137 423.12,-93 514.88,-93 514.88,-137"/>
<text xml:space="preserve" text-anchor="middle" x="469" y="-122.55" font-family="Helvetica,sans-Serif" font-size="11.00">reporting_ocp</text>
<text xml:space="preserve" text-anchor="middle" x="469" y="-110.55" font-family="Helvetica,sans-Serif" font-size="11.00">_cost_summary</text>
<text xml:space="preserve" text-anchor="middle" x="469" y="-98.55" font-family="Helvetica,sans-Serif" font-size="11.00">_by_node_p</text>
</g>
<!-- daily_summary&#45;&gt;cost_by_node -->
<g id="edge30" class="edge">
<title>daily_summary&#45;&gt;cost_by_node</title>
<path fill="none" stroke="black" d="M539.51,-223.01C533.65,-209.2 525.26,-191.05 516,-176 509.76,-165.86 502.1,-155.43 494.79,-146.17"/>
<polygon fill="black" stroke="black" points="497.62,-144.11 488.61,-138.53 492.18,-148.51 497.62,-144.11"/>
</g>
<!-- pod_summary -->
<g id="node25" class="node">
<title>pod_summary</title>
<polygon fill="#9fa8da" stroke="black" points="635.12,-133 532.88,-133 532.88,-97 635.12,-97 635.12,-133"/>
<text xml:space="preserve" text-anchor="middle" x="584" y="-116.55" font-family="Helvetica,sans-Serif" font-size="11.00">reporting_ocp</text>
<text xml:space="preserve" text-anchor="middle" x="584" y="-104.55" font-family="Helvetica,sans-Serif" font-size="11.00">_pod_summary_p</text>
</g>
<!-- daily_summary&#45;&gt;pod_summary -->
<g id="edge31" class="edge">
<title>daily_summary&#45;&gt;pod_summary</title>
<path fill="none" stroke="black" d="M554.03,-222.78C560.05,-201.31 569.36,-168.16 576,-144.49"/>
<polygon fill="black" stroke="black" points="579.37,-145.44 578.7,-134.87 572.63,-143.55 579.37,-145.44"/>
</g>
<!-- vm_summary -->
<g id="node26" class="node">
<title>vm_summary</title>
<polygon fill="#9fa8da" stroke="black" points="1024.25,-133 925.75,-133 925.75,-97 1024.25,-97 1024.25,-133"/>
<text xml:space="preserve" text-anchor="middle" x="975" y="-116.55" font-family="Helvetica,sans-Serif" font-size="11.00">reporting_ocp</text>
<text xml:space="preserve" text-anchor="middle" x="975" y="-104.55" font-family="Helvetica,sans-Serif" font-size="11.00">_vm_summary_p</text>
</g>
<!-- daily_summary&#45;&gt;vm_summary -->
<g id="edge21" class="edge">
<title>daily_summary&#45;&gt;vm_summary</title>
<path fill="none" stroke="black" d="M622.26,-230.29C658.73,-223.2 703.26,-214.22 743,-205.25 794.97,-193.52 806.96,-186.23 859.25,-176 884.25,-171.11 892.86,-178.65 916,-168 929.57,-161.76 942.31,-151.36 952.46,-141.49"/>
<polygon fill="black" stroke="black" points="954.79,-144.11 959.27,-134.52 949.78,-139.22 954.79,-144.11"/>
<text xml:space="preserve" text-anchor="middle" x="904.62" y="-196.7" font-family="Helvetica,sans-Serif" font-size="9.00">JOIN with</text>
<text xml:space="preserve" text-anchor="middle" x="904.62" y="-186.95" font-family="Helvetica,sans-Serif" font-size="9.00">vm_kubevirt_io_name</text>
<text xml:space="preserve" text-anchor="middle" x="904.62" y="-177.2" font-family="Helvetica,sans-Serif" font-size="9.00">label</text>
</g>
<!-- volume_summary -->
<g id="node27" class="node">
<title>volume_summary</title>
<polygon fill="#9fa8da" stroke="black" points="772.38,-133 653.62,-133 653.62,-97 772.38,-97 772.38,-133"/>
<text xml:space="preserve" text-anchor="middle" x="713" y="-116.55" font-family="Helvetica,sans-Serif" font-size="11.00">reporting_ocp</text>
<text xml:space="preserve" text-anchor="middle" x="713" y="-104.55" font-family="Helvetica,sans-Serif" font-size="11.00">_volume_summary_p</text>
</g>
<!-- daily_summary&#45;&gt;volume_summary -->
<g id="edge32" class="edge">
<title>daily_summary&#45;&gt;volume_summary</title>
<path fill="none" stroke="black" d="M575.62,-222.78C604.88,-200.04 651.01,-164.18 681.63,-140.38"/>
<polygon fill="black" stroke="black" points="683.65,-143.24 689.4,-134.34 679.36,-137.72 683.65,-143.24"/>
</g>
<!-- other_ui -->
<g id="node29" class="node">
<title>other_ui</title>
<polygon fill="#c5cae9" stroke="black" points="907.25,-133 790.75,-133 790.75,-97 907.25,-97 907.25,-133"/>
<text xml:space="preserve" text-anchor="middle" x="849" y="-116.55" font-family="Helvetica,sans-Serif" font-size="11.00">... network, by_node,</text>
<text xml:space="preserve" text-anchor="middle" x="849" y="-104.55" font-family="Helvetica,sans-Serif" font-size="11.00">by_project variants</text>
</g>
<!-- daily_summary&#45;&gt;other_ui -->
<g id="edge33" class="edge">
<title>daily_summary&#45;&gt;other_ui</title>
<path fill="none" stroke="black" d="M622.46,-226.76C669.52,-214.07 730.72,-194.47 781,-168 795.25,-160.5 809.62,-150.03 821.46,-140.45"/>
<polygon fill="black" stroke="black" points="823.36,-143.42 828.81,-134.33 818.89,-138.04 823.36,-143.42"/>
</g>
<!-- vm_tmp&#45;&gt;vm_summary -->
<g id="edge22" class="edge">
<title>vm_tmp&#45;&gt;vm_summary</title>
<path fill="none" stroke="black" d="M733.87,-345.45C793.07,-323.72 893.94,-278.24 950,-205.25 963.41,-187.79 969.63,-163.5 972.51,-144.67"/>
<polygon fill="black" stroke="black" points="975.95,-145.35 973.74,-134.98 969.01,-144.46 975.95,-145.35"/>
</g>
<!-- cost_model -->
<g id="node20" class="node">
<title>cost_model</title>
<polygon fill="#ef9a9a" stroke="black" points="164.62,-267.25 59.38,-267.25 59.38,-223.25 164.62,-223.25 164.62,-267.25"/>
<text xml:space="preserve" text-anchor="middle" x="112" y="-252.8" font-family="Helvetica,sans-Serif" font-size="11.00">cost_model +</text>
<text xml:space="preserve" text-anchor="middle" x="112" y="-240.8" font-family="Helvetica,sans-Serif" font-size="11.00">cost_model_rate +</text>
<text xml:space="preserve" text-anchor="middle" x="112" y="-228.8" font-family="Helvetica,sans-Serif" font-size="11.00">price_list</text>
</g>
<!-- cost_model&#45;&gt;rates_to_usage -->
<g id="edge25" class="edge">
<title>cost_model&#45;&gt;rates_to_usage</title>
<path fill="none" stroke="black" d="M112,-222.78C112,-201.41 112,-168.46 112,-144.82"/>
<polygon fill="black" stroke="black" points="115.5,-144.93 112,-134.93 108.5,-144.93 115.5,-144.93"/>
<text xml:space="preserve" text-anchor="middle" x="134.88" y="-186.95" font-family="Helvetica,sans-Serif" font-size="9.00">rate lookup</text>
</g>
<!-- rates_to_usage&#45;&gt;daily_summary -->
<g id="edge26" class="edge">
<title>rates_to_usage&#45;&gt;daily_summary</title>
<path fill="none" stroke="black" d="M126.66,-133.39C147.68,-158.11 184.8,-200.95 193.25,-205.25 238.79,-228.43 372.92,-237.93 462.57,-241.76"/>
<polygon fill="black" stroke="black" points="462.17,-245.24 472.31,-242.16 462.46,-238.25 462.17,-245.24"/>
<text xml:space="preserve" text-anchor="middle" x="225.12" y="-191.82" font-family="Helvetica,sans-Serif" font-size="9.00">aggregate back</text>
<text xml:space="preserve" text-anchor="middle" x="225.12" y="-182.07" font-family="Helvetica,sans-Serif" font-size="9.00">to cost columns</text>
</g>
<!-- koku_api -->
<g id="node30" class="node">
<title>koku_api</title>
<polygon fill="#c8e6c9" stroke="black" stroke-width="2" points="670,-56 498,-56 498,0 670,0 670,-56"/>
<text xml:space="preserve" text-anchor="middle" x="584" y="-41.55" font-family="Helvetica,sans-Serif" font-size="11.00">Koku Report API</text>
<text xml:space="preserve" text-anchor="middle" x="584" y="-29.55" font-family="Helvetica,sans-Serif" font-size="11.00">GET /reports/openshift/costs/</text>
<text xml:space="preserve" text-anchor="middle" x="584" y="-17.55" font-family="Helvetica,sans-Serif" font-size="11.00">GET /reports/openshift/compute/</text>
<text xml:space="preserve" text-anchor="middle" x="584" y="-5.55" font-family="Helvetica,sans-Serif" font-size="11.00">etc.</text>
</g>
<!-- cost_summary&#45;&gt;koku_api -->
<g id="edge34" class="edge">
<title>cost_summary&#45;&gt;koku_api</title>
<path fill="none" stroke="black" d="M275.95,-96.52C284.87,-92.29 294.65,-88.1 304,-85 363.31,-65.31 432.11,-51.43 486.66,-42.41"/>
<polygon fill="black" stroke="black" points="486.92,-45.92 496.24,-40.86 485.8,-39.01 486.92,-45.92"/>
</g>
<!-- cost_by_project&#45;&gt;koku_api -->
<g id="edge35" class="edge">
<title>cost_by_project&#45;&gt;koku_api</title>
<path fill="none" stroke="black" d="M397.67,-92.58C403.09,-89.89 408.63,-87.28 414,-85 437.29,-75.1 462.97,-65.84 487.16,-57.8"/>
<polygon fill="black" stroke="black" points="487.94,-61.23 496.35,-54.79 485.76,-54.58 487.94,-61.23"/>
</g>
<!-- pod_summary&#45;&gt;koku_api -->
<g id="edge37" class="edge">
<title>pod_summary&#45;&gt;koku_api</title>
<path fill="none" stroke="black" d="M584,-96.8C584,-88.34 584,-77.78 584,-67.53"/>
<polygon fill="black" stroke="black" points="587.5,-67.73 584,-57.73 580.5,-67.73 587.5,-67.73"/>
</g>
<!-- vm_summary&#45;&gt;koku_api -->
<g id="edge36" class="edge">
<title>vm_summary&#45;&gt;koku_api</title>
<path fill="none" stroke="black" d="M943.86,-96.61C935.07,-92.27 925.34,-88.01 916,-85 839.22,-60.24 748.73,-45.9 681.63,-37.94"/>
<polygon fill="black" stroke="black" points="682.07,-34.47 671.73,-36.8 681.26,-41.42 682.07,-34.47"/>
</g>
<!-- gpu_summary&#45;&gt;koku_api -->
<g id="edge38" class="edge">
<title>gpu_summary&#45;&gt;koku_api</title>
<path fill="none" stroke="black" d="M1062.01,-96.65C1052.91,-92.21 1042.76,-87.88 1033,-85 915.11,-50.19 773.59,-37.01 681.37,-32.03"/>
<polygon fill="black" stroke="black" points="681.77,-28.54 671.61,-31.52 681.41,-35.53 681.77,-28.54"/>
</g>
</g>
</svg>
